<svg id="svg" xmlns="http://www.w3.org/2000/svg" xmlns:xlink="http://www.w3.org/1999/xlink" width="400" height="400" viewBox="0, 0, 400, 400"><g id="svgg"><path id="path0" d="M218.383 25.134 C 216.852 30.244,215.375 32.006,212.607 32.024 C 210.562 32.038,207.235 32.493,205.214 33.035 C 202.246 33.833,200.920 32.649,198.319 26.882 L 195.099 19.741 182.438 26.079 C 175.475 29.565,169.543 32.624,169.257 32.877 C 168.971 33.130,170.087 36.170,171.738 39.631 C 174.668 45.776,174.638 46.053,170.481 51.361 C 166.243 56.770,165.468 56.911,155.398 54.104 C 152.170 53.204,151.150 54.539,147.600 64.312 C 145.354 70.496,143.159 76.504,142.723 77.663 C 142.259 78.895,144.943 80.672,149.187 81.944 C 159.323 84.981,160.231 97.538,150.667 102.403 C 147.489 104.019,144.638 105.557,144.330 105.822 C 144.023 106.086,146.638 111.993,150.140 118.949 L 156.509 131.595 163.331 128.115 L 170.153 124.634 175.545 130.317 C 180.726 135.778,180.845 136.256,178.597 142.564 L 176.257 149.129 188.128 153.047 C 194.658 155.202,200.863 157.281,201.919 157.667 C 202.974 158.054,204.806 155.137,205.990 151.185 C 209.089 140.843,221.554 140.252,226.309 150.222 L 229.276 156.444 242.360 149.969 L 255.445 143.495 252.305 137.081 C 249.234 130.807,249.249 130.570,253.001 126.222 C 255.110 123.778,257.306 121.159,257.881 120.404 C 258.456 119.648,261.881 120.264,265.493 121.773 C 272.856 124.850,271.850 125.940,278.403 107.776 C 281.977 97.871,281.602 96.511,274.667 94.222 C 271.244 93.093,268.444 91.131,268.444 89.862 C 268.444 88.594,267.975 85.208,267.401 82.340 C 266.452 77.595,267.006 76.831,273.531 73.889 L 280.704 70.655 274.552 58.438 C 267.897 45.225,267.330 44.869,259.437 48.950 C 250.989 53.319,242.064 44.378,245.470 34.959 C 248.234 27.314,249.254 28.339,233.331 22.773 L 220.440 18.267 218.383 25.134 M225.585 65.058 C 244.372 76.156,242.229 104.238,221.953 112.641 C 191.987 125.060,170.442 82.429,198.146 65.534 C 204.886 61.424,219.018 61.179,225.585 65.058 M282.286 131.859 L 270.349 137.307 272.937 143.501 C 276.126 151.133,270.550 160.757,264.000 158.928 C 252.667 155.763,253.302 155.366,248.601 168.555 L 244.176 180.969 250.977 183.214 C 260.555 186.374,261.151 197.304,252.000 201.958 C 248.822 203.574,246.015 205.069,245.762 205.279 C 245.009 205.904,255.950 229.333,256.995 229.333 C 257.523 229.333,260.423 228.057,263.440 226.497 C 272.090 222.024,280.529 230.838,276.600 240.242 L 273.976 246.523 285.803 250.817 C 292.309 253.179,298.099 255.323,298.671 255.582 C 299.243 255.840,300.728 253.240,301.971 249.804 C 303.683 245.068,305.243 243.556,308.414 243.556 C 310.715 243.556,313.823 243.085,315.321 242.511 C 317.240 241.774,318.847 243.387,320.764 247.975 C 323.834 255.324,324.932 255.313,339.915 247.783 L 348.274 243.582 345.575 237.122 C 341.482 227.327,349.012 219.377,358.590 223.379 C 362.021 224.813,365.019 225.739,365.253 225.437 C 365.486 225.136,367.742 219.460,370.267 212.824 L 374.858 200.759 368.162 198.080 C 358.838 194.349,357.696 183.087,366.281 179.531 C 373.846 176.398,373.892 175.946,367.976 162.899 L 362.659 151.172 356.438 154.139 C 347.061 158.610,338.456 150.622,342.423 141.128 C 345.255 134.350,346.235 135.207,328.221 128.708 C 319.044 125.397,319.260 125.327,316.687 132.444 C 314.627 138.139,313.835 138.667,307.350 138.667 C 300.931 138.667,300.018 138.080,297.663 132.444 C 296.233 129.022,294.874 126.265,294.643 126.316 C 294.411 126.368,288.851 128.862,282.286 131.859 M119.111 156.992 L 119.111 169.984 107.111 174.705 L 95.111 179.426 86.178 170.613 L 77.244 161.800 59.961 179.149 L 42.677 196.497 51.547 205.367 L 60.416 214.236 55.541 226.202 L 50.667 238.168 37.778 238.195 L 24.889 238.222 24.889 263.111 L 24.889 288.000 37.778 288.027 L 50.667 288.054 55.378 299.626 L 60.090 311.197 50.934 319.970 L 41.778 328.742 59.511 346.582 L 77.244 364.422 86.178 355.609 L 95.111 346.796 107.111 351.517 L 119.111 356.238 119.111 369.230 L 119.111 382.222 144.000 382.222 L 168.889 382.222 168.889 369.284 L 168.889 356.347 180.604 351.243 L 192.319 346.139 201.466 355.287 L 210.614 364.434 227.962 347.150 L 245.311 329.867 236.181 320.622 L 227.051 311.378 232.143 299.689 L 237.236 288.000 249.729 288.000 L 262.222 288.000 262.222 263.111 L 262.222 238.222 249.729 238.222 L 237.236 238.222 232.143 226.533 L 227.051 214.845 236.181 205.600 L 245.311 196.355 227.538 178.649 L 209.766 160.943 200.693 170.016 L 191.621 179.088 180.255 174.578 L 168.889 170.069 168.889 157.034 L 168.889 144.000 144.000 144.000 L 119.111 144.000 119.111 156.992 M319.644 167.831 C 343.900 180.452,336.343 215.098,309.333 215.098 C 283.681 215.098,275.175 182.380,297.317 168.879 C 304.113 164.736,312.902 164.323,319.644 167.831 M159.176 219.853 C 171.453 224.036,183.790 236.764,187.422 248.993 C 201.309 295.757,144.282 329.851,110.767 294.822 C 77.443 259.994,113.428 204.265,159.176 219.853 " stroke="none" fill="#000000" fill-rule="evenodd"></path></g></svg>