<svg id="svg" xmlns="http://www.w3.org/2000/svg" xmlns:xlink="http://www.w3.org/1999/xlink" width="400" height="306.1295971978984" viewBox="0, 0, 400,306.1295971978984"><g id="svgg"><defs><linearGradient id="gradient"><stop offset="0%"  stop-color="#ee0979" /><stop offset="100%" stop-color="#ff6a00" /></linearGradient></defs><path id="path0" d="M243.845 19.100 C 242.917 19.576,242.010 20.595,241.832 21.366 C 241.175 24.202,241.430 30.151,242.244 30.965 C 242.705 31.427,243.080 32.135,243.078 32.539 C 243.075 32.944,242.447 32.329,241.681 31.173 C 240.916 30.018,240.289 29.387,240.288 29.772 C 240.288 30.158,241.096 31.419,242.086 32.574 C 243.075 33.730,243.660 34.241,243.386 33.709 C 243.049 33.056,243.202 32.871,243.860 33.139 C 247.920 34.789,250.206 35.197,251.666 34.532 C 252.532 34.138,253.555 33.791,253.940 33.761 C 255.671 33.629,256.145 27.156,254.637 24.263 C 253.401 21.895,253.339 21.479,254.311 22.079 C 254.707 22.324,255.492 23.524,256.055 24.747 C 256.826 26.422,256.976 26.539,256.663 25.219 C 256.435 24.256,255.450 22.680,254.474 21.716 C 253.498 20.753,252.919 20.359,253.186 20.841 C 253.870 22.072,252.542 21.935,251.489 20.665 C 250.481 19.452,247.953 19.320,244.526 20.303 C 242.624 20.848,242.305 20.812,242.989 20.128 C 243.477 19.640,245.638 19.264,247.954 19.264 C 250.210 19.264,251.691 19.033,251.247 18.750 C 249.980 17.944,245.707 18.146,243.845 19.100 M213.310 19.533 C 214.517 20.063,214.346 20.219,212.076 20.661 C 210.627 20.944,209.239 21.503,208.991 21.904 C 208.701 22.374,208.890 22.417,209.524 22.026 C 210.065 21.692,209.720 22.383,208.757 23.562 C 207.585 24.997,206.810 25.451,206.414 24.937 C 206.075 24.496,206.034 24.766,206.319 25.569 C 206.593 26.340,206.938 27.891,207.086 29.017 C 207.235 30.143,207.829 31.586,208.407 32.225 C 210.018 34.005,209.653 34.706,207.881 33.234 L 206.305 31.926 207.853 33.604 C 209.511 35.400,209.649 35.444,216.246 36.275 C 220.013 36.750,220.473 36.686,219.748 35.793 C 219.063 34.947,219.132 34.846,220.140 35.223 C 220.960 35.531,221.366 35.342,221.366 34.654 C 221.366 34.088,221.681 33.586,222.067 33.538 C 222.452 33.489,223.161 33.411,223.643 33.363 C 225.967 33.130,226.406 23.818,224.093 23.818 C 223.301 23.818,221.366 22.084,221.366 21.375 C 221.366 21.132,221.730 21.158,222.175 21.433 C 222.680 21.745,222.793 21.625,222.477 21.113 C 222.198 20.661,221.683 20.470,221.332 20.686 C 220.981 20.903,220.136 20.787,219.454 20.429 C 218.772 20.071,216.795 19.584,215.061 19.348 C 212.993 19.067,212.391 19.130,213.310 19.533 M239.859 23.401 C 239.651 23.942,239.591 25.440,239.726 26.728 C 239.941 28.783,240.012 28.662,240.306 25.744 C 240.649 22.332,240.523 21.670,239.859 23.401 M225.059 28.539 C 224.868 29.788,224.444 30.643,224.116 30.441 C 223.789 30.239,223.844 29.224,224.239 28.186 C 224.739 26.870,224.729 26.223,224.207 26.049 C 223.796 25.912,223.662 25.471,223.910 25.069 C 224.681 23.822,225.433 26.093,225.059 28.539 M286.700 25.090 C 286.186 25.416,286.822 25.639,288.266 25.639 C 289.711 25.639,290.346 25.416,289.832 25.090 C 289.356 24.787,288.651 24.540,288.266 24.540 C 287.881 24.540,287.176 24.787,286.700 25.090 M286.865 26.582 C 286.095 26.892,285.243 27.018,284.974 26.863 C 284.704 26.708,284.135 27.299,283.709 28.177 C 282.949 29.744,282.956 29.748,284.119 28.371 L 285.302 26.970 284.757 28.371 C 284.456 29.142,284.189 30.345,284.162 31.045 C 284.116 32.255,284.068 32.257,283.212 31.087 C 282.717 30.409,282.312 30.212,282.312 30.648 C 282.312 31.357,283.483 32.452,284.413 32.614 C 284.606 32.647,285.668 33.113,286.772 33.650 C 288.657 34.565,288.881 34.509,290.399 32.745 C 291.445 31.528,292.138 31.166,292.363 31.720 C 292.603 32.313,292.726 32.273,292.764 31.590 C 292.825 30.504,289.535 25.890,288.756 25.969 C 288.487 25.996,287.636 26.272,286.865 26.582 M151.138 35.749 C 153.343 36.635,153.107 37.325,150.774 36.813 C 148.247 36.258,146.457 37.606,145.662 40.665 L 145.033 43.082 145.351 40.280 C 145.573 38.328,145.466 37.797,145.000 38.529 C 143.921 40.221,144.206 42.737,145.534 43.245 C 146.208 43.504,147.274 44.349,147.903 45.123 C 149.816 47.482,155.462 46.517,155.506 43.824 C 155.512 43.461,155.123 43.701,154.641 44.356 C 153.902 45.363,153.765 44.958,153.765 41.755 C 153.765 39.429,154.036 38.115,154.466 38.358 C 154.851 38.576,154.402 37.916,153.468 36.891 C 152.534 35.865,151.273 35.046,150.666 35.071 C 149.965 35.099,150.137 35.346,151.138 35.749 M246.257 35.790 C 248.068 36.498,252.020 36.570,252.425 35.902 C 252.601 35.613,250.974 35.348,248.811 35.314 C 246.304 35.274,245.377 35.446,246.257 35.790 M211.559 37.118 C 212.137 37.497,213.371 37.812,214.302 37.818 C 216.551 37.832,215.981 37.434,212.960 36.879 C 211.235 36.563,210.819 36.633,211.559 37.118 M269.162 38.704 C 268.770 39.186,268.523 40.732,268.614 42.141 C 268.771 44.590,268.706 44.669,267.139 43.955 C 266.237 43.544,265.499 42.924,265.499 42.578 C 265.499 42.232,265.762 42.111,266.083 42.310 C 266.404 42.508,266.667 42.242,266.667 41.717 C 266.667 40.966,266.393 40.936,265.374 41.572 C 264.663 42.016,264.236 42.781,264.425 43.274 C 264.614 43.767,263.540 45.025,262.032 46.077 C 259.885 47.575,259.193 48.589,258.816 50.788 C 258.552 52.329,258.029 53.970,257.654 54.435 C 257.279 54.900,257.196 55.643,257.470 56.086 C 257.840 56.684,258.107 56.669,258.503 56.027 C 258.797 55.551,259.422 55.399,259.891 55.690 C 260.548 56.095,260.526 56.356,259.795 56.819 C 259.115 57.250,259.335 57.425,260.570 57.432 C 262.237 57.443,262.252 57.485,261.012 58.669 C 260.071 59.567,259.640 59.661,259.402 59.019 C 259.224 58.538,258.799 58.144,258.457 58.144 C 258.116 58.144,258.029 58.642,258.263 59.252 C 258.598 60.125,258.257 60.326,256.665 60.197 C 253.101 59.909,252.189 60.196,252.189 61.605 C 252.189 63.277,251.381 63.847,250.118 63.066 C 249.054 62.409,247.285 62.868,247.285 63.801 C 247.285 64.133,247.810 64.203,248.451 63.957 C 249.235 63.656,249.451 63.778,249.110 64.329 C 248.832 64.780,248.043 65.149,247.357 65.149 C 246.671 65.149,245.726 65.990,245.258 67.018 C 244.500 68.681,244.526 68.788,245.495 67.983 C 247.641 66.203,246.530 67.953,243.606 70.962 C 240.957 73.688,240.325 74.004,237.900 73.813 C 234.583 73.552,233.626 74.041,234.766 75.415 C 235.494 76.292,235.313 76.416,233.574 76.228 C 231.917 76.049,231.524 76.276,231.524 77.408 C 231.524 78.380,231.976 78.795,233.000 78.764 C 234.056 78.732,234.388 79.059,234.165 79.911 C 233.775 81.401,235.232 82.386,236.278 81.340 C 237.481 80.137,238.468 80.418,237.431 81.668 C 236.702 82.546,236.688 83.058,237.361 84.136 C 238.139 85.382,238.093 85.423,236.811 84.622 C 235.765 83.969,235.210 83.949,234.614 84.545 C 233.493 85.666,234.561 87.059,236.211 86.627 C 237.228 86.361,237.483 86.543,237.183 87.324 C 236.960 87.905,236.778 88.513,236.778 88.674 C 236.778 89.567,234.882 88.757,234.121 87.538 C 233.631 86.753,232.960 86.277,232.631 86.480 C 232.302 86.683,231.869 86.222,231.669 85.456 C 231.468 84.690,230.823 84.063,230.235 84.063 C 229.647 84.063,228.966 83.433,228.722 82.662 C 228.477 81.891,227.864 81.261,227.359 81.261 C 226.150 81.261,224.738 82.996,225.400 83.669 C 225.686 83.959,225.306 84.087,224.557 83.955 C 223.681 83.799,222.898 84.296,222.362 85.347 L 221.529 86.982 220.086 85.432 C 219.249 84.535,218.189 84.057,217.565 84.296 C 216.774 84.600,216.531 84.299,216.651 83.160 C 216.788 81.847,216.492 81.630,214.711 81.734 C 212.997 81.833,212.817 81.717,213.736 81.099 C 215.276 80.065,210.682 75.396,208.733 76.015 C 207.734 76.332,207.549 76.117,207.846 74.985 C 208.104 73.998,207.882 73.555,207.128 73.555 C 205.764 73.555,204.714 75.127,205.830 75.499 C 206.931 75.866,206.887 77.058,205.773 77.058 C 205.287 77.058,204.504 76.439,204.031 75.682 C 203.128 74.236,205.410 70.753,207.261 70.753 C 207.698 70.753,208.056 70.280,208.056 69.702 C 208.056 69.124,207.504 68.651,206.830 68.651 C 205.950 68.651,205.604 68.089,205.604 66.657 C 205.604 65.560,205.919 64.693,206.305 64.730 C 207.719 64.868,207.363 63.390,205.929 63.167 C 205.018 63.025,204.587 62.569,204.811 61.986 C 205.011 61.463,204.256 60.136,203.131 59.037 C 202.007 57.937,200.969 56.262,200.825 55.314 C 200.665 54.262,200.043 53.524,199.230 53.421 C 197.963 53.260,197.964 53.280,199.262 53.829 C 200.537 54.368,200.515 54.434,198.933 54.848 C 197.960 55.103,196.342 54.842,195.127 54.236 C 193.782 53.565,192.926 53.447,192.771 53.912 C 192.637 54.313,192.220 54.641,191.844 54.641 C 191.468 54.641,191.356 54.326,191.594 53.940 C 191.832 53.555,191.693 53.240,191.285 53.240 C 190.877 53.240,190.543 53.518,190.543 53.859 C 190.543 54.565,187.861 55.555,186.445 55.371 C 185.924 55.303,185.684 55.548,185.911 55.916 C 186.139 56.283,185.845 56.982,185.259 57.468 C 184.331 58.238,184.280 58.124,184.865 56.587 C 185.649 54.524,184.593 49.331,183.019 47.505 C 182.458 46.855,182.174 46.040,182.387 45.695 C 182.601 45.350,182.330 45.067,181.786 45.067 C 181.242 45.067,180.990 45.379,181.225 45.759 C 181.670 46.479,180.443 45.904,178.776 44.611 C 178.119 44.102,178.086 43.771,178.660 43.417 C 179.199 43.083,179.101 42.792,178.351 42.504 C 177.745 42.272,177.325 42.307,177.416 42.582 C 177.670 43.344,176.712 43.504,174.792 43.022 C 173.614 42.727,171.565 43.285,168.411 44.761 C 163.195 47.202,162.338 47.429,164.314 45.846 C 165.617 44.802,165.607 44.789,164.078 45.531 C 163.201 45.957,162.628 46.541,162.806 46.829 C 162.984 47.117,162.840 47.810,162.486 48.370 C 161.929 49.251,161.840 49.246,161.821 48.336 C 161.802 47.402,161.722 47.402,161.103 48.336 C 160.719 48.914,160.586 50.523,160.807 51.911 C 161.176 54.227,161.031 54.508,159.041 55.333 C 157.848 55.826,157.011 56.369,157.180 56.538 C 158.539 57.897,161.957 54.339,161.583 51.954 C 161.245 49.792,161.308 49.607,161.981 50.782 C 163.993 54.291,158.945 58.980,154.387 57.836 C 153.423 57.594,152.718 57.825,152.473 58.463 C 152.215 59.137,152.424 59.343,153.100 59.084 C 153.659 58.870,154.116 59.043,154.116 59.470 C 154.116 59.896,153.666 60.245,153.116 60.245 C 152.566 60.245,151.534 60.954,150.822 61.821 C 150.110 62.688,149.063 63.501,148.494 63.627 C 147.893 63.760,148.247 63.028,149.342 61.875 C 152.590 58.458,153.226 54.710,151.037 51.893 C 150.405 51.079,150.553 50.970,151.838 51.301 C 152.705 51.525,153.620 51.373,153.873 50.964 C 154.143 50.527,153.999 50.427,153.523 50.721 C 153.078 50.996,152.715 50.908,152.715 50.526 C 152.715 50.144,151.848 49.841,150.788 49.852 C 149.729 49.864,147.586 49.407,146.026 48.836 C 143.506 47.913,142.963 47.917,141.144 48.871 C 140.018 49.461,138.491 49.976,137.751 50.015 C 136.227 50.097,135.146 62.347,136.663 62.347 C 137.060 62.347,137.159 61.953,136.881 61.471 C 136.604 60.989,137.165 61.312,138.129 62.188 C 140.168 64.042,144.093 65.363,144.690 64.397 C 144.911 64.040,145.616 63.748,146.257 63.748 C 147.185 63.748,147.111 63.966,145.893 64.819 C 144.193 66.010,141.562 65.671,138.704 63.892 C 137.081 62.882,137.023 62.888,137.910 63.971 C 139.299 65.666,143.954 66.789,145.706 65.851 C 146.479 65.438,147.115 65.347,147.121 65.650 C 147.127 65.952,147.459 65.727,147.859 65.149 C 148.458 64.284,148.544 64.346,148.347 65.499 C 148.208 66.314,147.605 66.859,146.908 66.803 C 146.249 66.749,145.709 67.162,145.709 67.720 C 145.709 68.278,145.423 68.558,145.074 68.342 C 144.722 68.124,144.631 68.652,144.871 69.526 C 145.222 70.808,145.350 70.874,145.557 69.877 C 145.697 69.203,146.097 68.651,146.446 68.651 C 146.795 68.651,146.726 69.430,146.292 70.381 C 145.859 71.332,145.314 71.992,145.081 71.848 C 144.849 71.703,144.768 73.132,144.901 75.022 C 145.060 77.273,144.868 78.459,144.344 78.459 C 143.814 78.459,143.695 79.262,143.991 80.843 C 144.373 82.879,144.217 83.297,142.920 83.709 C 142.084 83.974,141.555 84.345,141.744 84.534 C 142.703 85.494,145.130 83.143,144.825 81.549 C 144.648 80.620,144.774 79.860,145.106 79.860 C 145.438 79.860,145.709 80.963,145.709 82.312 C 145.709 84.049,145.396 84.764,144.634 84.764 C 144.042 84.764,142.826 85.244,141.931 85.830 C 140.473 86.785,140.210 86.785,139.418 85.830 C 138.931 85.244,138.135 84.764,137.649 84.764 C 137.163 84.764,136.601 84.133,136.399 83.363 C 135.975 81.739,134.132 81.488,133.561 82.977 C 133.300 83.655,133.508 83.863,134.186 83.602 C 135.265 83.188,135.472 83.944,134.776 85.757 C 134.273 87.069,132.400 87.252,132.398 85.989 C 132.396 84.251,121.905 84.720,121.823 86.462 C 121.785 87.262,121.376 86.499,120.915 84.768 C 120.360 82.689,119.519 81.343,118.437 80.803 C 117.536 80.354,116.566 79.610,116.282 79.150 C 115.883 78.506,115.411 78.504,114.220 79.141 C 113.370 79.596,112.148 79.752,111.504 79.488 C 110.463 79.062,110.488 78.940,111.734 78.390 C 113.135 77.770,113.135 77.770,111.734 77.949 C 110.963 78.047,110.293 78.517,110.245 78.994 C 110.197 79.470,110.118 80.175,110.070 80.560 C 110.022 80.946,109.352 81.261,108.581 81.261 C 107.811 81.261,107.180 81.610,107.180 82.036 C 107.180 82.463,106.734 82.640,106.188 82.431 C 105.642 82.221,105.027 82.487,104.822 83.021 C 104.591 83.623,104.800 83.857,105.374 83.637 C 105.883 83.442,106.487 83.773,106.718 84.373 C 107.004 85.119,106.726 85.464,105.839 85.464 C 105.102 85.464,104.372 86.113,104.149 86.966 C 103.854 88.093,103.956 88.268,104.558 87.667 C 104.998 87.226,105.634 86.865,105.969 86.865 C 106.305 86.865,106.107 87.338,105.529 87.916 C 104.951 88.494,104.156 88.967,103.763 88.967 C 103.369 88.967,102.795 89.393,102.487 89.915 C 102.179 90.436,101.454 91.042,100.876 91.261 C 100.261 91.493,100.615 91.681,101.729 91.714 C 103.228 91.757,103.555 91.508,103.266 90.543 C 103.007 89.678,103.245 89.781,104.074 90.893 C 104.721 91.760,105.842 92.469,106.565 92.469 C 107.289 92.469,107.881 92.942,107.881 93.520 C 107.881 94.251,107.146 94.571,105.470 94.571 C 103.110 94.571,101.224 95.971,102.853 96.514 C 104.231 96.974,103.797 99.575,102.277 99.972 C 101.506 100.174,100.876 100.813,100.876 101.393 C 100.876 102.156,100.633 102.248,100.000 101.725 C 98.591 100.561,93.870 99.878,93.870 100.839 C 93.870 101.290,94.186 101.464,94.571 101.226 C 95.389 100.720,95.478 101.568,94.731 102.742 C 94.347 103.346,93.850 103.294,92.819 102.540 C 91.624 101.666,91.575 101.427,92.473 100.859 C 93.112 100.455,93.192 100.192,92.679 100.186 C 92.217 100.180,91.538 100.712,91.171 101.368 C 90.591 102.404,90.347 102.431,89.317 101.576 C 88.124 100.586,92.428 98.233,93.838 99.105 C 95.643 100.220,97.964 92.200,96.634 89.446 C 95.920 87.968,95.932 87.962,96.984 89.276 C 97.583 90.024,98.074 90.279,98.074 89.842 C 98.074 89.406,97.758 88.855,97.373 88.616 C 96.988 88.378,96.650 87.493,96.623 86.649 C 96.576 85.169,96.552 85.164,95.972 86.515 C 95.431 87.773,95.365 87.786,95.321 86.643 C 95.282 85.650,94.924 85.478,93.695 85.860 C 92.174 86.334,92.162 86.303,93.345 84.977 C 95.457 82.609,94.666 80.427,91.419 79.666 C 90.648 79.485,91.200 79.459,92.644 79.607 C 94.210 79.768,95.271 79.574,95.271 79.127 C 95.271 77.889,89.323 78.616,89.285 79.860 C 89.268 80.438,88.846 80.823,88.349 80.715 C 87.852 80.608,87.278 81.160,87.073 81.941 C 86.869 82.723,86.424 83.363,86.085 83.363 C 85.303 83.363,79.728 88.368,80.098 88.738 C 80.250 88.890,81.487 87.900,82.849 86.538 C 84.597 84.790,85.911 84.084,87.320 84.135 C 89.294 84.206,89.291 84.213,87.012 84.753 C 84.423 85.366,81.961 87.302,81.961 88.725 C 81.961 89.243,81.467 89.667,80.863 89.667 C 80.097 89.667,79.895 90.076,80.195 91.021 C 80.554 92.153,80.133 92.494,77.615 93.107 C 74.921 93.763,74.869 93.811,77.118 93.567 C 78.499 93.418,80.076 93.612,80.621 93.999 C 81.413 94.562,81.371 94.626,80.408 94.317 C 79.746 94.105,79.044 94.191,78.848 94.508 C 78.652 94.824,77.697 94.931,76.724 94.746 C 75.403 94.493,74.956 94.704,74.956 95.581 C 74.956 96.227,74.641 96.560,74.256 96.322 C 73.870 96.084,73.531 96.144,73.502 96.456 C 73.380 97.741,72.945 99.614,72.732 99.766 C 72.607 99.855,71.401 100.644,70.053 101.519 L 67.601 103.111 69.813 101.117 C 71.029 100.021,72.227 98.336,72.473 97.373 C 72.884 95.767,72.853 95.738,72.098 97.023 C 71.644 97.793,69.974 99.827,68.386 101.541 C 66.798 103.255,66.105 104.201,66.847 103.643 C 68.103 102.695,68.163 102.745,67.732 104.378 C 67.478 105.342,67.265 106.776,67.260 107.566 C 67.252 108.755,66.529 109.151,63.047 109.870 C 57.165 111.085,57.512 112.404,63.573 111.864 C 67.888 111.479,68.469 111.590,70.228 113.131 C 72.966 115.531,72.618 116.107,69.750 113.919 C 67.610 112.287,67.053 112.162,64.671 112.775 L 61.996 113.464 64.710 113.154 C 66.821 112.913,67.923 113.227,69.679 114.566 C 72.054 116.377,73.555 116.768,73.555 115.575 C 73.555 115.183,74.736 114.953,76.182 115.064 C 78.833 115.267,80.301 118.039,77.758 118.039 C 77.180 118.039,76.786 117.644,76.883 117.163 C 76.979 116.681,76.743 116.287,76.357 116.287 C 75.972 116.287,75.657 116.568,75.657 116.912 C 75.657 117.255,74.831 117.744,73.823 117.997 C 72.814 118.250,72.140 118.608,72.325 118.793 C 72.509 118.977,73.510 118.805,74.549 118.411 C 75.776 117.944,76.286 117.937,76.006 118.391 C 75.768 118.775,75.169 119.089,74.673 119.089 C 74.178 119.089,73.202 119.720,72.504 120.490 C 71.807 121.261,70.831 121.891,70.336 121.891 C 69.840 121.891,69.210 122.255,68.935 122.700 C 68.625 123.201,68.743 123.319,69.244 123.009 C 69.689 122.734,70.053 122.812,70.053 123.182 C 70.053 123.552,71.110 123.824,72.403 123.788 C 74.334 123.733,74.693 123.489,74.414 122.420 C 74.077 121.134,77.136 121.207,78.611 122.519 C 79.580 123.382,78.372 126.194,77.385 125.375 C 76.735 124.836,76.332 124.869,75.945 125.494 C 75.650 125.972,75.762 126.480,76.194 126.624 C 77.299 126.992,76.465 128.790,74.768 129.698 C 73.585 130.331,73.414 130.274,73.764 129.364 C 74.026 128.680,73.868 128.389,73.344 128.590 C 71.529 129.288,72.221 132.398,74.449 133.550 C 76.415 134.567,76.760 134.565,78.512 133.530 C 80.931 132.101,81.022 132.109,81.464 133.800 C 81.674 134.605,82.419 135.201,83.215 135.201 C 85.208 135.201,85.801 138.552,83.860 138.844 C 83.092 138.960,82.213 139.737,81.907 140.572 C 81.058 142.884,82.937 143.142,85.071 141.007 C 87.379 138.700,88.325 139.461,86.084 141.822 C 84.212 143.796,83.251 143.988,81.308 142.774 C 80.261 142.120,79.734 142.140,78.857 142.867 C 77.118 144.311,78.746 145.757,81.494 145.207 C 83.578 144.791,83.637 144.834,82.514 145.958 C 80.782 147.689,81.810 149.678,84.238 149.295 C 85.344 149.120,84.702 150.526,83.538 150.831 C 82.370 151.136,82.370 151.155,83.538 151.232 C 84.212 151.277,84.764 151.643,84.764 152.045 C 84.764 152.447,84.212 152.683,83.538 152.570 C 82.689 152.428,82.236 152.903,82.066 154.116 C 81.764 156.267,80.855 156.893,78.013 156.907 C 75.639 156.919,73.107 153.297,73.951 151.097 C 74.259 150.295,73.787 150.053,71.917 150.053 C 70.579 150.053,68.526 149.842,67.357 149.586 C 66.098 149.309,64.571 149.476,63.614 149.994 C 62.724 150.475,61.171 150.810,60.162 150.737 C 58.185 150.594,56.192 155.131,56.944 158.060 C 57.181 158.982,57.305 158.810,57.362 157.476 C 57.458 155.229,58.819 152.014,59.673 152.014 C 60.006 152.014,59.757 152.808,59.121 153.779 C 58.335 154.979,58.093 156.335,58.366 158.019 C 58.800 160.694,58.753 160.736,54.466 161.448 C 52.440 161.785,51.839 162.209,51.839 163.301 C 51.839 164.363,51.513 164.614,50.537 164.305 C 48.938 163.797,47.164 164.419,46.691 165.651 C 46.284 166.711,59.312 166.968,59.964 165.913 C 60.164 165.589,60.588 165.324,60.905 165.324 C 61.729 165.324,62.335 168.051,61.611 168.498 C 61.279 168.703,61.185 169.335,61.402 169.902 C 61.682 170.630,61.155 171.061,59.610 171.370 C 58.122 171.668,57.482 172.169,57.608 172.938 C 57.710 173.559,57.084 174.382,56.217 174.766 C 55.350 175.150,54.641 175.862,54.641 176.348 C 54.641 177.499,55.665 177.480,56.635 176.312 C 58.647 173.888,64.355 172.028,65.793 173.329 C 67.097 174.509,67.138 174.503,66.795 173.191 C 66.544 172.231,66.857 171.712,67.842 171.454 C 68.841 171.193,69.139 171.367,68.874 172.058 C 68.669 172.593,68.929 173.063,69.452 173.104 C 69.975 173.145,71.031 173.224,71.798 173.279 C 72.566 173.335,73.712 172.864,74.346 172.233 C 74.980 171.602,76.051 170.777,76.727 170.399 C 77.402 170.021,77.737 169.358,77.470 168.927 C 77.121 168.362,76.552 168.415,75.445 169.112 C 72.781 170.790,70.753 171.154,70.753 169.954 C 70.753 167.566,76.634 165.147,79.069 166.533 C 81.814 168.096,81.804 168.512,78.984 169.960 C 77.732 170.603,75.674 172.219,74.412 173.551 C 72.508 175.559,71.937 175.823,71.067 175.102 C 70.491 174.623,69.816 174.434,69.569 174.681 C 69.321 174.929,69.505 175.131,69.977 175.131 C 70.449 175.131,70.611 175.495,70.336 175.940 C 70.026 176.441,70.144 176.559,70.645 176.249 C 71.090 175.974,71.454 176.046,71.454 176.409 C 71.454 178.271,74.834 177.667,75.221 175.736 C 75.521 174.232,75.914 173.855,76.862 174.161 C 77.826 174.472,77.889 174.406,77.138 173.872 C 76.346 173.307,76.429 173.040,77.594 172.417 C 78.721 171.814,79.106 171.881,79.435 172.737 C 80.002 174.216,81.306 173.288,80.777 171.781 C 80.447 170.841,80.547 170.756,81.237 171.392 C 82.324 172.396,81.189 176.286,79.895 175.989 C 79.364 175.868,79.209 176.285,79.473 177.117 C 79.934 178.570,73.965 184.574,72.785 183.845 C 72.438 183.630,72.154 183.789,72.154 184.197 C 72.154 184.605,73.021 184.964,74.081 184.996 C 76.099 185.056,72.901 186.933,70.053 187.360 C 68.388 187.609,68.441 190.139,70.142 191.632 C 70.996 192.382,71.443 192.567,71.136 192.044 C 70.709 191.318,70.933 191.206,72.083 191.571 C 73.231 191.936,74.039 191.537,75.480 189.895 C 77.698 187.366,78.970 187.128,78.813 189.270 C 78.746 190.174,78.006 191.073,77.003 191.467 C 76.070 191.834,74.313 192.564,73.099 193.090 C 71.885 193.616,70.388 194.046,69.772 194.046 C 69.156 194.046,68.651 194.313,68.651 194.641 C 68.651 194.968,70.505 195.195,72.770 195.145 C 76.992 195.052,77.592 195.566,75.793 197.735 C 75.107 198.561,75.181 198.954,76.173 199.732 C 77.294 200.611,77.319 200.588,76.447 199.475 C 75.183 197.864,77.127 197.694,78.459 199.299 C 79.382 200.412,82.774 200.619,85.114 199.705 C 85.894 199.400,87.026 199.476,87.668 199.877 C 88.502 200.397,89.721 200.253,92.073 199.354 C 96.080 197.824,97.731 198.625,99.165 202.796 C 100.214 205.848,99.062 208.262,96.735 207.886 C 96.123 207.787,95.698 208.093,95.792 208.566 C 95.885 209.039,94.940 209.969,93.690 210.632 C 91.823 211.623,91.654 211.888,92.738 212.118 C 93.463 212.272,95.442 211.421,97.136 210.227 C 100.186 208.077,101.860 207.352,100.398 208.814 C 99.860 209.352,99.855 210.270,100.381 211.983 C 100.926 213.759,100.904 214.612,100.298 215.219 C 99.667 215.849,99.475 215.654,99.475 214.384 C 99.475 213.472,99.279 212.922,99.040 213.161 C 98.353 213.848,99.470 218.649,100.211 218.192 C 100.576 217.966,100.876 218.282,100.876 218.895 C 100.876 220.335,102.952 221.139,103.670 219.977 C 104.343 218.888,105.779 219.651,105.779 221.098 C 105.779 221.676,105.500 221.976,105.158 221.765 C 104.817 221.554,104.141 221.858,103.658 222.441 C 102.926 223.323,102.971 223.426,103.929 223.058 C 104.716 222.757,105.079 222.991,105.079 223.801 C 105.079 225.022,106.572 225.021,106.601 223.800 C 106.651 221.757,107.955 220.656,109.406 221.432 C 110.580 222.061,110.679 222.339,109.902 222.832 C 109.237 223.253,109.200 223.450,109.785 223.457 C 110.284 223.463,110.457 223.941,110.203 224.605 C 109.934 225.305,110.244 226.010,111.009 226.438 C 112.019 227.004,112.072 227.248,111.292 227.742 C 110.503 228.242,110.500 228.352,111.274 228.361 C 111.792 228.366,112.374 227.763,112.569 227.019 C 112.940 225.599,114.886 225.774,114.886 227.227 C 114.886 228.085,112.075 230.165,111.234 229.929 C 110.959 229.852,110.938 230.321,111.187 230.971 C 111.468 231.704,111.746 231.836,111.919 231.319 C 112.118 230.723,112.496 230.784,113.248 231.536 C 113.826 232.114,114.588 232.408,114.943 232.189 C 115.297 231.970,115.587 232.587,115.587 233.559 C 115.587 234.610,116.155 235.631,116.988 236.077 C 118.657 236.970,118.833 238.179,117.294 238.179 C 116.480 238.179,116.255 238.764,116.418 240.455 C 116.608 242.428,116.884 242.716,118.478 242.612 C 120.245 242.497,120.295 242.593,119.742 245.044 C 119.102 247.884,119.396 248.660,120.642 247.414 C 122.027 246.029,123.123 246.455,122.781 248.245 C 122.478 249.832,126.285 252.232,127.376 251.142 C 127.570 250.947,127.312 250.788,126.803 250.788 C 126.150 250.788,126.251 250.376,127.145 249.387 C 128.752 247.612,129.387 247.621,129.960 249.426 C 130.579 251.376,135.675 251.173,135.346 249.212 C 135.062 247.523,136.383 247.669,137.326 249.430 C 138.353 251.349,140.862 250.951,142.004 248.687 C 142.489 247.723,142.891 247.198,142.897 247.520 C 142.903 247.842,144.370 246.817,146.158 245.243 C 149.266 242.507,153.279 241.064,151.365 243.370 C 150.744 244.119,150.742 244.480,151.358 244.861 C 151.805 245.137,152.372 245.050,152.618 244.668 C 153.467 243.345,156.026 242.975,156.462 244.112 C 156.747 244.855,157.844 245.184,160.032 245.184 C 163.659 245.184,165.368 246.946,165.478 250.798 C 165.512 252.018,165.965 253.180,166.483 253.378 C 167.617 253.813,167.763 257.168,166.637 256.918 C 166.204 256.821,165.705 257.137,165.528 257.618 C 165.352 258.100,165.706 258.494,166.316 258.494 C 167.865 258.494,167.767 261.715,166.200 262.319 C 165.032 262.769,165.032 262.824,166.200 263.479 C 166.874 263.858,167.426 264.576,167.426 265.075 C 167.426 266.246,169.846 268.449,170.460 267.836 C 170.717 267.578,170.928 266.411,170.928 265.242 C 170.928 263.954,171.177 263.379,171.561 263.783 C 172.703 264.985,172.751 267.233,171.654 268.178 C 170.714 268.988,170.768 269.066,172.076 268.789 C 173.330 268.525,173.655 268.887,174.063 271.014 C 175.014 275.957,175.136 280.475,174.334 280.971 C 173.775 281.316,173.878 281.936,174.688 283.092 C 175.924 284.857,176.240 286.850,175.180 286.195 C 174.821 285.973,174.308 286.147,174.039 286.582 C 173.771 287.016,173.959 287.624,174.458 287.933 C 174.957 288.241,175.365 289.545,175.365 290.832 C 175.365 292.118,175.490 292.794,175.644 292.334 C 175.797 291.874,176.407 291.683,176.999 291.910 C 178.852 292.621,179.236 290.717,178.954 282.213 C 178.713 274.943,178.810 274.017,179.779 274.389 C 180.579 274.696,180.808 274.450,180.622 273.484 C 180.474 272.713,179.783 272.156,178.975 272.155 C 178.065 272.155,177.506 271.608,177.359 270.578 C 177.236 269.711,177.473 269.002,177.885 269.002 C 178.297 269.002,178.634 268.696,178.634 268.323 C 178.634 267.950,178.082 267.851,177.408 268.104 C 176.335 268.506,176.302 268.417,177.144 267.382 C 177.672 266.732,178.816 266.200,179.685 266.200 C 180.554 266.200,181.657 265.727,182.137 265.149 C 182.616 264.571,183.952 264.098,185.105 264.098 C 187.172 264.098,187.186 264.074,186.070 262.371 C 185.448 261.422,184.939 259.816,184.939 258.803 C 184.939 257.629,184.488 256.844,183.696 256.637 C 182.182 256.241,180.463 251.389,181.591 250.693 C 183.074 249.776,181.596 247.851,180.045 248.681 C 179.269 249.096,178.612 249.189,178.585 248.886 C 178.558 248.584,178.265 248.967,177.933 249.737 C 177.348 251.100,177.330 251.097,177.282 249.637 C 177.255 248.811,177.706 247.954,178.284 247.733 C 179.789 247.155,179.581 245.884,177.981 245.884 C 177.206 245.884,176.420 246.536,176.144 247.407 L 175.661 248.929 174.750 247.231 C 173.946 245.732,173.996 245.476,175.174 245.036 C 176.846 244.411,176.220 242.382,174.356 242.382 C 173.627 242.382,173.030 241.909,173.030 241.331 C 173.030 240.753,172.557 240.280,171.979 240.280 C 171.385 240.280,170.928 239.653,170.928 238.838 C 170.928 238.044,171.208 237.568,171.549 237.779 C 172.994 238.672,174.088 235.969,172.694 234.950 C 171.036 233.738,172.120 233.683,174.636 234.851 C 175.673 235.333,176.524 236.121,176.527 236.602 C 176.530 237.084,177.163 237.478,177.933 237.478 C 179.612 237.478,179.781 235.723,178.250 234.192 C 177.654 233.596,177.346 232.928,177.566 232.708 C 177.786 232.489,178.449 232.999,179.040 233.843 C 179.631 234.686,180.533 235.377,181.044 235.377 C 181.555 235.377,182.132 235.983,182.326 236.725 C 182.573 237.671,182.389 237.963,181.707 237.701 C 180.178 237.114,178.612 238.006,179.071 239.203 C 179.653 240.719,181.683 240.541,183.224 238.839 L 184.528 237.398 185.080 238.891 C 185.405 239.770,186.115 240.291,186.804 240.157 C 188.577 239.813,188.788 238.138,187.114 237.700 C 185.245 237.212,185.201 235.610,187.040 235.026 C 187.811 234.782,188.441 234.130,188.441 233.578 C 188.441 233.026,188.914 232.574,189.492 232.574 C 190.918 232.574,190.501 234.200,188.908 234.850 C 187.343 235.489,187.701 236.954,189.544 237.459 C 190.286 237.662,190.893 238.297,190.893 238.870 C 190.893 240.557,193.388 240.617,193.827 238.940 C 194.236 237.375,196.147 236.892,196.147 238.354 C 196.147 239.554,200.901 243.258,201.759 242.727 C 202.986 241.969,202.496 240.280,201.051 240.280 C 200.280 240.280,199.650 239.837,199.650 239.295 C 199.650 238.655,200.140 238.438,201.051 238.676 C 201.821 238.878,202.452 239.321,202.452 239.661 C 202.452 240.676,205.073 240.362,205.481 239.298 C 205.952 238.072,205.390 237.478,203.758 237.478 C 202.924 237.478,202.633 237.122,202.899 236.427 C 203.413 235.088,205.254 235.051,205.254 236.380 C 205.254 236.932,205.855 237.575,206.590 237.808 C 207.325 238.041,208.103 238.693,208.320 239.256 C 208.536 239.819,209.177 240.280,209.744 240.280 C 211.934 240.280,211.579 238.683,208.825 236.140 C 205.729 233.282,205.368 232.574,207.005 232.574 C 207.583 232.574,208.056 233.026,208.056 233.578 C 208.056 234.130,208.657 234.772,209.392 235.006 C 210.127 235.239,210.906 235.891,211.122 236.454 C 211.338 237.017,211.961 237.478,212.506 237.478 C 213.051 237.478,213.662 238.109,213.863 238.879 C 214.356 240.765,216.356 240.658,217.141 238.704 C 217.739 237.217,217.777 237.209,217.819 238.564 C 217.843 239.354,217.535 240.329,217.133 240.730 C 216.627 241.237,216.707 241.712,217.395 242.283 C 218.556 243.247,220.665 242.633,220.665 241.331 C 220.665 240.836,221.138 240.249,221.716 240.027 C 222.294 239.805,222.767 239.141,222.767 238.551 C 222.767 236.926,224.443 237.268,225.234 239.054 C 225.618 239.921,226.443 240.547,227.067 240.444 C 227.732 240.335,228.364 240.878,228.594 241.757 C 228.914 242.982,229.345 243.179,230.955 242.837 C 232.850 242.435,232.863 242.450,231.291 243.234 C 230.037 243.859,229.339 243.849,228.285 243.191 C 226.762 242.240,225.569 242.653,225.569 244.133 C 225.569 245.596,226.898 246.116,228.096 245.122 C 229.016 244.358,229.096 244.492,228.690 246.112 C 228.286 247.721,228.439 247.986,229.772 247.986 C 231.114 247.986,231.261 247.724,230.853 246.060 C 230.401 244.219,230.427 244.195,231.434 245.534 C 232.487 246.934,232.488 246.934,233.524 245.536 C 234.325 244.455,234.375 243.908,233.742 243.128 C 233.073 242.302,233.157 242.207,234.208 242.601 C 234.914 242.866,235.771 243.082,236.112 243.082 C 236.997 243.082,236.021 245.378,234.719 246.360 C 233.736 247.102,233.746 247.232,234.818 247.648 C 236.216 248.190,237.679 247.477,237.098 246.537 C 236.876 246.178,237.010 245.884,237.395 245.884 C 238.546 245.884,239.095 247.350,238.258 248.187 C 237.154 249.290,237.291 250.788,238.494 250.788 C 239.053 250.788,239.817 251.337,240.193 252.009 C 240.569 252.680,241.451 253.232,242.154 253.235 C 242.946 253.238,243.361 253.677,243.245 254.387 C 243.126 255.111,243.708 255.697,244.821 255.976 C 245.791 256.220,246.585 256.886,246.585 257.456 C 246.585 258.027,246.900 258.494,247.285 258.494 C 247.671 258.494,247.986 258.021,247.986 257.443 C 247.986 256.865,248.222 256.430,248.511 256.475 C 250.632 256.810,252.106 256.289,251.739 255.334 C 251.437 254.547,251.652 254.397,252.576 254.752 C 253.392 255.065,253.656 254.964,253.343 254.458 C 253.081 254.034,253.188 253.488,253.581 253.245 C 253.974 253.003,254.103 252.035,253.867 251.095 C 253.431 249.357,254.596 248.627,255.196 250.263 C 255.449 250.954,255.708 250.958,256.427 250.281 C 257.165 249.585,256.951 249.066,255.291 247.528 C 252.605 245.038,252.938 243.428,256.889 239.802 C 260.940 236.085,260.822 233.318,256.751 236.566 C 255.398 237.646,254.291 238.886,254.291 239.323 C 254.291 239.760,253.619 240.292,252.799 240.507 C 251.802 240.768,251.446 241.260,251.726 241.990 C 252.036 242.798,251.695 243.082,250.416 243.082 C 249.346 243.082,248.687 243.483,248.687 244.133 C 248.687 245.064,250.014 245.549,251.729 245.245 C 252.055 245.187,252.173 245.544,251.992 246.038 C 251.812 246.531,251.250 246.837,250.744 246.716 C 246.529 245.713,245.884 245.736,245.884 246.889 C 245.884 247.538,245.569 247.874,245.184 247.636 C 244.799 247.398,244.483 247.600,244.483 248.085 C 244.483 248.764,244.293 248.776,243.654 248.137 C 243.015 247.499,243.498 246.686,245.756 244.602 C 247.368 243.114,248.687 241.533,248.687 241.088 C 248.687 240.644,249.189 240.280,249.803 240.280 C 250.417 240.280,251.084 239.650,251.286 238.879 C 251.488 238.104,252.241 237.478,252.971 237.478 C 253.697 237.478,254.291 236.997,254.291 236.410 C 254.291 235.823,255.079 235.042,256.042 234.676 C 257.005 234.310,257.793 233.511,257.793 232.901 C 257.793 232.290,258.087 231.973,258.445 232.194 C 258.804 232.416,259.296 232.277,259.538 231.885 C 260.398 230.493,261.316 231.202,260.883 232.925 C 260.556 234.228,260.721 234.676,261.529 234.676 C 262.883 234.676,263.664 233.522,262.708 232.932 C 261.700 232.308,261.823 229.252,262.872 228.867 C 263.573 228.611,263.573 228.361,262.872 227.618 C 262.391 227.108,262.016 226.044,262.041 225.254 C 262.081 223.943,262.143 223.961,262.746 225.469 C 263.273 226.784,263.759 227.031,265.135 226.686 C 266.494 226.345,266.775 226.480,266.453 227.321 C 266.227 227.908,266.415 228.838,266.870 229.386 C 267.487 230.129,267.499 230.755,266.916 231.844 C 265.914 233.716,266.623 234.859,268.429 234.285 C 269.602 233.913,269.765 234.076,269.393 235.248 C 268.869 236.900,270.053 237.945,270.885 236.564 C 271.198 236.046,272.005 235.418,272.680 235.171 C 273.763 234.772,273.949 234.967,273.891 236.435 C 273.883 236.631,274.313 237.656,274.846 238.711 C 275.379 239.767,275.674 241.025,275.502 241.506 C 275.330 241.988,275.463 242.382,275.797 242.382 C 276.503 242.382,276.423 244.971,275.660 246.790 C 274.986 248.397,275.691 249.120,276.930 248.092 C 277.457 247.655,278.050 247.460,278.248 247.659 C 278.447 247.857,279.048 247.461,279.585 246.777 C 280.472 245.647,280.449 245.621,279.335 246.496 C 278.251 247.345,278.109 247.287,278.109 245.992 C 278.109 244.889,278.411 244.641,279.335 244.987 C 280.362 245.372,280.420 245.273,279.691 244.375 C 278.740 243.203,279.176 242.382,280.751 242.382 C 281.306 242.382,282.723 241.570,283.902 240.579 C 285.120 239.554,286.588 238.918,287.305 239.105 C 287.998 239.287,288.971 238.934,289.466 238.322 C 290.162 237.463,290.167 237.330,289.487 237.738 C 288.300 238.452,284.235 235.527,284.913 234.447 C 285.197 233.995,285.345 232.995,285.243 232.224 C 285.078 230.982,285.213 231.021,286.443 232.570 C 287.694 234.147,287.876 234.195,288.308 233.069 C 288.571 232.383,289.671 231.364,290.753 230.805 C 291.835 230.245,292.911 229.188,293.143 228.455 C 293.376 227.721,294.200 226.956,294.973 226.754 C 296.107 226.457,296.297 226.646,295.954 227.729 C 295.446 229.328,296.686 229.558,297.293 227.977 C 297.545 227.321,298.067 227.094,298.594 227.411 C 299.174 227.759,299.138 227.526,298.489 226.725 C 297.742 225.804,297.699 225.313,298.313 224.699 C 298.759 224.253,299.124 223.149,299.124 222.245 C 299.124 221.341,299.915 219.811,300.882 218.845 C 302.698 217.028,304.211 217.142,303.871 219.069 C 303.765 219.675,304.122 220.324,304.665 220.513 C 305.341 220.748,305.516 220.502,305.221 219.733 C 304.874 218.829,305.253 218.626,307.158 218.698 C 308.823 218.761,309.627 219.170,309.864 220.077 C 310.292 221.712,312.833 221.761,313.453 220.146 C 313.758 219.352,313.422 218.523,312.491 217.769 C 311.247 216.761,311.196 216.499,312.098 215.750 C 312.668 215.277,313.135 214.264,313.135 213.500 C 313.135 212.531,313.465 212.236,314.222 212.526 C 314.820 212.756,315.138 212.667,314.929 212.328 C 314.719 211.989,315.617 211.512,316.923 211.267 C 322.672 210.188,322.610 203.837,316.840 202.722 C 313.630 202.102,311.479 206.143,313.432 209.124 C 315.162 211.765,314.242 212.114,311.840 209.728 C 308.470 206.383,306.008 204.759,307.180 206.655 C 307.419 207.040,307.164 207.356,306.616 207.356 C 306.067 207.356,304.823 207.981,303.851 208.745 C 302.089 210.132,302.083 210.132,301.721 208.745 C 301.478 207.819,301.705 207.356,302.401 207.356 C 302.975 207.356,303.312 206.961,303.150 206.480 C 302.989 205.998,302.288 205.603,301.594 205.601 C 300.737 205.598,300.265 204.984,300.127 203.691 C 299.960 202.126,300.183 201.814,301.373 201.943 C 302.171 202.030,302.963 201.708,303.134 201.226 C 303.320 200.700,302.841 200.350,301.936 200.350 C 299.390 200.350,300.339 197.258,302.977 196.961 C 304.133 196.830,305.473 196.398,305.954 195.999 C 306.571 195.489,306.830 195.525,306.830 196.120 C 306.830 197.187,308.551 196.667,308.669 195.563 C 308.717 195.114,308.796 194.460,308.844 194.111 C 308.892 193.762,309.562 193.641,310.333 193.843 C 311.147 194.056,311.734 193.864,311.734 193.385 C 311.734 192.932,312.064 192.766,312.468 193.015 C 312.872 193.265,313.151 193.993,313.088 194.633 C 312.913 196.411,313.097 197.089,314.119 198.436 C 315.061 199.677,317.712 199.421,316.935 198.164 C 316.718 197.813,316.247 197.707,315.889 197.928 C 314.724 198.648,315.201 194.882,316.430 193.653 C 317.554 192.529,317.538 192.487,316.162 192.923 C 314.199 193.546,313.394 191.529,315.216 190.554 C 316.999 189.600,317.338 189.654,317.338 190.893 C 317.338 191.477,317.961 191.944,318.739 191.944 C 319.510 191.944,320.140 191.513,320.140 190.987 C 320.140 190.254,320.789 190.149,322.914 190.538 C 325.470 191.005,325.633 190.943,324.991 189.743 C 324.607 189.027,323.990 188.441,323.618 188.441 C 323.246 188.441,322.944 187.732,322.947 186.865 C 322.951 185.529,323.532 185.902,326.769 189.317 C 328.869 191.532,330.863 193.345,331.201 193.345 C 331.539 193.345,331.831 193.739,331.849 194.221 C 331.867 194.702,332.103 195.727,332.373 196.497 C 332.832 197.807,332.798 197.818,331.854 196.673 C 331.298 195.998,330.604 195.447,330.310 195.447 C 330.016 195.447,330.127 195.870,330.556 196.387 C 330.985 196.904,331.139 197.524,330.897 197.766 C 330.656 198.007,331.125 198.076,331.940 197.920 C 332.754 197.763,333.610 197.941,333.842 198.317 C 334.074 198.692,335.470 198.928,336.943 198.841 C 339.920 198.666,342.712 194.870,341.203 193.051 C 340.235 191.886,341.099 186.703,342.095 187.699 C 343.021 188.625,343.958 188.659,343.958 187.765 C 343.958 185.855,341.126 185.599,339.492 187.362 C 338.585 188.341,337.249 189.131,336.522 189.117 C 335.405 189.095,335.501 188.846,337.151 187.496 C 338.381 186.489,339.254 184.952,339.517 183.332 C 339.970 180.538,341.156 180.463,341.156 183.229 C 341.156 184.586,341.517 184.939,342.907 184.939 C 343.870 184.939,344.887 184.962,345.166 184.991 C 345.446 185.020,345.737 184.697,345.814 184.273 C 345.901 183.794,345.819 183.776,345.597 184.225 C 344.904 185.624,343.958 184.127,343.958 181.632 C 343.958 179.614,343.432 178.622,341.331 176.683 C 339.886 175.350,339.272 174.451,339.966 174.687 C 340.712 174.940,341.053 174.832,340.801 174.423 C 340.565 174.042,339.907 173.730,339.339 173.730 C 337.052 173.730,334.802 171.578,335.920 170.459 C 337.458 168.921,337.188 168.072,335.377 168.755 C 334.482 169.091,333.048 169.068,332.062 168.700 C 330.887 168.261,330.240 168.300,330.067 168.818 C 329.883 169.371,329.548 169.367,328.870 168.805 C 327.879 167.982,328.226 166.025,329.363 166.025 C 329.730 166.025,329.835 166.340,329.597 166.725 C 329.359 167.110,329.694 167.426,330.342 167.426 C 331.341 167.426,331.379 167.256,330.592 166.307 C 329.738 165.278,330.987 163.704,332.750 163.586 C 333.427 163.541,336.556 161.121,335.938 161.121 C 335.593 161.121,334.656 161.670,333.856 162.342 C 332.600 163.394,332.617 163.316,333.975 161.771 C 334.842 160.786,335.552 159.143,335.552 158.120 C 335.552 156.872,335.854 156.377,336.473 156.615 C 336.980 156.809,338.043 156.720,338.836 156.418 C 340.538 155.768,339.870 152.715,338.026 152.715 C 337.436 152.715,336.953 152.363,336.953 151.932 C 336.953 151.500,337.568 151.311,338.328 151.510 C 339.113 151.715,340.091 151.391,340.605 150.756 C 341.291 149.909,341.297 149.769,340.630 150.170 C 340.108 150.484,339.755 150.325,339.755 149.776 C 339.755 149.271,338.796 147.952,337.624 146.846 C 336.452 145.739,335.667 144.660,335.880 144.447 C 336.093 144.234,337.203 144.957,338.348 146.054 C 340.135 147.767,340.664 147.941,342.096 147.288 C 344.217 146.322,344.945 143.838,343.367 142.954 C 342.489 142.461,343.098 142.185,345.872 141.816 C 350.138 141.249,352.528 139.405,348.997 139.405 C 347.822 139.405,346.444 139.799,345.934 140.280 C 345.104 141.065,341.156 141.796,341.156 141.164 C 341.156 141.023,342.890 140.115,345.009 139.144 C 349.284 137.187,349.307 137.140,347.780 133.484 C 347.185 132.060,346.887 130.300,347.118 129.572 C 347.349 128.844,347.212 127.640,346.814 126.895 C 346.269 125.878,346.347 125.327,347.125 124.681 C 348.761 123.324,348.339 122.591,346.170 123.025 C 344.423 123.375,344.038 123.125,343.018 120.975 C 341.647 118.087,341.566 117.426,342.665 118.105 C 343.141 118.399,343.285 118.299,343.015 117.862 C 342.762 117.454,341.847 117.283,340.980 117.484 L 339.405 117.848 340.981 116.678 C 342.915 115.241,342.990 113.868,341.201 112.615 C 339.859 111.675,339.859 111.655,341.201 110.818 C 342.963 109.717,342.939 107.850,341.156 107.383 C 340.385 107.182,339.755 106.739,339.755 106.398 C 339.755 105.398,341.283 105.686,342.852 106.982 C 344.242 108.130,344.257 108.128,343.188 106.937 C 341.933 105.540,342.210 101.989,343.513 102.770 C 343.950 103.032,343.891 102.732,343.381 102.103 C 342.872 101.474,341.973 101.144,341.384 101.370 C 340.796 101.596,340.035 101.340,339.695 100.803 C 338.800 99.389,338.916 98.608,339.930 99.217 C 340.525 99.575,340.497 99.364,339.844 98.558 C 338.803 97.275,337.999 96.933,338.704 98.074 C 338.942 98.459,338.612 98.774,337.970 98.774 C 337.255 98.774,336.949 98.392,337.181 97.789 C 337.389 97.247,336.895 96.223,336.085 95.512 C 335.274 94.802,334.841 94.615,335.122 95.096 C 335.967 96.540,334.610 96.063,332.980 94.342 C 331.523 92.804,331.513 92.704,332.747 91.933 C 334.309 90.958,333.875 88.495,332.038 87.912 C 331.345 87.692,330.601 87.051,330.384 86.488 C 330.168 85.925,329.509 85.464,328.919 85.464 C 328.329 85.464,327.846 85.007,327.846 84.448 C 327.846 83.889,327.294 83.101,326.620 82.697 C 325.452 81.996,325.452 81.926,326.620 81.226 C 328.238 80.256,328.177 78.685,326.486 77.781 C 325.390 77.194,324.917 77.352,324.042 78.601 C 322.972 80.129,320.286 78.522,321.264 76.939 C 321.429 76.672,321.195 76.226,320.744 75.947 C 320.232 75.631,320.111 75.744,320.423 76.249 C 320.698 76.694,320.623 77.058,320.256 77.058 C 319.594 77.058,318.437 75.022,318.604 74.152 C 318.798 73.141,315.823 74.532,314.865 75.900 C 314.299 76.708,313.835 76.995,313.835 76.538 C 313.835 75.205,311.104 74.025,310.048 74.902 C 309.556 75.310,308.929 75.421,308.655 75.147 C 308.381 74.873,308.382 75.270,308.657 76.028 C 309.087 77.218,308.892 77.167,307.239 75.659 L 305.321 73.910 307.014 73.207 C 307.945 72.821,308.573 72.110,308.411 71.629 C 308.248 71.147,308.614 70.714,309.224 70.665 C 309.834 70.617,310.722 70.539,311.199 70.490 C 312.300 70.379,312.782 68.019,311.886 67.123 C 311.448 66.684,311.319 67.145,311.523 68.423 L 311.839 70.403 310.893 68.658 C 309.494 66.076,307.947 66.170,305.017 69.016 C 302.801 71.168,302.298 71.392,301.775 70.458 C 301.435 69.850,300.768 69.352,300.294 69.352 C 298.980 69.352,297.698 65.458,298.682 64.456 C 299.274 63.852,299.231 63.705,298.511 63.873 C 297.982 63.997,297.389 63.660,297.195 63.125 C 296.949 62.448,297.136 62.329,297.808 62.734 C 298.628 63.228,298.628 63.137,297.813 62.131 C 297.284 61.479,296.496 60.951,296.061 60.956 C 295.627 60.962,295.744 61.302,296.322 61.710 C 297.256 62.371,297.256 62.420,296.322 62.150 C 295.744 61.982,295.315 61.328,295.369 60.695 C 295.422 60.062,295.054 59.545,294.551 59.545 C 294.048 59.545,293.527 59.214,293.392 58.810 C 293.258 58.407,291.405 57.896,289.276 57.677 C 283.727 57.104,278.506 63.164,281.751 66.410 C 282.214 66.872,282.311 67.250,281.968 67.250 C 281.624 67.250,281.955 67.740,282.703 68.337 C 284.031 69.399,284.027 69.415,282.543 69.009 C 281.404 68.697,280.906 68.963,280.554 70.072 C 280.106 71.484,280.042 71.493,279.119 70.276 C 277.758 68.480,277.879 67.603,279.335 68.720 C 280.009 69.237,279.796 68.803,278.862 67.755 C 277.096 65.773,275.879 65.058,277.408 66.900 C 278.037 67.658,278.055 67.951,277.471 67.951 C 276.633 67.951,275.382 65.328,275.634 64.098 C 275.713 63.713,275.659 63.593,275.514 63.831 C 274.754 65.083,270.181 62.437,269.989 60.634 C 269.840 59.239,270.006 58.924,270.620 59.434 C 271.223 59.934,271.482 59.652,271.556 58.419 C 271.674 56.434,273.082 54.482,273.990 55.043 C 275.099 55.729,275.393 53.544,274.667 50.019 L 273.960 46.585 274.229 50.788 L 274.498 54.991 273.618 50.788 C 272.676 46.286,273.534 43.766,275.723 44.606 C 276.264 44.813,276.708 44.616,276.708 44.167 C 276.708 43.717,276.392 43.545,276.007 43.783 C 275.622 44.021,275.306 43.585,275.306 42.815 C 275.306 42.044,274.991 41.219,274.606 40.981 C 274.221 40.743,273.905 40.213,273.905 39.803 C 273.905 39.359,274.401 39.447,275.131 40.019 C 276.220 40.873,276.258 40.854,275.475 39.850 C 274.776 38.954,273.977 38.832,271.632 39.261 C 268.983 39.745,268.813 39.699,270.021 38.815 C 270.764 38.272,271.034 37.828,270.622 37.828 C 270.211 37.828,269.553 38.222,269.162 38.704 M169.599 42.529 C 168.290 43.411,167.510 44.133,167.867 44.133 C 168.223 44.133,169.137 43.703,169.897 43.176 C 170.657 42.650,172.431 42.256,173.839 42.301 C 176.765 42.393,176.817 41.635,173.914 41.209 C 172.681 41.028,171.115 41.507,169.599 42.529 M262.239 42.856 C 262.610 44.020,261.162 45.867,260.442 45.148 C 260.236 44.942,259.879 45.267,259.647 45.870 C 259.311 46.747,259.481 46.831,260.494 46.289 C 262.648 45.136,263.400 43.852,262.591 42.709 C 261.984 41.850,261.926 41.874,262.239 42.856 M220.915 43.595 C 217.648 48.881,221.690 56.169,226.270 53.249 C 226.996 52.786,226.536 52.705,224.783 52.987 C 223.250 53.233,222.054 53.086,221.764 52.617 C 221.349 51.946,224.923 51.386,227.181 51.768 C 227.490 51.820,227.649 50.311,227.533 48.414 C 227.418 46.517,227.073 45.120,226.766 45.310 C 226.459 45.500,225.753 45.277,225.197 44.816 C 224.613 44.331,223.369 44.162,222.251 44.416 C 220.413 44.833,220.384 44.801,221.675 43.794 C 222.423 43.210,222.678 42.732,222.242 42.732 C 221.806 42.732,221.209 43.121,220.915 43.595 M147.479 46.965 C 147.773 47.441,147.242 47.527,145.943 47.215 C 144.851 46.953,144.171 46.969,144.431 47.252 C 145.244 48.133,151.318 48.408,152.572 47.619 C 153.602 46.971,153.562 46.923,152.282 47.270 C 151.466 47.491,149.950 47.349,148.914 46.955 C 147.617 46.462,147.170 46.465,147.479 46.965 M228.528 48.862 C 228.539 50.767,228.683 51.107,229.050 50.099 C 229.492 48.882,229.260 46.235,228.710 46.235 C 228.601 46.235,228.519 47.417,228.528 48.862 M184.503 48.132 C 184.841 48.635,185.360 50.068,185.657 51.318 C 186.151 53.401,186.202 53.436,186.268 51.741 C 186.307 50.724,185.788 49.291,185.114 48.556 C 184.440 47.821,184.165 47.630,184.503 48.132 M257.059 50.945 C 256.866 52.572,256.976 53.637,257.302 53.311 C 257.628 52.984,257.786 51.653,257.652 50.352 C 257.414 48.044,257.400 48.059,257.059 50.945 M126.404 50.766 C 125.656 51.331,125.329 51.804,125.678 51.817 C 126.026 51.829,125.836 52.391,125.254 53.065 C 124.673 53.739,123.766 55.299,123.239 56.532 C 122.608 58.009,122.099 58.487,121.747 57.933 C 121.388 57.369,121.209 57.512,121.202 58.366 C 121.194 59.322,121.540 59.528,122.592 59.194 C 123.601 58.874,123.993 59.069,123.993 59.889 C 123.993 60.516,123.678 60.834,123.292 60.595 C 122.907 60.357,122.592 60.473,122.592 60.853 C 122.592 61.856,127.625 65.850,128.881 65.845 C 129.468 65.843,129.002 65.352,127.846 64.754 C 126.690 64.157,125.271 63.165,124.694 62.549 C 124.044 61.858,124.629 62.018,126.224 62.968 C 128.723 64.457,128.888 64.468,131.478 63.318 C 132.948 62.665,134.319 62.157,134.526 62.189 C 135.464 62.334,135.086 55.816,134.065 54.259 C 132.894 52.471,128.896 50.975,126.918 51.584 C 125.969 51.876,125.988 51.789,127.021 51.128 C 127.723 50.679,129.142 50.507,130.173 50.746 C 131.574 51.071,131.783 51.001,130.998 50.470 C 129.520 49.470,127.987 49.568,126.404 50.766 M152.775 53.461 C 152.693 55.183,153.970 57.446,155.016 57.432 C 155.641 57.424,155.626 57.269,154.962 56.847 C 154.464 56.531,153.781 55.354,153.446 54.231 C 153.088 53.036,152.810 52.716,152.775 53.461 M284.154 56.596 C 283.965 56.901,284.971 57.040,286.389 56.906 C 290.721 56.496,291.232 56.209,287.782 56.123 C 285.975 56.079,284.342 56.291,284.154 56.596 M280.552 61.222 C 279.482 63.208,279.398 64.001,280.049 65.954 L 280.831 68.301 280.442 65.671 C 280.172 63.847,280.416 62.487,281.238 61.232 C 281.890 60.237,282.292 59.291,282.130 59.129 C 281.968 58.968,281.258 59.909,280.552 61.222 M173.984 62.854 C 173.744 63.772,173.213 64.206,172.610 63.975 C 172.071 63.767,171.629 63.947,171.629 64.373 C 171.629 64.800,171.944 65.149,172.329 65.149 C 172.715 65.149,173.030 65.963,173.030 66.959 C 173.030 68.844,171.564 69.047,171.200 67.212 C 171.089 66.655,170.796 65.521,170.549 64.692 C 170.197 63.508,170.527 62.971,172.090 62.190 C 174.491 60.990,174.473 60.984,173.984 62.854 M131.699 64.098 C 130.736 64.649,130.263 65.099,130.648 65.099 C 131.033 65.099,132.137 64.649,133.100 64.098 C 134.063 63.547,134.536 63.097,134.151 63.097 C 133.765 63.097,132.662 63.547,131.699 64.098 M218.564 65.181 C 217.797 65.700,218.080 65.765,219.615 65.422 C 222.190 64.846,222.750 64.445,220.957 64.459 C 220.219 64.465,219.142 64.790,218.564 65.181 M213.310 67.017 C 212.211 67.898,212.168 68.050,213.112 67.726 C 214.780 67.152,215.234 68.208,214.249 70.369 C 213.613 71.764,213.611 72.385,214.240 73.014 C 215.556 74.330,215.187 75.047,213.678 74.104 C 212.586 73.422,212.113 73.421,211.436 74.098 C 210.042 75.492,211.627 76.441,214.143 75.719 C 215.341 75.376,216.589 75.348,216.917 75.658 C 217.245 75.968,218.144 76.393,218.914 76.603 C 219.685 76.813,218.975 76.816,217.338 76.609 C 214.970 76.311,214.361 76.453,214.361 77.305 C 214.361 78.648,215.518 79.421,216.105 78.470 C 216.693 77.519,219.489 77.563,220.464 78.538 C 220.893 78.967,221.587 79.106,222.006 78.847 C 223.175 78.124,222.909 76.357,221.631 76.357 C 220.679 76.357,220.642 76.179,221.403 75.262 C 222.227 74.269,222.369 74.269,222.924 75.262 C 223.261 75.864,223.958 76.357,224.471 76.357 C 224.985 76.357,225.579 77.021,225.791 77.832 C 226.218 79.462,227.901 79.313,228.230 77.616 C 228.348 77.009,227.812 76.375,227.004 76.163 C 226.215 75.957,225.569 75.286,225.569 74.672 C 225.569 74.058,225.096 73.555,224.518 73.555 C 223.935 73.555,223.468 72.932,223.468 72.154 C 223.468 71.347,223.935 70.753,224.570 70.753 C 225.250 70.753,225.574 70.283,225.417 69.527 C 225.252 68.737,224.611 68.361,223.614 68.468 C 222.457 68.593,222.067 68.265,222.067 67.166 C 222.067 65.683,221.051 65.639,217.578 66.972 C 216.964 67.208,216.462 67.051,216.462 66.625 C 216.462 65.517,214.946 65.706,213.310 67.017 M225.219 66.349 C 222.755 66.942,222.775 67.597,225.260 67.726 C 226.941 67.813,227.671 67.548,227.671 66.850 C 227.671 65.813,227.550 65.788,225.219 66.349 M211.693 69.405 C 211.831 69.819,212.243 70.158,212.609 70.158 C 212.975 70.158,213.388 69.819,213.526 69.405 C 213.664 68.990,213.252 68.651,212.609 68.651 C 211.967 68.651,211.555 68.990,211.693 69.405 M228.371 69.702 C 228.371 70.822,229.952 70.995,232.187 70.121 C 233.450 69.627,233.424 69.554,231.836 69.129 C 229.195 68.422,228.371 68.559,228.371 69.702 M208.369 71.515 C 207.647 72.683,209.270 74.022,210.237 73.056 C 211.045 72.247,210.539 70.753,209.457 70.753 C 209.117 70.753,208.627 71.096,208.369 71.515 M225.882 71.515 C 225.270 72.504,226.621 73.854,227.610 73.243 C 228.721 72.556,228.541 70.753,227.362 70.753 C 226.807 70.753,226.141 71.096,225.882 71.515 M231.486 71.515 C 230.875 72.504,232.225 73.854,233.214 73.243 C 234.325 72.556,234.145 70.753,232.966 70.753 C 232.411 70.753,231.745 71.096,231.486 71.515 M176.063 75.821 C 176.449 77.352,176.427 77.360,175.447 76.048 C 174.322 74.542,174.088 73.261,175.047 73.853 C 175.386 74.063,175.843 74.948,176.063 75.821 M228.505 74.781 C 228.634 75.455,229.205 76.007,229.772 76.007 C 230.340 76.007,230.910 75.455,231.040 74.781 C 231.206 73.921,230.827 73.555,229.772 73.555 C 228.717 73.555,228.339 73.921,228.505 74.781 M240.177 75.877 C 240.697 76.576,240.891 77.364,240.606 77.628 C 240.321 77.893,239.948 77.715,239.776 77.233 C 239.604 76.751,238.859 76.357,238.120 76.357 C 236.793 76.357,236.367 75.601,237.215 74.752 C 237.924 74.043,239.160 74.513,240.177 75.877 M216.929 79.458 C 216.421 80.783,217.995 82.046,219.215 81.292 C 220.375 80.575,219.699 78.459,218.311 78.459 C 217.762 78.459,217.140 78.909,216.929 79.458 M222.844 79.417 C 222.239 80.146,222.309 80.590,223.138 81.278 C 224.477 82.390,225.971 81.218,225.334 79.557 C 224.815 78.205,223.893 78.153,222.844 79.417 M228.607 79.557 C 227.969 81.218,229.463 82.390,230.802 81.278 C 231.632 80.590,231.702 80.146,231.096 79.417 C 230.047 78.153,229.125 78.205,228.607 79.557 M119.659 81.108 C 120.694 82.179,121.674 82.966,121.836 82.856 C 122.240 82.582,118.976 79.159,118.311 79.159 C 118.018 79.159,118.624 80.036,119.659 81.108 M219.386 82.165 C 218.827 82.839,219.005 83.301,220.083 83.974 C 221.771 85.029,223.196 84.089,222.532 82.359 C 222.021 81.028,220.412 80.929,219.386 82.165 M230.940 82.261 C 230.291 83.952,232.436 85.203,233.743 83.895 C 234.347 83.291,234.628 82.451,234.367 82.029 C 233.686 80.927,231.392 81.082,230.940 82.261 M353.765 82.312 C 353.765 82.890,354.081 83.363,354.466 83.363 C 354.851 83.363,355.166 82.890,355.166 82.312 C 355.166 81.734,354.851 81.261,354.466 81.261 C 354.081 81.261,353.765 81.734,353.765 82.312 M380.533 87.460 C 379.952 87.828,380.399 88.033,381.786 88.033 C 383.173 88.033,383.621 87.828,383.040 87.460 C 382.543 87.144,381.979 86.887,381.786 86.887 C 381.594 86.887,381.030 87.144,380.533 87.460 M379.245 90.826 C 378.359 94.356,381.498 97.084,383.920 94.892 C 384.754 94.137,385.639 93.611,385.888 93.723 C 386.677 94.077,386.811 91.159,386.066 89.863 C 385.518 88.909,385.426 89.274,385.676 91.419 C 385.855 92.960,385.819 93.748,385.594 93.170 C 384.246 89.696,383.567 88.967,381.681 88.967 C 380.134 88.967,379.611 89.365,379.245 90.826 M22.592 90.851 C 23.266 91.027,24.370 91.027,25.044 90.851 C 25.718 90.674,25.166 90.530,23.818 90.530 C 22.469 90.530,21.918 90.674,22.592 90.851 M19.965 91.769 C 19.727 92.154,19.721 92.469,19.951 92.469 C 20.181 92.469,19.727 93.159,18.941 94.002 C 18.156 94.846,17.508 95.870,17.502 96.279 C 17.497 96.688,17.157 96.550,16.749 95.972 C 16.088 95.038,16.037 95.038,16.292 95.972 C 16.450 96.550,16.868 97.028,17.221 97.033 C 17.574 97.039,18.181 97.247,18.569 97.495 C 18.957 97.743,20.465 98.170,21.918 98.442 C 24.190 98.868,24.400 99.056,23.413 99.778 C 20.475 101.927,23.364 104.170,29.247 104.308 C 31.914 104.371,34.245 101.061,31.699 100.827 C 27.556 100.447,24.813 99.475,27.882 99.475 C 28.959 99.475,29.259 99.164,28.952 98.365 C 28.663 97.611,28.370 97.509,28.037 98.048 C 27.274 99.281,25.802 97.094,26.380 95.587 C 26.838 94.393,26.894 94.397,27.400 95.673 C 27.767 96.597,27.869 96.249,27.723 94.571 L 27.509 92.119 23.948 92.170 C 21.989 92.198,20.546 91.962,20.742 91.645 C 20.938 91.328,20.941 91.068,20.748 91.068 C 20.556 91.068,20.203 91.384,19.965 91.769 M98.279 92.986 C 98.334 94.349,98.625 95.000,99.008 94.617 C 99.358 94.267,100.065 94.141,100.578 94.338 C 101.091 94.535,102.158 94.243,102.948 93.689 C 104.337 92.716,104.315 92.681,102.292 92.623 C 101.141 92.591,99.971 92.933,99.692 93.385 C 99.368 93.909,99.004 93.574,98.686 92.462 C 98.246 90.918,98.199 90.978,98.279 92.986 M97.097 96.964 C 97.331 97.574,97.831 98.074,98.207 98.074 C 99.128 98.074,98.551 96.481,97.504 96.132 C 96.992 95.962,96.835 96.282,97.097 96.964 M356.256 96.594 C 356.434 96.773,355.904 97.639,355.076 98.520 C 351.011 102.847,359.256 109.787,364.959 106.838 C 370.362 104.044,366.280 95.837,359.625 96.116 C 357.594 96.201,356.078 96.416,356.256 96.594 M387.566 100.639 C 387.084 100.833,386.690 101.705,386.690 102.577 C 386.690 106.344,393.226 108.131,393.457 104.428 C 393.679 100.851,391.120 99.205,387.566 100.639 M353.695 103.327 C 354.876 105.612,355.846 106.879,355.841 106.130 C 355.838 105.744,355.191 104.641,354.403 103.678 C 353.452 102.515,353.214 102.397,353.695 103.327 M96.421 105.564 C 96.154 105.831,95.235 106.147,94.378 106.266 C 93.141 106.439,93.037 106.341,93.870 105.792 C 95.060 105.009,97.164 104.821,96.421 105.564 M386.974 106.305 C 387.882 107.377,389.001 107.847,390.476 107.776 L 392.644 107.671 390.543 107.367 C 389.387 107.200,387.811 106.538,387.040 105.896 C 385.650 104.738,385.650 104.741,386.974 106.305 M62.347 108.581 C 60.904 109.043,60.842 109.153,61.996 109.201 C 62.767 109.234,63.870 108.955,64.448 108.581 C 65.676 107.788,64.824 107.788,62.347 108.581 M358.911 108.746 C 359.356 109.029,360.508 109.261,361.471 109.261 C 362.434 109.261,363.586 109.029,364.031 108.746 C 364.476 108.463,363.324 108.231,361.471 108.231 C 359.618 108.231,358.466 108.463,358.911 108.746 M363.679 113.405 C 362.297 114.280,362.996 116.603,364.717 116.850 C 366.473 117.101,367.468 115.153,366.301 113.747 C 365.378 112.634,364.977 112.582,363.679 113.405 M367.557 117.440 C 366.565 118.432,367.126 119.790,368.528 119.790 C 369.507 119.790,369.906 119.409,369.754 118.622 C 369.504 117.333,368.308 116.689,367.557 117.440 M360.070 118.739 C 360.070 119.317,360.543 119.790,361.121 119.790 C 361.699 119.790,362.172 119.317,362.172 118.739 C 362.172 118.161,361.699 117.688,361.121 117.688 C 360.543 117.688,360.070 118.161,360.070 118.739 M86.610 130.684 C 88.515 132.739,88.721 133.800,87.215 133.800 C 86.637 133.800,86.165 133.339,86.165 132.774 C 86.165 131.503,84.075 130.360,82.662 130.857 C 81.761 131.174,81.748 131.060,82.573 130.061 C 83.885 128.472,84.672 128.593,86.610 130.684 M67.974 133.610 C 67.056 134.644,67.081 134.716,68.206 134.284 C 68.899 134.018,69.598 133.800,69.760 133.800 C 69.921 133.800,70.053 133.485,70.053 133.100 C 70.053 132.069,69.144 132.292,67.974 133.610 M65.384 135.742 C 64.778 136.127,64.823 136.610,65.559 137.616 C 66.504 138.908,66.550 138.884,66.550 137.087 C 66.550 135.007,66.546 135.002,65.384 135.742 M78.809 135.902 C 78.223 136.851,79.014 138.004,80.252 138.004 C 80.807 138.004,81.261 137.373,81.261 136.602 C 81.261 135.152,79.571 134.669,78.809 135.902 M67.624 137.959 C 66.429 140.270,66.895 142.493,68.449 141.897 C 69.009 141.682,69.704 141.506,69.993 141.506 C 70.283 141.506,70.533 141.112,70.548 140.630 C 70.564 140.149,70.800 138.809,71.072 137.653 C 71.445 136.070,71.383 135.811,70.820 136.602 C 70.314 137.315,70.071 137.372,70.063 136.778 C 70.044 135.209,68.712 135.854,67.624 137.959 M72.288 136.655 C 72.426 137.069,72.839 137.408,73.205 137.408 C 73.571 137.408,73.983 137.069,74.121 136.655 C 74.259 136.241,73.847 135.902,73.205 135.902 C 72.563 135.902,72.150 136.241,72.288 136.655 M79.159 139.448 C 79.159 139.809,79.553 140.127,80.035 140.154 C 80.517 140.181,80.280 140.474,79.510 140.806 C 78.145 141.392,78.147 141.409,79.603 141.457 C 81.519 141.520,82.347 139.031,80.458 138.889 C 79.744 138.835,79.159 139.087,79.159 139.448 M59.035 140.830 C 58.978 141.587,59.306 142.218,59.763 142.232 C 60.221 142.246,59.256 142.886,57.618 143.654 C 55.173 144.800,53.623 146.410,54.965 146.410 C 55.575 146.410,62.695 143.599,64.025 142.833 C 65.118 142.203,65.278 142.262,64.931 143.166 C 64.473 144.357,65.460 145.332,66.484 144.699 C 67.509 144.066,65.628 140.817,64.232 140.811 C 63.535 140.808,63.159 140.490,63.398 140.105 C 63.636 139.720,63.305 139.405,62.663 139.405 C 61.914 139.405,61.641 139.780,61.900 140.455 C 62.411 141.789,61.730 141.799,60.272 140.480 C 59.265 139.568,59.127 139.607,59.035 140.830 M75.932 140.513 C 76.166 141.122,76.357 141.910,76.357 142.264 C 76.357 142.618,76.633 142.907,76.970 142.907 C 77.307 142.907,77.583 142.119,77.583 141.156 C 77.583 140.076,77.185 139.405,76.545 139.405 C 75.886 139.405,75.662 139.809,75.932 140.513 M67.426 145.400 C 66.419 146.493,66.252 148.511,67.169 148.511 C 67.673 148.511,68.805 144.914,68.414 144.554 C 68.352 144.497,67.907 144.877,67.426 145.400 M75.327 146.139 C 73.919 147.547,73.975 148.312,75.549 149.154 C 77.046 149.956,78.459 148.932,78.459 147.045 C 78.459 145.390,76.611 144.855,75.327 146.139 M69.050 146.946 C 68.353 147.643,68.618 148.349,69.739 148.779 C 70.362 149.018,70.643 148.900,70.398 148.503 C 70.162 148.122,70.514 147.811,71.179 147.811 C 71.844 147.811,72.168 147.592,71.900 147.324 C 71.251 146.674,69.547 146.449,69.050 146.946 M360.771 147.461 C 360.771 148.039,361.086 148.511,361.471 148.511 C 361.856 148.511,362.172 148.039,362.172 147.461 C 362.172 146.883,361.856 146.410,361.471 146.410 C 361.086 146.410,360.771 146.883,360.771 147.461 M78.714 150.258 C 78.471 150.890,78.609 151.744,79.019 152.154 C 80.087 153.221,82.109 152.246,81.830 150.798 C 81.520 149.186,79.275 148.797,78.714 150.258 M356.122 150.258 C 355.879 150.890,356.017 151.744,356.427 152.154 C 357.495 153.221,359.517 152.246,359.238 150.798 C 358.928 149.186,356.683 148.797,356.122 150.258 M364.059 150.360 C 363.499 150.920,364.132 152.014,365.015 152.014 C 365.378 152.014,365.674 151.541,365.674 150.963 C 365.674 149.880,364.848 149.571,364.059 150.360 M359.656 153.680 C 359.089 155.158,359.884 156.217,361.561 156.217 C 362.619 156.217,362.914 155.827,362.746 154.648 C 362.484 152.817,360.255 152.118,359.656 153.680 M75.657 154.466 C 75.657 155.044,76.130 155.517,76.708 155.517 C 77.285 155.517,77.758 155.044,77.758 154.466 C 77.758 153.888,77.285 153.415,76.708 153.415 C 76.130 153.415,75.657 153.888,75.657 154.466 M79.159 154.425 C 79.159 155.907,80.345 156.387,80.837 155.105 C 81.436 153.544,81.389 153.415,80.210 153.415 C 79.632 153.415,79.159 153.869,79.159 154.425 M52.539 160.411 C 51.824 160.867,52.383 160.944,54.291 160.652 C 57.754 160.121,58.343 159.716,55.633 159.731 C 54.510 159.736,53.117 160.043,52.539 160.411 M352.900 165.309 C 354.544 165.664,356.278 166.175,356.753 166.443 C 357.403 166.809,357.421 166.717,356.827 166.072 C 356.392 165.600,354.659 165.089,352.974 164.938 L 349.912 164.662 352.900 165.309 M349.640 167.693 C 348.239 169.184,348.029 169.976,348.329 172.637 C 348.581 174.871,348.454 175.671,347.899 175.348 C 347.465 175.097,347.711 175.575,348.445 176.412 C 349.827 177.987,350.670 178.459,349.912 177.233 C 349.674 176.848,349.982 176.532,350.596 176.532 C 351.841 176.532,350.844 179.253,349.538 179.422 C 349.166 179.470,348.494 179.549,348.044 179.597 C 347.595 179.645,347.098 180.158,346.940 180.736 C 346.685 181.670,346.736 181.670,347.397 180.736 C 348.106 179.732,348.475 181.289,348.351 184.756 C 348.333 185.233,348.548 185.483,348.826 185.311 C 349.395 184.959,352.577 190.564,352.086 191.054 C 351.914 191.226,351.288 190.473,350.696 189.379 C 350.103 188.285,349.606 187.760,349.590 188.212 C 349.550 189.377,353.013 193.345,353.902 193.154 C 354.308 193.066,354.800 193.433,354.995 193.968 C 355.232 194.621,355.052 194.758,354.448 194.385 C 353.854 194.018,353.721 194.107,354.056 194.649 C 354.335 195.100,354.856 195.288,355.215 195.066 C 355.573 194.845,355.867 194.986,355.867 195.381 C 355.867 195.775,355.228 196.440,354.446 196.858 C 353.665 197.276,353.237 197.961,353.496 198.379 C 353.790 198.856,354.434 198.519,355.220 197.476 L 356.475 195.813 357.220 197.774 C 357.970 199.745,359.370 199.773,359.370 197.816 C 359.370 197.162,359.700 196.964,360.245 197.291 C 360.840 197.648,360.813 197.437,360.159 196.632 C 359.119 195.349,358.315 195.007,359.019 196.147 C 359.257 196.532,358.924 196.848,358.278 196.848 C 357.408 196.848,357.190 196.401,357.435 195.118 C 357.617 194.166,357.529 193.534,357.240 193.712 C 356.736 194.024,355.610 191.968,356.046 191.532 C 356.725 190.853,362.238 190.083,362.570 190.621 C 362.785 190.969,362.468 191.442,361.866 191.674 C 360.419 192.229,360.476 193.078,361.996 193.614 C 362.671 193.852,363.603 194.226,364.068 194.445 C 365.148 194.953,367.096 190.422,366.605 188.545 C 366.265 187.246,368.318 185.385,370.169 185.314 C 370.522 185.300,370.893 184.887,370.992 184.396 C 371.095 183.888,371.013 183.834,370.801 184.270 C 370.575 184.735,370.047 184.492,369.458 183.651 C 368.831 182.756,367.989 182.395,367.081 182.633 C 365.521 183.041,364.994 180.538,366.450 179.639 C 366.990 179.305,366.937 178.981,366.274 178.572 C 365.108 177.851,364.995 176.526,365.982 175.131 C 366.625 174.221,366.562 174.209,365.507 175.036 C 364.837 175.561,364.461 176.270,364.673 176.612 C 364.884 176.953,364.686 177.233,364.233 177.233 C 363.754 177.233,363.563 176.646,363.776 175.832 C 364.047 174.793,363.797 174.431,362.807 174.431 C 362.072 174.431,361.471 174.110,361.471 173.717 C 361.471 173.305,360.730 173.189,359.720 173.443 C 358.143 173.838,357.968 173.672,357.968 171.782 C 357.968 167.079,352.664 164.475,349.640 167.693 M53.940 167.426 C 50.665 167.667,49.292 167.924,50.888 167.996 C 52.729 168.078,53.938 168.510,54.194 169.177 C 54.686 170.460,56.743 170.580,56.743 169.326 C 56.743 168.830,57.400 168.375,58.204 168.314 C 59.213 168.238,59.545 168.517,59.276 169.216 C 59.058 169.785,59.295 170.228,59.820 170.228 C 60.436 170.228,60.638 169.634,60.417 168.476 C 60.233 167.513,60.040 166.784,59.988 166.856 C 59.937 166.927,57.215 167.184,53.940 167.426 M367.560 172.377 C 366.656 175.835,369.247 177.930,371.327 175.423 C 372.437 174.086,371.578 172.380,369.388 171.570 C 368.252 171.150,367.833 171.335,367.560 172.377 M59.720 175.212 C 56.558 177.237,56.852 177.703,60.070 175.767 C 63.327 173.809,63.430 173.728,62.639 173.742 C 62.285 173.749,60.972 174.410,59.720 175.212 M372.955 175.539 C 373.189 176.148,373.380 176.955,373.380 177.332 C 373.380 177.708,373.711 177.812,374.115 177.562 C 374.622 177.248,374.611 176.821,374.077 176.178 C 373.490 175.471,373.607 175.170,374.569 174.921 C 375.522 174.674,375.427 174.573,374.181 174.512 C 372.947 174.451,372.637 174.711,372.955 175.539 M376.182 179.685 C 376.182 180.263,376.497 180.736,376.883 180.736 C 377.268 180.736,377.583 180.263,377.583 179.685 C 377.583 179.107,377.268 178.634,376.883 178.634 C 376.497 178.634,376.182 179.107,376.182 179.685 M300.539 194.706 C 300.036 196.229,299.161 197.653,298.595 197.870 C 297.759 198.191,297.731 198.464,298.445 199.325 C 299.974 201.167,298.823 201.048,296.344 199.109 L 293.957 197.241 295.665 196.837 C 296.605 196.616,297.373 195.976,297.373 195.415 C 297.373 194.854,298.106 194.292,299.003 194.165 C 300.013 194.022,300.497 193.582,300.277 193.007 C 299.903 192.034,300.511 190.995,301.106 191.590 C 301.296 191.781,301.041 193.183,300.539 194.706 M310.661 197.583 C 309.996 198.660,310.907 199.355,311.807 198.456 C 312.310 197.953,312.322 197.561,311.843 197.266 C 311.451 197.023,310.919 197.166,310.661 197.583 M304.028 198.599 C 304.028 199.241,304.367 199.654,304.781 199.515 C 305.195 199.377,305.534 198.965,305.534 198.599 C 305.534 198.233,305.195 197.820,304.781 197.682 C 304.367 197.544,304.028 197.957,304.028 198.599 M324.308 198.564 C 322.238 200.634,324.912 204.123,327.071 202.169 C 329.021 200.404,328.787 197.898,326.673 197.898 C 325.738 197.898,324.674 198.198,324.308 198.564 M329.328 199.067 C 329.284 199.710,329.066 200.813,328.844 201.519 C 328.462 202.735,328.482 202.737,329.241 201.554 C 329.681 200.868,329.899 199.764,329.726 199.102 C 329.441 198.018,329.401 198.014,329.328 199.067 M91.531 200.441 C 90.823 200.853,89.492 201.047,88.575 200.871 C 87.658 200.696,87.074 200.822,87.278 201.152 C 87.863 202.098,90.668 201.851,92.160 200.723 C 93.748 199.522,93.389 199.362,91.531 200.441 M95.972 200.701 C 95.972 201.278,96.483 201.751,97.109 201.751 C 98.039 201.751,98.087 201.561,97.373 200.701 C 96.893 200.123,96.382 199.650,96.236 199.650 C 96.091 199.650,95.972 200.123,95.972 200.701 M78.700 201.215 C 79.766 201.893,85.465 201.902,85.462 201.226 C 85.461 200.937,83.757 200.701,81.675 200.701 C 79.594 200.701,78.255 200.932,78.700 201.215 M93.870 201.401 C 93.870 201.979,94.186 202.452,94.571 202.452 C 94.956 202.452,95.271 201.979,95.271 201.401 C 95.271 200.823,94.956 200.350,94.571 200.350 C 94.186 200.350,93.870 200.823,93.870 201.401 M335.552 201.401 C 335.552 201.979,335.867 202.452,336.252 202.452 C 336.637 202.452,336.953 201.979,336.953 201.401 C 336.953 200.823,336.637 200.350,336.252 200.350 C 335.867 200.350,335.552 200.823,335.552 201.401 M356.728 201.182 C 357.161 202.481,358.669 202.697,358.669 201.459 C 358.669 200.849,358.170 200.350,357.560 200.350 C 356.950 200.350,356.575 200.725,356.728 201.182 M322.337 206.773 C 322.285 207.416,322.038 208.519,321.788 209.225 C 321.438 210.215,321.532 210.327,322.198 209.713 C 322.673 209.276,322.919 208.173,322.747 207.261 C 322.574 206.350,322.390 206.130,322.337 206.773 M343.735 207.111 C 343.036 207.810,343.151 210.858,343.876 210.858 C 344.716 210.858,345.305 208.401,344.700 207.423 C 344.432 206.989,343.998 206.849,343.735 207.111 M387.391 213.310 C 387.391 215.370,387.934 215.527,389.217 213.835 C 390.519 212.121,390.414 211.559,388.792 211.559 C 387.764 211.559,387.391 212.026,387.391 213.310 M377.896 215.122 C 377.174 216.290,378.797 217.630,379.764 216.663 C 380.572 215.855,380.066 214.361,378.984 214.361 C 378.644 214.361,378.155 214.703,377.896 215.122 M105.429 216.462 C 105.099 217.503,105.303 217.863,106.222 217.863 C 107.160 217.863,107.264 218.060,106.650 218.674 C 106.035 219.289,105.593 219.281,104.826 218.645 C 104.034 217.987,103.744 218.002,103.492 218.710 C 103.314 219.208,102.914 219.377,102.603 219.087 C 102.292 218.796,102.777 217.772,103.680 216.810 C 105.667 214.695,106.012 214.627,105.429 216.462 M381.261 219.440 C 381.421 219.921,381.973 220.315,382.487 220.315 C 383.001 220.315,383.552 219.921,383.713 219.440 C 383.886 218.919,383.390 218.564,382.487 218.564 C 381.584 218.564,381.087 218.919,381.261 219.440 M306.597 221.133 C 305.661 222.068,306.164 224.137,307.501 224.853 C 308.614 225.448,309.020 225.312,309.651 224.132 C 310.812 221.964,308.266 219.463,306.597 221.133 M313.921 221.561 C 312.804 222.678,312.948 223.947,314.249 224.446 C 315.723 225.011,316.637 224.382,316.637 222.801 C 316.637 221.233,314.997 220.485,313.921 221.561 M367.191 222.809 C 367.320 223.689,367.846 224.547,368.360 224.717 C 368.995 224.926,369.220 224.512,369.061 223.425 C 368.932 222.546,368.406 221.687,367.892 221.518 C 367.257 221.309,367.032 221.723,367.191 222.809 M215.316 225.970 C 216.034 227.483,217.058 228.974,217.592 229.282 C 218.711 229.926,218.923 233.275,217.846 233.275 C 217.451 233.275,216.939 232.329,216.708 231.173 C 216.393 229.600,215.899 229.072,214.740 229.072 C 212.699 229.072,212.085 228.374,213.076 227.180 C 213.683 226.449,213.681 226.010,213.070 225.399 C 212.624 224.953,212.259 224.152,212.259 223.619 C 212.259 221.848,213.993 223.180,215.316 225.970 M208.757 225.569 C 206.666 227.204,205.857 227.338,206.386 225.960 C 206.599 225.405,207.456 224.817,208.290 224.655 C 209.125 224.492,209.965 224.323,210.158 224.279 C 210.350 224.235,209.720 224.816,208.757 225.569 M303.752 225.978 C 303.490 226.660,303.647 226.980,304.159 226.810 C 305.206 226.461,305.783 224.869,304.862 224.869 C 304.486 224.869,303.986 225.368,303.752 225.978 M310.017 225.750 C 309.300 228.082,309.829 228.952,311.500 228.191 C 312.399 227.781,313.135 226.985,313.135 226.422 C 313.135 225.547,313.314 225.538,314.361 226.359 C 315.433 227.200,315.483 227.187,314.755 226.251 C 313.724 224.924,310.379 224.571,310.017 225.750 M210.787 229.422 C 210.801 229.807,210.361 229.524,209.808 228.793 C 209.254 228.062,209.003 227.138,209.250 226.738 C 209.677 226.047,210.727 227.881,210.787 229.422 M306.830 228.021 C 306.830 228.599,307.145 229.072,307.531 229.072 C 307.916 229.072,308.231 228.599,308.231 228.021 C 308.231 227.443,307.916 226.970,307.531 226.970 C 307.145 226.970,306.830 227.443,306.830 228.021 M312.914 228.636 C 312.411 229.947,313.769 231.173,315.722 231.173 L 317.329 231.173 315.806 229.422 C 314.074 227.430,313.443 227.259,312.914 228.636 M187.741 230.398 C 187.741 230.742,187.268 231.205,186.690 231.427 C 186.050 231.672,185.639 231.428,185.639 230.801 C 185.639 230.235,186.112 229.772,186.690 229.772 C 187.268 229.772,187.741 230.054,187.741 230.398 M198.949 230.823 C 198.949 231.401,198.634 231.874,198.249 231.874 C 197.863 231.874,197.548 231.401,197.548 230.823 C 197.548 230.245,197.863 229.772,198.249 229.772 C 198.634 229.772,198.949 230.245,198.949 230.823 M263.398 230.823 C 263.398 231.545,263.857 231.888,264.623 231.741 C 266.100 231.456,266.007 230.213,264.485 229.896 C 263.851 229.764,263.398 230.150,263.398 230.823 M292.820 230.823 C 292.820 231.401,293.135 231.874,293.520 231.874 C 293.905 231.874,294.221 231.401,294.221 230.823 C 294.221 230.245,293.905 229.772,293.520 229.772 C 293.135 229.772,292.820 230.245,292.820 230.823 M351.846 232.049 C 351.467 232.531,350.962 233.741,350.725 234.738 C 350.142 237.187,354.639 237.671,355.910 235.296 C 357.244 232.804,353.566 229.865,351.846 232.049 M289.317 233.625 C 289.317 234.203,289.790 234.676,290.368 234.676 C 290.946 234.676,291.419 234.203,291.419 233.625 C 291.419 233.047,290.946 232.574,290.368 232.574 C 289.790 232.574,289.317 233.047,289.317 233.625 M303.327 233.684 C 303.327 234.294,303.702 234.668,304.159 234.515 C 305.458 234.082,305.674 232.574,304.437 232.574 C 303.827 232.574,303.327 233.074,303.327 233.684 M357.349 233.393 C 357.305 234.036,357.087 235.139,356.865 235.845 C 356.483 237.061,356.503 237.063,357.262 235.880 C 357.702 235.194,357.920 234.090,357.747 233.428 C 357.462 232.343,357.422 232.340,357.349 233.393 M193.345 236.244 C 193.345 237.430,193.228 237.461,192.294 236.527 C 191.716 235.949,191.243 235.349,191.243 235.193 C 191.243 235.037,191.716 234.910,192.294 234.910 C 192.872 234.910,193.345 235.510,193.345 236.244 M216.462 235.526 C 216.462 236.300,214.529 236.215,214.037 235.419 C 213.813 235.057,214.267 234.809,215.046 234.867 C 215.825 234.926,216.462 235.222,216.462 235.526 M263.713 235.432 C 263.448 235.861,263.742 236.722,264.365 237.345 C 265.410 238.390,265.499 238.360,265.499 236.969 C 265.499 235.222,264.418 234.292,263.713 235.432 M114.320 236.732 C 114.786 237.478,115.421 237.931,115.732 237.738 C 116.043 237.546,115.845 236.936,115.292 236.383 C 113.857 234.948,113.325 235.139,114.320 236.732 M221.906 236.208 C 221.473 237.507,219.965 237.723,219.965 236.486 C 219.965 235.876,220.464 235.377,221.074 235.377 C 221.684 235.377,222.059 235.751,221.906 236.208 M299.825 238.120 C 299.825 240.407,300.227 240.684,301.926 239.569 C 302.787 239.004,302.808 238.770,302.042 238.275 C 301.527 237.943,301.157 237.400,301.219 237.067 C 301.280 236.734,300.992 236.349,300.578 236.211 C 300.149 236.068,299.825 236.891,299.825 238.120 M173.851 238.640 C 174.147 240.173,176.182 240.390,176.182 238.889 C 176.182 238.316,175.602 237.736,174.893 237.599 C 173.956 237.419,173.671 237.704,173.851 238.640 M261.043 237.964 C 260.088 238.920,260.673 240.995,262.379 242.700 C 264.400 244.721,265.135 244.970,264.545 243.433 C 264.323 242.855,264.447 242.382,264.821 242.382 C 265.194 242.382,265.499 241.909,265.499 241.331 C 265.499 240.135,264.401 239.924,263.741 240.992 C 263.034 242.135,261.900 240.986,262.347 239.580 C 262.762 238.273,261.857 237.151,261.043 237.964 M266.550 238.179 C 265.979 239.103,266.816 240.415,267.649 239.900 C 268.500 239.374,268.494 237.478,267.642 237.478 C 267.279 237.478,266.788 237.793,266.550 238.179 M272.222 238.069 C 271.979 238.461,272.122 238.993,272.540 239.251 C 273.617 239.917,274.312 239.005,273.412 238.106 C 272.909 237.603,272.517 237.591,272.222 238.069 M350.321 237.741 C 350.482 237.885,352.504 238.179,354.816 238.394 C 357.580 238.651,358.300 238.590,356.918 238.214 C 354.757 237.628,349.800 237.272,350.321 237.741 M205.468 240.732 C 205.209 241.409,205.495 242.227,206.164 242.716 C 207.196 243.471,207.201 243.692,206.215 245.099 C 205.080 246.720,205.345 248.687,206.699 248.687 C 207.132 248.687,207.652 248.056,207.853 247.285 C 208.055 246.515,208.617 245.884,209.103 245.884 C 209.589 245.884,210.344 245.453,210.781 244.927 C 211.756 243.752,210.003 241.962,208.679 242.780 C 208.137 243.115,208.023 243.001,208.358 242.459 C 208.902 241.580,207.644 239.580,206.547 239.580 C 206.197 239.580,205.712 240.098,205.468 240.732 M222.832 240.552 C 221.542 242.106,223.887 243.664,225.336 242.215 C 226.332 241.219,226.303 241.048,225.024 240.363 C 223.961 239.795,223.422 239.841,222.832 240.552 M355.200 240.245 C 354.640 240.599,353.977 240.761,353.725 240.605 C 352.682 239.961,354.017 243.793,355.212 244.875 C 356.955 246.452,360.070 245.714,360.070 243.723 C 360.070 240.332,357.718 238.652,355.200 240.245 M176.845 241.042 C 176.234 242.031,177.584 243.381,178.573 242.770 C 179.684 242.083,179.504 240.280,178.325 240.280 C 177.770 240.280,177.104 240.623,176.845 241.042 M182.449 241.042 C 182.190 241.461,182.302 242.127,182.697 242.522 C 183.581 243.406,184.939 242.659,184.939 241.290 C 184.939 240.110,183.136 239.931,182.449 241.042 M188.140 240.901 C 187.430 242.050,189.566 243.209,190.444 242.151 C 190.877 241.629,191.024 240.995,190.770 240.741 C 190.110 240.080,188.590 240.173,188.140 240.901 M194.167 241.443 C 194.303 242.152,194.884 242.732,195.456 242.732 C 196.958 242.732,196.741 240.697,195.208 240.401 C 194.272 240.221,193.986 240.506,194.167 241.443 M211.195 241.003 C 210.923 241.443,211.030 242.133,211.433 242.536 C 212.374 243.477,214.569 242.656,214.186 241.506 C 213.796 240.335,211.814 240.002,211.195 241.003 M257.405 241.042 C 257.146 241.461,257.258 242.127,257.653 242.522 C 258.537 243.406,259.895 242.659,259.895 241.290 C 259.895 240.110,258.092 239.931,257.405 241.042 M269.382 240.932 C 268.864 241.771,270.182 242.601,271.115 242.024 C 271.898 241.540,271.384 240.280,270.403 240.280 C 270.063 240.280,269.604 240.574,269.382 240.932 M283.190 241.856 C 281.950 242.723,280.929 243.685,280.923 243.994 C 280.916 244.302,282.014 243.713,283.363 242.685 C 285.524 241.036,286.236 240.280,285.629 240.280 C 285.528 240.280,284.430 240.989,283.190 241.856 M191.345 243.260 C 190.807 243.799,190.796 244.295,191.311 244.915 C 192.179 245.961,194.046 245.426,194.046 244.133 C 194.046 242.893,192.283 242.323,191.345 243.260 M202.687 243.480 C 202.050 245.141,203.544 246.313,204.883 245.201 C 205.712 244.513,205.782 244.069,205.177 243.340 C 204.128 242.076,203.206 242.127,202.687 243.480 M214.494 243.272 C 213.489 244.483,214.608 246.208,216.041 245.658 C 217.416 245.131,217.476 244.214,216.205 243.159 C 215.484 242.561,215.061 242.589,214.494 243.272 M220.036 243.347 C 219.147 244.418,220.776 246.332,221.956 245.603 C 222.314 245.381,222.751 245.956,222.928 246.879 C 223.157 248.081,222.981 248.456,222.307 248.197 C 221.790 247.999,221.366 247.566,221.366 247.235 C 221.366 245.541,218.300 245.007,217.098 246.492 C 216.432 247.314,215.697 247.986,215.465 247.986 C 214.689 247.986,210.979 252.519,211.313 253.059 C 211.493 253.351,212.253 253.590,213.001 253.590 C 213.749 253.590,214.361 254.047,214.361 254.606 C 214.361 255.165,214.868 255.906,215.488 256.253 C 216.504 256.821,216.492 256.932,215.369 257.362 C 214.105 257.847,212.991 256.827,212.970 255.166 C 212.965 254.685,212.329 254.291,211.559 254.291 C 210.788 254.291,209.929 254.267,209.650 254.238 C 209.370 254.209,209.029 254.525,208.891 254.939 C 208.753 255.353,209.147 255.692,209.766 255.692 C 210.386 255.692,211.200 256.499,211.575 257.485 C 211.954 258.482,212.589 259.073,213.006 258.816 C 213.419 258.560,213.927 259.012,214.139 259.824 C 214.840 262.505,216.883 261.355,216.588 258.446 C 216.566 258.228,217.483 258.186,218.627 258.354 C 220.289 258.598,220.623 258.924,220.289 259.978 C 219.452 262.613,223.301 261.494,224.788 258.669 C 225.245 257.802,226.047 257.093,226.570 257.093 C 228.277 257.093,228.587 254.724,227.016 253.680 C 225.172 252.455,225.146 250.788,226.970 250.788 C 228.744 250.788,228.780 249.064,227.041 247.461 C 221.702 242.539,221.033 242.146,220.036 243.347 M179.335 244.133 C 179.335 244.717,179.957 245.184,180.736 245.184 C 181.514 245.184,182.137 244.717,182.137 244.133 C 182.137 243.549,181.514 243.082,180.736 243.082 C 179.957 243.082,179.335 243.549,179.335 244.133 M185.338 243.703 C 184.861 244.475,186.646 246.045,187.280 245.411 C 187.533 245.158,187.741 244.530,187.741 244.016 C 187.741 242.973,185.935 242.738,185.338 243.703 M196.848 244.082 C 196.848 244.732,197.447 245.184,198.307 245.184 C 200.014 245.184,199.773 243.547,198.016 243.206 C 197.324 243.072,196.848 243.429,196.848 244.082 M254.777 243.530 C 254.123 244.184,254.913 245.184,256.083 245.184 C 256.639 245.184,257.093 244.711,257.093 244.133 C 257.093 243.078,255.614 242.693,254.777 243.530 M260.595 244.075 C 260.595 244.685,261.095 245.184,261.705 245.184 C 262.315 245.184,262.689 244.810,262.536 244.352 C 262.104 243.053,260.595 242.838,260.595 244.075 M266.686 243.530 C 266.126 244.090,266.759 245.184,267.642 245.184 C 268.005 245.184,268.301 244.711,268.301 244.133 C 268.301 243.050,267.475 242.741,266.686 243.530 M272.290 243.530 C 271.730 244.090,272.363 245.184,273.246 245.184 C 273.609 245.184,273.905 244.711,273.905 244.133 C 273.905 243.050,273.079 242.741,272.290 243.530 M182.889 245.852 C 181.783 246.536,182.490 247.986,183.929 247.986 C 184.994 247.986,185.332 246.210,184.380 245.622 C 184.073 245.432,183.402 245.536,182.889 245.852 M188.455 246.218 C 187.744 247.075,187.800 247.352,188.760 247.720 C 190.398 248.349,191.577 247.034,190.315 245.986 C 189.549 245.350,189.132 245.402,188.455 246.218 M194.464 245.699 C 193.542 246.622,194.128 247.986,195.447 247.986 C 196.217 247.986,196.848 247.547,196.848 247.010 C 196.848 245.953,195.146 245.017,194.464 245.699 M211.325 245.651 C 211.068 245.908,210.858 246.696,210.858 247.402 C 210.858 248.109,210.402 248.687,209.843 248.687 C 208.399 248.687,205.038 251.973,205.582 252.854 C 206.427 254.221,208.716 253.602,209.966 251.668 C 210.649 250.611,211.996 249.041,212.960 248.178 C 214.450 246.844,214.555 246.506,213.660 245.908 C 212.414 245.075,211.952 245.024,211.325 245.651 M148.511 246.935 C 148.511 247.513,148.827 247.986,149.212 247.986 C 149.597 247.986,149.912 247.513,149.912 246.935 C 149.912 246.357,149.597 245.884,149.212 245.884 C 148.827 245.884,148.511 246.357,148.511 246.935 M154.116 246.935 C 154.116 247.513,154.431 247.986,154.816 247.986 C 155.201 247.986,155.517 247.513,155.517 246.935 C 155.517 246.357,155.201 245.884,154.816 245.884 C 154.431 245.884,154.116 246.357,154.116 246.935 M159.505 246.332 C 158.852 246.986,159.642 247.986,160.812 247.986 C 161.367 247.986,161.821 247.513,161.821 246.935 C 161.821 245.880,160.343 245.495,159.505 246.332 M199.650 246.935 C 199.650 247.519,200.272 247.986,201.051 247.986 C 201.829 247.986,202.452 247.519,202.452 246.935 C 202.452 246.351,201.829 245.884,201.051 245.884 C 200.272 245.884,199.650 246.351,199.650 246.935 M257.793 246.994 C 257.793 247.604,258.168 247.978,258.625 247.825 C 259.924 247.392,260.140 245.884,258.903 245.884 C 258.292 245.884,257.793 246.384,257.793 246.994 M263.558 246.716 C 263.991 248.015,265.499 248.231,265.499 246.994 C 265.499 246.384,265.000 245.884,264.390 245.884 C 263.780 245.884,263.406 246.259,263.558 246.716 M145.204 247.371 C 144.771 247.803,144.584 248.591,144.788 249.122 C 145.212 250.227,147.110 250.444,147.110 249.387 C 147.110 249.002,146.599 248.687,145.974 248.687 C 145.043 248.687,144.995 248.496,145.709 247.636 C 146.725 246.412,146.356 246.219,145.204 247.371 M232.341 247.752 C 232.084 248.009,231.874 248.824,231.874 249.562 C 231.874 251.379,233.566 250.732,233.849 248.807 C 234.066 247.334,233.297 246.796,232.341 247.752 M186.087 248.472 C 185.250 249.309,185.635 250.788,186.690 250.788 C 187.268 250.788,187.741 250.334,187.741 249.779 C 187.741 248.608,186.741 247.818,186.087 248.472 M191.691 248.472 C 190.854 249.309,191.239 250.788,192.294 250.788 C 192.872 250.788,193.345 250.334,193.345 249.779 C 193.345 248.608,192.345 247.818,191.691 248.472 M202.933 248.438 C 201.942 249.430,202.503 250.788,203.904 250.788 C 204.884 250.788,205.283 250.408,205.130 249.620 C 204.880 248.331,203.684 247.688,202.933 248.438 M156.918 249.737 C 156.918 250.379,157.257 250.792,157.671 250.654 C 158.085 250.516,158.424 250.103,158.424 249.737 C 158.424 249.371,158.085 248.959,157.671 248.821 C 157.257 248.683,156.918 249.095,156.918 249.737 M162.656 249.440 C 162.794 249.854,163.207 250.193,163.573 250.193 C 163.939 250.193,164.351 249.854,164.489 249.440 C 164.627 249.025,164.215 248.687,163.573 248.687 C 162.931 248.687,162.518 249.025,162.656 249.440 M197.023 249.562 C 197.183 250.044,197.735 250.438,198.249 250.438 C 198.762 250.438,199.314 250.044,199.475 249.562 C 199.648 249.041,199.152 248.687,198.249 248.687 C 197.346 248.687,196.849 249.041,197.023 249.562 M260.730 249.440 C 260.868 249.854,261.280 250.193,261.646 250.193 C 262.012 250.193,262.425 249.854,262.563 249.440 C 262.701 249.025,262.288 248.687,261.646 248.687 C 261.004 248.687,260.592 249.025,260.730 249.440 M178.872 255.568 C 179.512 255.693,180.035 256.108,180.035 256.491 C 180.035 256.874,179.405 256.987,178.634 256.743 C 177.830 256.487,177.233 256.617,177.233 257.046 C 177.233 257.457,176.918 257.793,176.532 257.793 C 176.147 257.793,175.832 257.068,175.832 256.182 C 175.832 255.296,175.487 254.226,175.066 253.806 C 174.513 253.252,174.551 252.583,175.203 251.389 C 176.094 249.758,176.116 249.773,176.907 252.539 C 177.369 254.153,178.202 255.438,178.872 255.568 M182.449 251.550 C 181.727 252.718,183.351 254.057,184.317 253.091 C 185.126 252.282,184.620 250.788,183.538 250.788 C 183.198 250.788,182.708 251.131,182.449 251.550 M188.889 251.274 C 188.052 252.111,188.437 253.590,189.492 253.590 C 190.070 253.590,190.543 253.136,190.543 252.581 C 190.543 251.410,189.543 250.620,188.889 251.274 M194.379 251.516 C 193.673 252.658,195.241 254.076,196.177 253.140 C 196.683 252.634,196.595 252.151,195.889 251.565 C 195.136 250.940,194.743 250.928,194.379 251.516 M199.962 251.550 C 199.240 252.718,200.864 254.057,201.830 253.091 C 202.639 252.282,202.133 250.788,201.051 250.788 C 200.711 250.788,200.221 251.131,199.962 251.550 M228.684 251.550 C 227.962 252.718,229.586 254.057,230.552 253.091 C 231.360 252.282,230.854 250.788,229.772 250.788 C 229.433 250.788,228.943 251.131,228.684 251.550 M130.823 251.983 C 131.690 252.150,133.109 252.150,133.975 251.983 C 134.842 251.816,134.133 251.679,132.399 251.679 C 130.665 251.679,129.956 251.816,130.823 251.983 M159.720 252.189 C 159.720 252.574,159.956 252.890,160.245 252.891 C 160.534 252.892,160.804 253.838,160.845 254.993 C 160.886 256.148,160.650 257.093,160.320 257.093 C 159.990 257.093,159.720 257.408,159.720 257.793 C 159.720 258.179,160.193 258.494,160.771 258.494 C 161.349 258.494,161.821 258.904,161.821 259.405 C 161.821 260.694,163.469 264.086,164.098 264.093 C 164.845 264.100,164.749 259.617,163.958 257.535 C 163.485 256.291,163.535 255.697,164.133 255.482 C 164.642 255.298,164.145 254.451,162.872 253.334 C 160.644 251.380,159.720 251.044,159.720 252.189 M234.810 252.242 C 234.948 252.656,235.361 252.995,235.727 252.995 C 236.093 252.995,236.505 252.656,236.643 252.242 C 236.781 251.827,236.369 251.489,235.727 251.489 C 235.085 251.489,234.672 251.827,234.810 252.242 M185.747 254.597 C 185.881 255.240,186.305 255.749,186.690 255.729 C 187.730 255.674,187.539 254.107,186.448 253.743 C 185.859 253.547,185.596 253.867,185.747 254.597 M191.594 254.291 C 191.022 255.215,191.860 256.527,192.693 256.012 C 193.544 255.486,193.538 253.590,192.686 253.590 C 192.323 253.590,191.832 253.905,191.594 254.291 M197.160 254.352 C 196.438 255.520,198.062 256.859,199.028 255.893 C 199.837 255.085,199.331 253.590,198.249 253.590 C 197.909 253.590,197.419 253.933,197.160 254.352 M202.783 254.321 C 202.273 255.146,203.647 257.093,204.738 257.093 C 205.131 257.093,206.356 258.039,207.461 259.194 C 209.663 261.499,210.858 261.869,210.858 260.245 C 210.858 259.667,210.557 259.194,210.189 259.194 C 209.206 259.194,206.030 255.850,206.534 255.346 C 207.033 254.846,205.297 253.617,204.069 253.601 C 203.610 253.595,203.032 253.919,202.783 254.321 M231.475 254.369 C 230.871 255.346,232.695 256.552,233.523 255.724 C 234.197 255.050,233.548 253.590,232.574 253.590 C 232.235 253.590,231.740 253.941,231.475 254.369 M237.926 254.076 C 237.137 254.865,237.446 255.692,238.529 255.692 C 239.107 255.692,239.580 255.395,239.580 255.033 C 239.580 254.149,238.486 253.517,237.926 254.076 M254.641 254.991 C 254.403 255.377,254.857 255.692,255.650 255.692 C 256.444 255.692,257.093 255.377,257.093 254.991 C 257.093 254.606,256.639 254.291,256.083 254.291 C 255.528 254.291,254.879 254.606,254.641 254.991 M188.565 257.480 C 188.882 259.002,190.125 259.095,190.410 257.618 C 190.557 256.851,190.214 256.392,189.492 256.392 C 188.819 256.392,188.433 256.845,188.565 257.480 M194.513 256.859 C 193.707 257.665,194.002 258.494,195.096 258.494 C 195.674 258.494,196.147 258.021,196.147 257.443 C 196.147 256.349,195.319 256.053,194.513 256.859 M200.030 257.044 C 199.512 257.883,200.830 258.713,201.763 258.137 C 202.546 257.652,202.032 256.392,201.051 256.392 C 200.711 256.392,200.252 256.686,200.030 257.044 M228.809 256.951 C 228.135 258.042,229.644 259.603,230.523 258.724 C 230.968 258.279,231.120 257.573,230.861 257.154 C 230.308 256.259,229.299 256.159,228.809 256.951 M234.676 257.718 C 234.676 258.062,235.175 258.535,235.784 258.769 C 237.366 259.376,237.482 259.318,237.031 258.144 C 236.600 257.020,234.676 256.673,234.676 257.718 M239.580 258.191 C 239.580 258.954,239.989 259.159,240.921 258.863 C 241.834 258.573,242.609 258.932,243.349 259.988 C 244.284 261.322,244.495 261.380,244.871 260.400 C 245.445 258.904,244.598 257.599,243.362 258.074 C 242.823 258.281,242.382 258.145,242.382 257.771 C 242.382 257.398,241.751 257.093,240.981 257.093 C 240.176 257.093,239.580 257.560,239.580 258.191 M249.854 258.260 C 248.793 259.321,249.516 261.293,251.479 262.690 L 253.572 264.180 253.132 261.862 C 252.501 258.533,251.110 257.005,249.854 258.260 M197.321 259.476 C 196.926 260.507,197.378 261.296,198.365 261.296 C 198.687 261.296,198.949 260.665,198.949 259.895 C 198.949 258.289,197.882 258.014,197.321 259.476 M185.639 260.245 C 185.639 260.823,186.112 261.296,186.690 261.296 C 187.268 261.296,187.741 260.823,187.741 260.245 C 187.741 259.667,187.268 259.194,186.690 259.194 C 186.112 259.194,185.639 259.667,185.639 260.245 M191.243 260.245 C 191.243 260.823,191.716 261.296,192.294 261.296 C 192.872 261.296,193.345 260.823,193.345 260.245 C 193.345 259.667,192.872 259.194,192.294 259.194 C 191.716 259.194,191.243 259.667,191.243 260.245 M203.152 260.245 C 203.152 260.887,203.491 261.300,203.905 261.162 C 204.320 261.024,204.658 260.611,204.658 260.245 C 204.658 259.879,204.320 259.467,203.905 259.329 C 203.491 259.191,203.152 259.603,203.152 260.245 M226.270 260.245 C 226.270 260.887,226.609 261.300,227.023 261.162 C 227.437 261.024,227.776 260.611,227.776 260.245 C 227.776 259.879,227.437 259.467,227.023 259.329 C 226.609 259.191,226.270 259.603,226.270 260.245 M231.874 260.245 C 231.874 260.887,232.213 261.300,232.627 261.162 C 233.041 261.024,233.380 260.611,233.380 260.245 C 233.380 259.879,233.041 259.467,232.627 259.329 C 232.213 259.191,231.874 259.603,231.874 260.245 M238.001 259.606 C 237.391 260.216,239.607 264.098,240.565 264.098 C 241.987 264.098,242.382 263.306,241.646 261.930 C 241.212 261.119,240.535 260.811,239.804 261.091 C 239.063 261.375,238.820 261.258,239.126 260.763 C 239.624 259.957,238.650 258.956,238.001 259.606 M211.277 261.885 C 210.737 262.759,212.043 264.314,212.881 263.796 C 213.310 263.531,213.660 263.052,213.660 262.731 C 213.660 261.932,211.682 261.230,211.277 261.885 M218.039 261.792 C 216.827 262.237,216.935 264.098,218.172 264.098 C 219.447 264.098,220.319 262.754,219.519 262.023 C 219.186 261.719,218.520 261.616,218.039 261.792 M246.232 262.001 C 245.992 262.389,246.302 262.901,246.921 263.139 C 248.262 263.653,249.010 263.086,248.365 262.043 C 247.783 261.102,246.799 261.083,246.232 262.001 M188.441 263.106 C 188.441 263.716,188.816 264.090,189.273 263.938 C 190.572 263.505,190.788 261.996,189.550 261.996 C 188.940 261.996,188.441 262.496,188.441 263.106 M194.532 262.444 C 193.972 263.004,194.605 264.098,195.488 264.098 C 195.850 264.098,196.147 263.625,196.147 263.047 C 196.147 261.964,195.321 261.656,194.532 262.444 M204.875 263.079 C 206.375 264.213,207.464 264.123,207.896 262.828 C 208.073 262.295,207.336 262.004,205.838 262.019 C 203.623 262.040,203.573 262.095,204.875 263.079 M185.744 265.464 C 186.045 266.367,187.006 266.529,187.093 265.692 C 187.122 265.412,186.767 265.058,186.305 264.904 C 185.842 264.750,185.590 265.002,185.744 265.464 M200.068 265.389 C 199.587 266.168,200.381 269.002,201.081 269.002 C 201.393 269.002,201.755 268.451,201.884 267.777 C 202.014 267.104,202.589 266.552,203.162 266.551 C 203.735 266.550,204.288 266.237,204.392 265.854 C 204.620 265.016,200.568 264.580,200.068 265.389 M214.741 265.451 C 214.262 266.225,215.368 267.061,216.014 266.414 C 216.680 265.748,216.556 264.799,215.803 264.799 C 215.441 264.799,214.963 265.092,214.741 265.451 M220.665 265.424 C 220.665 266.300,222.643 266.967,223.091 266.242 C 223.294 265.914,222.963 265.455,222.355 265.222 C 220.887 264.659,220.665 264.685,220.665 265.424 M243.411 265.534 C 242.745 266.611,243.657 267.306,244.556 266.407 C 245.059 265.904,245.071 265.512,244.593 265.217 C 244.201 264.974,243.669 265.117,243.411 265.534 M249.540 265.607 C 249.903 266.698,251.471 266.889,251.526 265.849 C 251.546 265.464,251.037 265.040,250.394 264.907 C 249.664 264.756,249.343 265.018,249.540 265.607 M181.600 269.314 C 180.757 270.284,180.386 271.238,180.762 271.470 C 181.133 271.699,181.436 271.514,181.436 271.059 C 181.436 270.465,181.690 270.442,182.335 270.977 C 183.533 271.972,185.139 270.909,184.832 269.326 C 184.459 267.399,183.269 267.395,181.600 269.314 M189.142 269.336 C 189.142 270.500,189.633 271.034,190.934 271.283 C 192.295 271.543,192.632 271.380,192.335 270.606 C 192.120 270.046,191.944 269.335,191.944 269.026 C 191.944 268.717,191.313 268.300,190.543 268.098 C 189.443 267.811,189.142 268.077,189.142 269.336 M246.280 268.228 C 246.067 268.573,246.364 269.036,246.939 269.257 C 247.575 269.501,247.986 269.254,247.986 268.630 C 247.986 267.496,246.891 267.239,246.280 268.228 M196.964 269.745 C 197.093 270.624,197.618 271.482,198.133 271.652 C 198.768 271.861,198.992 271.447,198.833 270.361 C 198.704 269.481,198.178 268.623,197.664 268.453 C 197.029 268.244,196.805 268.658,196.964 269.745 M204.203 269.702 C 204.441 270.088,204.284 270.403,203.853 270.403 C 203.422 270.403,203.285 270.752,203.549 271.178 C 203.883 271.719,204.210 271.666,204.630 271.003 C 205.446 269.715,205.404 269.002,204.512 269.002 C 204.104 269.002,203.965 269.317,204.203 269.702 M156.514 271.417 C 156.264 272.414,156.213 274.037,156.401 275.022 C 156.646 276.301,156.528 276.598,155.990 276.060 C 154.778 274.848,153.415 275.191,153.415 276.708 C 153.415 277.478,153.764 278.109,154.191 278.109 C 154.625 278.109,154.778 278.648,154.539 279.335 C 154.174 280.383,154.262 280.367,155.145 279.227 C 156.442 277.554,156.804 278.385,157.074 283.658 C 157.332 288.704,158.753 289.127,159.123 284.267 C 159.812 275.194,157.913 265.841,156.514 271.417 M185.957 272.271 C 185.975 273.298,186.384 274.270,186.865 274.431 C 187.839 274.755,187.920 274.296,187.299 271.979 C 186.721 269.819,185.917 269.994,185.957 272.271 M244.483 271.103 C 244.483 271.489,245.114 271.804,245.884 271.804 C 246.655 271.804,247.285 271.489,247.285 271.103 C 247.285 270.718,246.655 270.403,245.884 270.403 C 245.114 270.403,244.483 270.718,244.483 271.103 M207.164 272.816 C 205.990 273.683,205.999 273.754,207.338 274.104 C 208.881 274.507,209.983 273.443,209.011 272.490 C 208.678 272.165,207.847 272.311,207.164 272.816 M171.414 272.952 C 170.855 273.512,171.487 274.606,172.371 274.606 C 172.733 274.606,173.030 274.133,173.030 273.555 C 173.030 272.472,172.203 272.163,171.414 272.952 M200.350 273.555 C 200.350 274.133,200.665 274.606,201.051 274.606 C 201.436 274.606,201.751 274.133,201.751 273.555 C 201.751 272.977,201.436 272.504,201.051 272.504 C 200.665 272.504,200.350 272.977,200.350 273.555 M188.441 273.905 C 188.441 274.291,188.914 274.606,189.492 274.606 C 190.070 274.606,190.543 274.291,190.543 273.905 C 190.543 273.520,190.070 273.205,189.492 273.205 C 188.914 273.205,188.441 273.520,188.441 273.905 M160.932 275.596 C 160.142 276.385,159.898 278.311,160.362 280.083 C 160.489 280.568,164.623 277.272,164.623 276.684 C 164.623 275.354,161.959 274.568,160.932 275.596 M165.669 276.502 C 164.690 278.828,164.645 281.457,165.572 282.226 C 166.246 282.786,166.509 282.759,166.558 282.125 C 166.594 281.650,166.841 280.552,167.106 279.685 C 167.478 278.469,167.310 278.109,166.371 278.109 C 165.359 278.109,165.302 277.928,166.039 277.041 C 166.526 276.454,166.761 275.810,166.561 275.610 C 166.361 275.410,165.960 275.811,165.669 276.502 M167.426 276.666 C 167.426 278.552,168.751 279.185,170.028 277.908 C 171.304 276.632,170.672 275.306,168.785 275.306 C 167.906 275.306,167.426 275.787,167.426 276.666 M203.571 275.822 C 202.819 276.573,203.130 277.408,204.162 277.408 C 204.717 277.408,205.346 277.126,205.559 276.781 C 206.005 276.060,204.203 275.190,203.571 275.822 M221.482 275.921 C 220.755 276.382,220.832 276.587,221.832 276.847 C 223.493 277.277,224.989 276.769,224.481 275.947 C 223.990 275.151,222.713 275.140,221.482 275.921 M171.049 279.271 C 171.345 280.804,173.380 281.021,173.380 279.519 C 173.380 278.947,172.800 278.366,172.090 278.230 C 171.154 278.049,170.869 278.335,171.049 279.271 M179.585 280.443 C 179.833 281.148,180.035 282.078,180.035 282.509 C 180.035 283.052,180.294 283.033,180.881 282.447 C 181.541 281.786,181.443 281.334,180.431 280.380 C 179.197 279.217,179.157 279.220,179.585 280.443 M160.574 283.000 C 160.508 285.343,161.155 286.026,162.830 285.383 C 163.563 285.102,163.817 284.481,163.546 283.630 C 163.287 282.813,163.465 282.312,164.016 282.312 C 164.711 282.312,164.702 282.122,163.975 281.436 C 163.233 280.736,162.983 280.736,162.726 281.436 C 162.550 281.918,162.098 282.312,161.722 282.312 C 161.346 282.312,161.233 281.996,161.471 281.611 C 161.709 281.226,161.618 280.911,161.269 280.911 C 160.919 280.911,160.607 281.851,160.574 283.000 M168.260 281.664 C 168.398 282.078,168.811 282.417,169.177 282.417 C 169.543 282.417,169.955 282.078,170.093 281.664 C 170.231 281.250,169.819 280.911,169.177 280.911 C 168.535 280.911,168.122 281.250,168.260 281.664 M171.222 283.804 C 170.625 284.771,171.996 286.103,172.969 285.502 C 173.388 285.243,173.730 284.768,173.730 284.447 C 173.730 283.515,171.719 283.000,171.222 283.804 M164.799 286.278 C 163.481 286.810,163.746 288.472,165.278 289.292 C 167.129 290.283,167.216 290.240,167.017 288.441 C 166.920 287.574,166.816 286.629,166.783 286.340 C 166.719 285.760,166.128 285.742,164.799 286.278 M154.865 289.703 C 154.798 290.715,156.464 294.208,157.018 294.215 C 157.795 294.225,158.369 291.980,157.937 290.619 C 157.414 288.972,156.233 288.921,156.168 290.543 C 156.126 291.591,156.031 291.566,155.517 290.368 C 155.186 289.597,154.892 289.298,154.865 289.703 M160.229 290.038 C 160.745 290.595,160.840 291.265,160.466 291.717 C 160.050 292.220,160.489 292.493,161.790 292.539 C 163.355 292.595,163.670 292.355,163.398 291.313 C 163.211 290.601,162.806 290.018,162.497 290.018 C 162.189 290.018,161.359 289.813,160.653 289.564 C 159.614 289.197,159.533 289.288,160.229 290.038 M157.625 294.562 C 156.873 295.469,157.061 295.622,158.933 295.622 C 160.137 295.622,161.121 295.254,161.121 294.804 C 161.121 294.355,160.913 294.195,160.660 294.448 C 160.406 294.702,159.818 294.593,159.352 294.206 C 158.766 293.720,158.233 293.830,157.625 294.562 " stroke="none" fill="url('#gradient')" fill-rule="evenodd"></path></g></svg>