<svg id="svg" xmlns="http://www.w3.org/2000/svg" xmlns:xlink="http://www.w3.org/1999/xlink" width="400" height="565.7142857142857" viewBox="0, 0, 400,565.7142857142857"><g id="svgg"><defs><linearGradient id="gradient"><stop offset="0%"  stop-color="#ee0979" /><stop offset="100%" stop-color="#ff6a00" /></linearGradient></defs><path id="path0" d="M192.546 100.628 C 192.947 102.712,195.714 103.007,195.714 100.965 C 195.714 100.187,194.925 99.398,193.961 99.212 C 192.688 98.967,192.300 99.355,192.546 100.628 M242.857 100.556 C 242.857 101.385,243.366 101.894,243.988 101.687 C 245.754 101.098,246.047 99.048,244.365 99.048 C 243.536 99.048,242.857 99.726,242.857 100.556 M259.048 106.667 C 259.048 107.190,259.930 107.619,261.009 107.619 C 262.087 107.619,262.705 107.190,262.381 106.667 C 262.057 106.143,261.175 105.714,260.420 105.714 C 259.665 105.714,259.048 106.143,259.048 106.667 M239.490 108.351 C 239.769 109.078,238.759 110.911,237.245 112.425 C 233.926 115.744,234.970 117.201,241.273 118.042 C 247.586 118.885,247.026 130.476,240.672 130.476 C 239.632 130.476,238.245 131.210,237.589 132.107 C 236.546 133.533,236.191 133.567,234.758 132.378 C 233.294 131.162,232.806 131.369,230.185 134.318 C 228.571 136.134,225.098 138.540,222.467 139.665 C 217.987 141.581,215.623 143.810,218.071 143.810 C 219.386 143.810,227.502 139.384,229.599 137.524 C 230.920 136.352,231.095 136.447,231.028 138.303 C 230.889 142.191,233.885 141.147,239.978 135.184 C 244.464 130.795,246.158 129.653,246.754 130.618 C 248.057 132.730,254.437 132.538,253.304 130.421 C 252.808 129.495,251.862 128.502,251.201 128.215 C 250.364 127.851,250.635 127.222,252.093 126.144 C 253.244 125.293,255.131 123.776,256.286 122.774 C 257.441 121.772,259.192 120.952,260.176 120.952 C 262.481 120.952,263.578 118.139,261.808 116.767 C 261.061 116.188,259.696 114.536,258.774 113.095 C 256.416 109.409,249.524 110.053,249.524 113.960 C 249.524 115.195,249.263 115.255,248.095 114.286 C 247.310 113.634,246.667 112.106,246.667 110.892 C 246.667 108.282,245.614 107.488,241.802 107.224 C 239.740 107.082,239.119 107.384,239.490 108.351 M214.286 108.978 C 214.286 109.861,215.100 110.476,216.270 110.476 C 218.591 110.476,218.263 108.251,215.873 107.787 C 214.934 107.605,214.286 108.091,214.286 108.978 M177.778 110.159 C 176.618 111.319,177.122 113.333,178.571 113.333 C 179.365 113.333,180.000 112.487,180.000 111.429 C 180.000 109.531,178.985 108.951,177.778 110.159 M188.378 110.663 C 191.400 113.686,182.916 120.576,178.313 118.838 C 174.649 117.455,172.831 118.728,171.979 123.275 C 171.246 127.181,167.762 129.698,162.980 129.774 C 161.079 129.805,159.007 130.226,158.375 130.711 C 157.743 131.196,156.779 131.316,156.232 130.978 C 155.685 130.640,155.238 130.999,155.238 131.775 C 155.238 132.552,154.170 134.456,152.865 136.007 C 150.301 139.055,151.815 142.852,154.517 140.150 C 155.123 139.544,156.413 139.048,157.384 139.048 C 158.355 139.048,160.725 137.976,162.653 136.667 C 167.246 133.546,168.286 133.661,169.087 137.381 C 169.453 139.083,170.355 141.655,171.092 143.095 C 172.266 145.393,172.251 145.714,170.977 145.714 C 170.035 145.714,169.524 146.615,169.524 148.275 L 169.524 150.835 167.562 148.730 C 165.398 146.406,163.810 146.750,163.810 149.543 C 163.810 150.539,162.945 152.160,161.889 153.144 C 160.783 154.174,160.076 155.890,160.222 157.189 C 160.541 160.019,157.729 160.826,155.279 158.609 C 154.092 157.534,152.755 157.252,150.974 157.699 C 149.553 158.055,148.790 158.612,149.279 158.935 C 150.880 159.996,151.375 163.810,149.911 163.810 C 149.174 163.810,147.714 164.667,146.667 165.714 C 145.619 166.762,144.697 167.298,144.617 166.905 C 144.537 166.512,144.404 165.762,144.321 165.238 C 144.238 164.714,142.589 162.595,140.657 160.528 C 136.544 156.130,136.440 155.693,139.286 154.752 C 141.411 154.050,141.412 154.041,139.408 153.638 C 137.819 153.319,137.260 152.300,136.788 148.855 C 136.458 146.448,135.751 143.951,135.216 143.307 C 134.583 142.545,134.560 141.308,135.148 139.761 C 135.763 138.144,135.708 137.042,134.978 136.311 C 134.182 135.515,134.576 135.238,136.506 135.238 C 137.950 135.238,139.353 134.597,139.660 133.797 C 140.477 131.669,138.238 129.524,135.199 129.524 C 133.191 129.524,132.037 128.717,130.507 126.240 C 128.203 122.513,122.518 119.935,123.571 123.095 C 123.702 123.488,123.339 123.810,122.763 123.810 C 122.187 123.810,120.227 124.516,118.406 125.380 C 115.330 126.840,114.862 126.840,111.801 125.380 C 105.179 122.223,102.122 123.699,101.210 130.495 C 100.542 135.472,95.511 139.466,91.723 138.026 C 88.432 136.775,87.921 136.928,90.056 138.528 C 91.753 139.799,91.604 139.866,88.238 139.340 C 85.633 138.933,84.331 139.153,83.743 140.098 C 83.053 141.208,82.580 141.221,80.898 140.178 C 79.070 139.044,78.937 139.104,79.480 140.814 C 79.896 142.125,79.195 143.708,77.182 146.000 C 73.921 149.715,73.687 150.698,75.673 152.347 C 76.773 153.259,77.509 153.185,79.219 151.987 C 80.405 151.156,82.183 150.476,83.169 150.476 C 84.155 150.476,86.867 149.190,89.195 147.619 C 94.229 144.222,97.143 143.895,97.143 146.728 C 97.143 147.810,98.074 150.858,99.212 153.503 C 101.116 157.931,101.154 158.383,99.688 159.203 C 98.761 159.722,98.095 161.269,98.095 162.904 C 98.095 166.093,96.667 166.686,95.915 163.810 C 95.641 162.762,94.733 161.905,93.899 161.905 C 93.064 161.905,92.381 161.476,92.381 160.952 C 92.381 160.429,93.024 160.000,93.810 160.000 C 95.327 160.000,95.574 159.127,94.700 156.850 C 94.380 156.015,93.418 155.643,92.319 155.931 C 90.503 156.406,89.702 158.095,91.294 158.095 C 92.434 158.095,88.770 173.098,86.952 175.872 C 85.346 178.322,82.888 178.198,79.826 175.512 C 78.739 174.559,77.286 174.312,75.313 174.745 C 72.572 175.347,70.257 177.143,72.221 177.143 C 72.719 177.143,73.393 178.202,73.718 179.496 C 74.491 182.580,77.699 184.372,79.608 182.788 C 80.373 182.153,81.263 181.898,81.587 182.222 C 82.497 183.132,80.240 185.384,77.123 186.675 C 75.576 187.316,74.547 188.224,74.837 188.693 C 75.127 189.162,74.045 189.810,72.432 190.133 C 70.415 190.536,69.325 191.414,68.941 192.945 C 68.633 194.168,67.567 195.429,66.571 195.745 C 65.575 196.061,64.309 197.161,63.759 198.190 C 63.208 199.219,62.171 199.940,61.454 199.792 C 60.737 199.645,59.136 201.024,57.897 202.857 C 55.380 206.580,51.361 208.889,47.396 208.889 C 44.279 208.889,44.177 209.182,46.566 211.276 C 50.934 215.104,48.527 224.019,43.889 221.193 C 42.155 220.137,41.874 220.269,41.341 222.390 C 40.605 225.322,41.659 231.429,42.900 231.429 C 43.400 231.429,43.810 231.910,43.810 232.498 C 43.810 233.236,43.368 233.200,42.381 232.381 C 40.460 230.787,38.095 232.706,38.095 235.861 C 38.095 238.481,40.366 239.767,42.243 238.210 C 43.748 236.961,44.762 237.746,44.762 240.159 C 44.762 242.095,43.229 242.545,42.641 240.781 C 41.757 238.128,34.286 247.265,34.286 250.999 C 34.286 252.045,38.563 250.208,41.711 247.812 C 45.013 245.297,47.279 245.867,46.109 248.917 C 45.684 250.023,44.886 250.342,43.577 249.926 C 42.280 249.515,41.882 249.668,42.337 250.406 C 42.706 251.003,42.117 253.002,41.028 254.848 C 38.439 259.236,40.686 263.331,43.333 259.048 C 44.216 257.620,45.714 257.901,45.714 259.494 C 45.714 260.319,46.276 260.677,47.083 260.367 C 47.835 260.079,48.235 259.278,47.970 258.589 C 47.706 257.900,47.916 257.072,48.438 256.749 C 49.696 255.972,50.695 259.275,49.860 261.451 C 49.469 262.468,49.576 262.937,50.122 262.600 C 52.571 261.086,53.509 263.584,52.839 269.838 C 51.930 278.334,50.802 279.825,46.797 277.827 C 44.150 276.506,43.456 276.488,41.174 277.678 C 39.743 278.425,39.107 279.039,39.762 279.042 C 40.417 279.045,40.952 279.675,40.952 280.443 C 40.952 282.585,44.572 284.200,46.251 282.807 C 47.346 281.898,47.619 281.984,47.619 283.237 C 47.619 284.098,46.548 285.291,45.238 285.888 C 43.929 286.484,42.857 287.546,42.857 288.248 C 42.857 288.950,42.201 289.524,41.399 289.524 C 40.597 289.524,39.677 290.274,39.354 291.190 C 38.543 293.499,34.150 298.124,33.280 297.586 C 32.888 297.344,32.122 298.421,31.578 299.981 C 30.532 302.982,25.101 306.978,23.095 306.222 C 22.440 305.976,21.905 306.189,21.905 306.697 C 21.905 307.204,22.344 307.619,22.881 307.619 C 24.301 307.619,25.862 312.319,25.169 314.505 C 24.735 315.871,23.957 316.259,22.287 315.939 C 18.914 315.295,19.638 321.497,23.238 324.087 C 23.870 324.542,23.581 324.731,22.507 324.564 C 20.213 324.205,18.512 326.820,19.519 329.156 C 20.383 331.161,20.186 334.265,19.103 335.714 C 15.977 339.898,17.614 341.084,21.731 337.619 C 23.287 336.310,24.927 335.256,25.376 335.277 C 26.375 335.325,30.476 343.901,30.476 345.943 C 30.476 347.161,31.100 347.273,34.048 346.589 C 39.422 345.341,39.566 345.410,40.531 349.697 C 41.629 354.570,43.810 355.755,43.810 351.478 C 43.810 349.650,43.231 348.290,42.301 347.933 C 40.401 347.204,42.327 345.754,45.238 345.723 C 46.286 345.712,48.214 345.146,49.524 344.466 C 50.833 343.785,53.694 343.401,55.882 343.612 C 59.041 343.917,60.211 343.585,61.570 341.998 C 64.215 338.908,66.151 339.456,66.431 343.372 C 66.563 345.225,67.417 347.879,68.329 349.271 C 69.241 350.662,69.862 352.535,69.710 353.433 C 69.558 354.332,70.406 355.748,71.595 356.581 C 74.254 358.443,74.921 358.479,74.921 356.757 C 74.921 356.022,74.406 355.617,73.776 355.859 C 73.146 356.101,72.408 355.445,72.135 354.401 C 71.842 353.281,72.181 352.296,72.962 351.996 C 73.690 351.717,74.286 350.643,74.286 349.610 C 74.286 346.859,75.944 346.286,78.693 348.088 C 80.847 349.499,80.961 349.848,79.732 351.265 C 78.398 352.803,76.671 357.835,76.983 359.274 C 77.066 359.660,76.172 359.874,74.996 359.750 C 73.417 359.583,72.857 360.022,72.857 361.429 C 72.857 362.790,73.591 363.418,75.431 363.630 C 77.097 363.823,78.228 364.662,78.639 366.011 C 78.987 367.157,79.954 368.870,80.787 369.818 C 81.924 371.111,82.049 371.940,81.288 373.146 C 80.261 374.774,85.115 380.952,87.422 380.952 C 88.239 380.952,89.524 383.067,89.524 384.412 C 89.524 384.658,88.024 385.486,86.190 386.252 C 81.612 388.165,81.648 391.702,86.304 397.291 C 92.097 404.246,94.022 404.511,99.974 399.177 C 104.497 395.125,104.462 392.882,99.887 393.553 C 96.964 393.982,95.857 391.770,98.571 390.922 C 103.031 389.529,103.247 389.401,102.203 388.755 C 100.936 387.973,103.351 384.551,105.843 383.597 C 107.472 382.973,111.429 386.637,111.429 388.769 C 111.429 389.644,111.691 389.643,112.571 388.762 C 114.275 387.058,115.985 387.377,116.667 389.526 C 117.131 390.987,117.811 391.297,119.580 390.853 C 121.200 390.446,122.062 390.729,122.474 391.804 C 123.227 393.767,125.714 393.799,125.714 391.846 C 125.714 386.956,137.526 392.778,138.391 398.095 C 138.774 400.447,138.788 400.450,139.492 398.365 C 139.885 397.204,140.974 396.010,141.913 395.712 C 142.852 395.414,143.877 394.146,144.191 392.896 C 144.695 390.886,145.259 390.641,149.047 390.787 C 155.164 391.023,155.002 393.824,148.666 397.382 C 143.157 400.476,141.309 407.200,144.979 410.796 C 146.380 412.169,146.523 412.835,145.646 413.892 C 144.844 414.858,144.830 415.238,145.598 415.238 C 146.186 415.238,146.667 415.909,146.667 416.729 C 146.667 417.549,147.195 419.157,147.841 420.301 C 148.487 421.445,149.023 423.452,149.032 424.762 C 149.044 426.647,149.594 427.206,151.667 427.444 C 154.822 427.807,154.995 428.820,152.218 430.664 C 149.797 432.272,150.619 434.834,153.109 433.440 C 154.014 432.933,155.576 432.918,156.855 433.405 C 158.061 433.863,159.067 433.928,159.091 433.548 C 159.114 433.168,159.722 434.143,160.442 435.714 L 161.750 438.571 161.827 435.952 C 161.889 433.855,162.354 433.333,164.157 433.333 C 165.396 433.333,167.499 432.476,168.831 431.429 C 171.458 429.362,173.333 428.966,173.333 430.476 C 173.333 431.922,176.179 431.615,176.758 430.107 C 177.036 429.380,179.273 428.281,181.728 427.665 C 184.182 427.049,187.476 426.226,189.048 425.835 C 190.924 425.368,191.816 424.602,191.645 423.602 C 191.362 421.943,198.560 422.212,200.429 423.930 C 200.926 424.387,201.998 424.762,202.810 424.762 C 203.961 424.763,204.286 425.897,204.286 429.921 C 204.286 437.543,206.371 438.797,207.316 431.745 C 207.737 428.608,208.161 428.073,210.332 427.937 C 211.721 427.850,214.749 427.535,217.062 427.236 C 219.729 426.892,221.818 427.124,222.776 427.871 C 224.102 428.904,224.131 428.849,223.013 427.423 C 221.660 425.694,222.223 423.820,224.104 423.794 C 224.728 423.786,226.689 422.500,228.462 420.937 C 232.751 417.157,235.073 417.107,232.303 420.854 C 228.618 425.839,232.988 433.150,237.619 429.747 C 240.666 427.509,240.900 424.950,238.394 421.266 C 237.031 419.260,235.817 416.762,235.698 415.714 C 235.388 412.991,235.379 412.983,233.851 414.251 C 233.088 414.884,231.927 415.070,231.270 414.664 C 230.469 414.169,230.990 413.682,232.853 413.183 C 234.895 412.638,236.094 412.860,237.380 414.024 C 239.026 415.513,239.089 415.498,238.451 413.756 C 237.786 411.943,237.814 411.941,239.803 413.687 C 240.920 414.667,242.493 415.216,243.298 414.907 C 244.309 414.519,244.762 414.925,244.762 416.220 C 244.762 419.771,247.887 421.688,253.457 421.553 L 258.571 421.429 258.862 416.905 C 259.166 412.165,260.562 410.863,261.416 414.524 C 262.647 419.804,260.516 430.185,258.538 428.544 C 256.882 427.169,250.994 429.635,249.567 432.300 C 248.857 433.627,247.568 434.286,245.681 434.286 C 244.128 434.286,242.857 434.760,242.857 435.340 C 242.857 435.920,242.256 436.164,241.521 435.882 C 239.547 435.124,236.880 437.467,237.304 439.587 C 237.563 440.885,238.444 441.417,240.290 441.389 C 242.270 441.359,242.769 441.708,242.336 442.818 C 241.656 444.561,241.647 444.634,241.792 447.381 C 241.982 450.988,243.573 449.776,245.241 444.753 C 246.897 439.768,249.513 437.472,252.217 438.631 C 257.169 440.755,263.849 440.085,265.445 437.305 C 266.636 435.229,267.758 434.553,270.160 434.463 C 273.043 434.355,273.215 434.501,272.169 436.177 C 270.742 438.460,271.602 439.423,274.301 438.567 C 275.740 438.110,276.221 437.363,275.891 436.100 C 275.630 435.103,275.834 434.030,276.344 433.715 C 276.854 433.400,277.506 434.042,277.794 435.142 C 278.374 437.359,280.952 437.911,280.952 435.818 C 280.952 434.173,287.790 433.173,288.795 434.671 C 289.670 435.976,289.628 436.235,290.001 427.250 C 290.186 422.776,290.772 419.453,291.448 419.035 C 292.263 418.532,292.287 418.149,291.530 417.682 C 290.951 417.324,290.476 417.438,290.476 417.936 C 290.476 418.434,289.433 419.103,288.159 419.423 C 286.884 419.743,285.562 420.883,285.221 421.957 C 284.729 423.508,284.327 423.681,283.266 422.801 C 280.805 420.759,277.297 422.515,276.965 425.955 C 276.611 429.625,275.233 429.788,273.539 426.363 C 272.546 424.356,272.544 423.522,273.530 421.945 C 274.523 420.354,274.505 419.617,273.433 417.900 C 272.500 416.407,272.434 415.697,273.204 415.440 C 273.799 415.242,274.288 414.579,274.292 413.968 C 274.295 413.357,274.962 411.583,275.774 410.026 C 277.118 407.448,277.111 407.094,275.694 406.058 C 274.258 405.008,274.265 404.726,275.782 402.411 C 276.992 400.565,277.145 399.622,276.363 398.839 C 275.581 398.057,275.127 398.259,274.645 399.603 C 273.441 402.960,272.307 403.837,270.453 402.845 C 269.237 402.194,268.584 402.270,268.247 403.103 C 267.909 403.941,267.748 403.891,267.694 402.932 C 267.653 402.188,266.957 400.847,266.149 399.954 C 262.925 396.392,263.418 393.390,267.127 393.991 C 269.156 394.321,271.022 394.066,271.897 393.340 C 272.936 392.477,273.676 392.432,274.573 393.177 C 275.255 393.743,276.776 393.954,277.952 393.647 C 279.422 393.262,280.823 393.774,282.427 395.281 C 285.355 398.032,285.503 396.652,282.619 393.479 C 281.440 392.182,280.954 391.394,281.537 391.727 C 282.713 392.399,289.689 389.301,293.224 386.538 C 297.275 383.370,299.716 384.169,296.751 387.692 C 289.892 395.844,297.834 406.194,304.830 398.221 C 307.533 395.140,307.125 391.818,303.561 387.898 C 302.159 386.357,301.803 385.034,302.222 382.935 C 302.911 379.491,301.463 378.290,299.148 380.385 C 297.399 381.968,296.190 381.552,296.190 379.365 C 296.190 376.913,302.119 377.871,304.538 380.714 C 306.485 383.001,306.630 383.051,305.687 381.109 C 304.260 378.168,304.982 377.612,307.138 379.994 C 308.089 381.045,309.918 381.905,311.202 381.905 C 312.928 381.905,313.388 382.293,312.966 383.394 C 311.574 387.021,317.252 393.079,320.945 391.907 C 321.949 391.588,323.754 391.952,324.957 392.714 C 328.082 394.697,331.388 393.235,331.563 389.793 C 331.638 388.335,331.745 386.071,331.801 384.762 C 331.864 383.326,332.472 382.381,333.333 382.381 C 335.222 382.381,335.486 392.082,333.617 392.799 C 332.172 393.354,331.934 396.190,333.333 396.190 C 333.857 396.190,334.286 396.833,334.286 397.619 C 334.286 398.405,333.643 399.048,332.857 399.048 C 331.946 399.048,331.429 399.963,331.429 401.576 C 331.429 403.984,331.344 404.028,329.650 402.495 C 327.086 400.175,320.376 401.807,317.161 405.534 C 315.205 407.801,314.322 408.180,312.381 407.586 C 308.666 406.448,307.619 406.555,307.619 408.071 C 307.619 409.103,306.909 409.334,304.947 408.942 C 301.578 408.268,299.544 410.435,300.388 413.797 C 300.887 415.784,301.556 416.190,304.326 416.190 C 307.643 416.190,307.654 416.204,306.143 418.510 C 304.586 420.886,304.555 426.190,306.097 426.190 C 306.570 426.190,307.782 424.476,308.790 422.381 C 309.799 420.286,310.948 417.929,311.343 417.143 C 311.737 416.357,312.990 415.291,314.126 414.774 C 315.261 414.257,316.190 413.516,316.190 413.128 C 316.190 412.740,317.262 412.910,318.571 413.507 C 319.881 414.103,320.952 414.941,320.952 415.367 C 320.952 415.794,322.186 415.896,323.694 415.595 C 325.253 415.283,326.715 415.498,327.084 416.095 C 328.715 418.735,335.225 417.274,337.269 413.810 C 339.109 410.690,340.952 409.433,340.952 411.297 C 340.952 411.748,341.974 411.922,343.222 411.683 C 345.817 411.187,347.551 413.054,345.298 413.918 C 342.260 415.084,343.533 418.110,346.905 417.736 C 349.570 417.441,350.005 417.021,350.037 414.716 C 350.057 413.244,350.593 411.866,351.227 411.654 C 351.932 411.419,352.381 412.227,352.381 413.730 C 352.381 416.455,355.467 417.259,356.857 414.896 C 357.945 413.048,366.667 412.186,366.667 413.927 C 366.667 414.648,367.124 415.238,367.683 415.238 C 368.274 415.238,368.441 414.422,368.081 413.288 C 367.740 412.215,367.975 410.718,368.603 409.962 C 369.231 409.206,369.861 406.762,370.005 404.532 C 370.148 402.301,370.533 399.619,370.859 398.571 C 371.186 397.524,371.050 396.048,370.557 395.292 C 369.353 393.447,364.779 395.442,364.079 398.118 C 363.479 400.414,363.030 400.451,360.760 398.398 C 358.041 395.937,354.067 397.696,353.243 401.725 C 352.424 405.725,351.698 406.414,350.099 404.705 C 348.058 402.526,347.381 397.174,349.064 396.529 C 350.701 395.901,350.905 393.057,349.502 390.435 C 348.743 389.017,348.953 388.190,350.454 386.688 C 351.514 385.629,352.381 384.185,352.381 383.479 C 352.381 382.773,353.268 381.173,354.353 379.923 L 356.324 377.650 354.381 376.076 L 352.438 374.503 354.790 371.964 C 356.084 370.568,357.143 368.805,357.143 368.046 C 357.143 365.618,354.385 366.569,352.857 369.524 C 351.373 372.394,349.212 373.236,348.071 371.390 C 347.734 370.845,346.638 370.659,345.634 370.978 C 344.231 371.423,343.810 371.094,343.810 369.554 C 343.810 368.453,343.140 366.530,342.322 365.281 C 341.503 364.032,340.911 362.440,341.006 361.743 C 341.432 358.604,340.840 357.143,339.142 357.143 C 334.592 357.143,332.080 347.114,336.474 346.489 C 337.627 346.325,338.571 345.690,338.571 345.079 C 338.571 343.237,339.875 342.521,341.211 343.629 C 341.903 344.203,343.306 344.688,344.330 344.706 C 345.353 344.724,347.760 345.001,349.678 345.321 C 352.675 345.821,353.383 345.572,354.710 343.547 C 355.667 342.086,357.153 341.190,358.620 341.190 C 361.418 341.190,362.695 342.733,360.844 343.876 C 359.872 344.477,359.815 344.957,360.620 345.763 C 362.126 347.268,365.839 345.243,365.101 343.319 C 364.762 342.437,365.123 341.905,366.059 341.905 C 366.938 341.905,367.352 342.445,367.058 343.210 C 366.399 344.929,369.257 345.999,370.213 344.391 C 371.445 342.317,378.075 341.686,378.193 343.631 C 378.309 345.546,379.955 339.781,380.453 335.714 C 380.646 334.143,380.944 332.016,381.116 330.989 C 381.553 328.379,378.579 327.985,376.528 330.380 C 375.331 331.778,374.544 332.038,373.680 331.321 C 371.373 329.407,368.257 330.762,367.410 334.048 C 366.971 335.750,366.208 337.143,365.714 337.143 C 364.057 337.143,362.964 331.068,364.410 329.895 C 366.033 328.579,366.085 326.466,364.532 324.913 C 363.590 323.971,363.593 323.580,364.546 322.990 C 366.872 321.553,369.576 315.020,368.421 313.628 C 367.618 312.661,367.740 311.921,368.916 310.621 C 369.774 309.673,370.476 308.396,370.476 307.782 C 370.476 305.853,368.115 306.570,367.096 308.810 C 366.560 309.988,365.494 310.785,364.727 310.580 C 363.961 310.375,362.583 310.241,361.667 310.282 C 360.525 310.334,360.000 309.644,360.000 308.092 C 360.000 306.846,359.571 305.562,359.048 305.238 C 358.524 304.914,358.095 303.768,358.095 302.691 C 358.095 295.033,343.943 291.978,343.767 299.599 C 343.738 300.866,343.156 300.351,341.875 297.925 C 340.049 294.468,337.119 292.647,335.247 293.804 C 334.718 294.131,334.272 293.623,334.255 292.675 C 334.239 291.728,333.610 290.139,332.857 289.145 C 332.105 288.152,331.732 286.946,332.029 286.466 C 332.325 285.987,331.855 284.807,330.984 283.844 C 328.144 280.706,331.272 280.618,334.823 283.736 C 336.659 285.348,338.654 286.667,339.256 286.667 C 340.766 286.667,348.438 290.443,349.099 291.511 C 350.094 293.122,351.428 292.398,351.443 290.238 C 351.451 289.060,352.027 286.460,352.723 284.461 C 354.568 279.161,352.953 273.946,348.330 270.285 C 344.343 267.127,341.905 267.309,341.905 270.764 C 341.905 272.002,341.583 273.337,341.190 273.730 C 340.798 274.123,340.464 276.313,340.450 278.598 C 340.419 283.502,340.131 283.915,337.269 283.166 C 335.622 282.735,335.220 282.106,335.607 280.566 C 336.846 275.628,331.980 268.042,329.104 270.429 C 327.336 271.897,322.857 269.772,322.857 267.466 C 322.857 265.445,321.833 265.215,320.184 266.864 C 319.286 267.762,318.716 267.695,317.580 266.559 C 315.830 264.810,317.479 260.791,321.165 257.825 L 323.333 256.081 320.238 256.687 C 318.283 257.071,317.143 256.916,317.143 256.266 C 317.143 255.701,317.983 255.238,319.011 255.238 C 320.038 255.238,321.770 254.281,322.860 253.111 L 324.842 250.983 322.183 250.263 C 320.252 249.739,319.223 249.946,318.425 251.018 C 317.712 251.976,317.106 252.140,316.702 251.486 C 316.359 250.930,314.389 250.476,312.325 250.476 C 308.307 250.476,306.895 247.699,310.023 245.949 C 311.933 244.880,308.272 241.274,304.794 240.798 C 303.331 240.598,301.894 239.398,300.985 237.619 C 300.183 236.048,298.181 232.356,296.536 229.416 L 293.546 224.071 295.438 221.083 C 297.099 218.461,297.140 218.095,295.778 218.095 C 294.924 218.095,293.979 218.738,293.678 219.524 C 292.574 222.401,282.857 211.701,282.857 207.607 C 282.857 205.119,279.105 197.143,277.934 197.143 C 277.437 197.143,277.295 196.714,277.619 196.190 C 277.943 195.667,279.014 195.238,280.000 195.238 C 280.986 195.238,282.075 194.781,282.420 194.222 C 283.677 192.189,281.926 192.212,278.592 194.273 C 274.285 196.935,270.949 196.298,270.030 192.637 C 269.197 189.320,268.036 188.604,263.460 188.586 C 260.271 188.573,259.843 188.321,260.267 186.699 C 260.540 185.656,260.310 184.918,259.749 185.033 C 259.194 185.146,258.459 184.167,258.116 182.857 C 257.719 181.342,256.919 180.576,255.916 180.750 C 254.860 180.933,254.147 180.147,253.757 178.369 C 252.627 173.224,252.491 173.073,249.509 173.670 C 246.967 174.178,246.667 173.989,246.667 171.881 C 246.667 170.313,246.134 169.524,245.075 169.524 C 244.200 169.524,242.649 168.774,241.628 167.857 C 239.852 166.261,239.713 166.281,238.342 168.333 C 237.346 169.824,235.966 170.476,233.810 170.476 C 231.653 170.476,230.273 171.129,229.277 172.619 C 227.941 174.619,227.727 174.659,226.066 173.209 C 224.858 172.155,223.674 171.904,222.381 172.428 C 219.024 173.788,215.581 173.387,213.810 171.429 C 211.724 169.125,210.476 168.988,210.476 171.063 C 210.476 172.195,209.909 172.451,208.333 172.029 C 207.155 171.713,205.655 171.449,205.000 171.442 C 203.203 171.422,203.555 169.798,206.200 165.905 C 207.515 163.970,208.219 162.264,207.765 162.112 C 206.827 161.799,209.620 155.317,210.714 155.269 C 211.107 155.252,211.429 156.524,211.429 158.095 C 211.429 162.731,215.391 162.083,217.649 157.077 C 218.679 154.792,220.571 152.594,222.260 151.721 C 225.793 149.894,228.510 146.662,227.884 145.031 C 227.105 143.001,224.007 143.656,222.187 146.235 C 218.668 151.224,217.544 152.186,214.624 152.709 C 212.004 153.179,211.691 153.013,212.116 151.385 C 212.648 149.354,208.325 148.564,207.143 150.476 C 206.215 151.977,204.761 151.586,205.370 150.000 C 205.687 149.174,205.373 148.542,204.626 148.503 C 203.915 148.465,202.155 147.013,200.715 145.277 L 198.096 142.121 200.953 141.702 C 202.524 141.471,203.810 141.637,203.810 142.070 C 203.810 142.503,204.448 142.857,205.227 142.857 C 206.157 142.857,206.578 142.038,206.448 140.476 C 206.321 138.934,205.673 138.095,204.610 138.095 C 201.678 138.095,201.833 136.418,204.997 133.891 C 206.701 132.530,208.967 130.563,210.033 129.518 C 211.100 128.474,212.897 127.619,214.027 127.619 C 217.802 127.619,219.542 123.670,216.684 121.588 C 215.365 120.627,214.286 119.300,214.286 118.640 C 214.286 114.923,205.401 112.649,202.857 115.714 C 200.654 118.369,197.143 117.526,197.143 114.342 C 197.143 112.801,196.614 111.214,195.968 110.815 C 194.122 109.674,187.251 109.537,188.378 110.663 M108.098 114.277 C 107.387 116.519,108.169 118.095,109.992 118.095 C 111.477 118.095,112.809 114.796,111.910 113.342 C 110.916 111.733,108.736 112.268,108.098 114.277 M168.779 115.385 C 169.013 116.090,169.969 116.815,170.903 116.996 C 171.989 117.206,172.447 116.863,172.174 116.043 C 171.939 115.339,170.983 114.614,170.049 114.433 C 168.964 114.222,168.506 114.566,168.779 115.385 M97.485 120.470 C 97.821 121.345,98.095 122.240,98.095 122.459 C 98.095 122.678,98.984 122.857,100.070 122.857 C 102.875 122.857,102.052 119.615,99.142 119.202 C 97.354 118.948,97.004 119.216,97.485 120.470 M134.881 122.665 C 134.006 124.080,135.964 126.005,137.630 125.366 C 138.957 124.856,139.042 124.474,138.086 123.322 C 136.783 121.752,135.596 121.508,134.881 122.665 M255.272 125.652 C 253.913 128.191,254.017 128.571,256.074 128.571 C 258.219 128.571,260.410 126.196,259.550 124.804 C 258.566 123.212,256.341 123.653,255.272 125.652 M165.091 126.232 C 164.780 127.040,164.765 127.940,165.057 128.232 C 165.891 129.066,167.619 127.651,167.619 126.134 C 167.619 124.307,165.802 124.377,165.091 126.232 M208.572 133.808 C 206.968 136.805,207.871 137.756,211.209 136.587 C 212.807 136.027,213.927 134.857,214.114 133.552 C 214.562 130.422,210.278 130.620,208.572 133.808 M92.448 134.160 C 91.418 136.085,91.957 137.143,93.968 137.143 C 94.688 137.143,95.238 136.111,95.238 134.762 C 95.238 131.954,93.795 131.643,92.448 134.160 M50.109 139.551 C 47.549 142.111,49.551 145.189,53.995 145.523 C 58.806 145.886,60.801 143.943,59.208 140.448 C 57.941 137.668,52.526 137.134,50.109 139.551 M163.922 143.720 C 162.893 144.371,163.065 144.700,164.708 145.221 C 167.069 145.970,168.123 145.396,167.182 143.873 C 166.426 142.650,165.667 142.614,163.922 143.720 M278.055 153.408 C 277.473 154.496,277.230 155.996,277.516 156.741 C 278.105 158.276,275.681 158.630,274.762 157.143 C 273.404 154.945,269.524 157.846,269.524 161.059 C 269.524 163.554,273.367 168.663,274.648 167.871 C 275.204 167.527,276.911 167.341,278.441 167.458 C 283.451 167.840,286.400 162.820,283.810 158.320 C 283.286 157.411,282.440 155.488,281.929 154.048 C 280.821 150.924,279.501 150.706,278.055 153.408 M250.805 156.708 C 250.495 157.516,250.498 158.434,250.812 158.748 C 251.490 159.427,254.286 157.274,254.286 156.074 C 254.286 154.637,251.398 155.163,250.805 156.708 M68.571 157.143 C 68.571 157.667,69.214 158.095,70.000 158.095 C 70.786 158.095,71.429 157.667,71.429 157.143 C 71.429 156.619,70.786 156.190,70.000 156.190 C 69.214 156.190,68.571 156.619,68.571 157.143 M142.381 159.048 C 142.705 159.571,143.587 160.000,144.342 160.000 C 145.097 160.000,145.714 159.571,145.714 159.048 C 145.714 158.524,144.832 158.095,143.753 158.095 C 142.675 158.095,142.057 158.524,142.381 159.048 M111.429 162.704 C 111.429 163.751,107.021 165.751,106.300 165.030 C 105.610 164.340,108.617 161.976,110.238 161.935 C 110.893 161.918,111.429 162.265,111.429 162.704 M156.120 165.323 C 154.434 167.355,153.124 166.932,154.300 164.735 C 154.869 163.673,155.762 163.068,156.285 163.391 C 156.898 163.770,156.839 164.456,156.120 165.323 M52.381 167.948 C 52.381 170.154,56.066 172.886,57.333 171.619 C 58.162 170.790,58.004 170.049,56.687 168.594 C 54.697 166.395,52.381 166.048,52.381 167.948 M217.608 169.541 C 216.737 170.951,217.564 171.672,219.598 171.275 C 221.085 170.984,221.101 170.830,219.757 169.716 C 218.686 168.828,218.080 168.779,217.608 169.541 M282.381 171.429 C 282.001 172.044,282.118 172.975,282.642 173.499 C 283.277 174.134,283.825 174.079,284.286 173.333 C 284.666 172.718,284.548 171.786,284.025 171.263 C 283.390 170.628,282.842 170.683,282.381 171.429 M265.952 174.496 C 262.996 175.921,263.264 177.332,266.420 176.968 C 267.995 176.786,269.157 176.005,269.347 175.000 C 269.705 173.115,269.025 173.014,265.952 174.496 M63.440 176.601 C 64.118 178.369,67.965 178.665,67.386 176.905 C 67.170 176.250,66.065 175.578,64.930 175.411 C 63.386 175.183,63.011 175.483,63.440 176.601 M270.684 185.861 C 271.178 187.344,273.309 187.604,273.384 186.190 C 273.411 185.667,272.719 185.090,271.845 184.909 C 270.852 184.703,270.417 185.060,270.684 185.861 M58.286 194.476 C 55.721 197.041,57.212 197.794,61.572 196.136 C 63.693 195.330,63.943 194.953,62.825 194.246 C 60.933 193.049,59.647 193.115,58.286 194.476 M46.134 200.827 C 46.850 201.544,47.906 201.840,48.480 201.485 C 50.301 200.360,49.609 199.244,47.178 199.386 C 45.194 199.503,45.033 199.725,46.134 200.827 M41.034 205.714 C 41.005 207.024,41.397 208.738,41.905 209.524 C 43.116 211.398,43.116 208.057,41.905 205.238 C 41.155 203.494,41.082 203.534,41.034 205.714 M285.933 210.655 C 286.521 212.421,288.571 212.714,288.571 211.032 C 288.571 210.202,287.893 209.524,287.063 209.524 C 286.234 209.524,285.725 210.033,285.933 210.655 M38.336 213.473 C 36.854 214.956,38.522 217.143,41.135 217.143 C 42.511 217.143,42.911 216.593,42.685 215.010 C 42.339 212.580,40.041 211.769,38.336 213.473 M302.766 216.777 C 301.661 218.108,301.731 218.268,303.285 217.967 C 304.272 217.776,305.259 217.083,305.477 216.429 C 306.042 214.730,304.277 214.956,302.766 216.777 M21.123 251.483 C 17.723 252.846,18.637 256.580,22.462 256.953 C 26.228 257.321,28.192 255.231,26.699 252.442 C 25.556 250.305,24.509 250.125,21.123 251.483 M59.086 263.288 C 58.451 264.052,58.208 265.649,58.542 266.859 C 59.098 268.871,59.038 268.913,57.801 267.381 C 57.062 266.464,55.968 265.714,55.371 265.714 C 52.799 265.714,55.834 261.994,58.450 261.941 C 59.902 261.911,60.020 262.162,59.086 263.288 M23.810 273.693 C 23.810 275.492,26.346 277.453,27.639 276.654 C 28.363 276.207,28.179 275.431,27.057 274.191 C 25.128 272.059,23.810 271.857,23.810 273.693 M33.512 279.107 C 33.741 279.795,34.491 280.545,35.179 280.774 C 35.893 281.012,36.250 280.655,36.012 279.940 C 35.783 279.253,35.033 278.503,34.345 278.274 C 33.631 278.036,33.274 278.393,33.512 279.107 M352.546 288.756 C 352.717 289.964,353.464 290.952,354.206 290.952 C 356.365 290.952,356.370 289.142,354.215 287.796 C 352.408 286.667,352.262 286.751,352.546 288.756 M31.111 293.968 C 28.949 296.130,31.205 296.805,33.866 294.792 C 35.682 293.418,35.680 293.393,33.730 293.364 C 32.639 293.347,31.460 293.619,31.111 293.968 M357.714 294.857 C 357.366 295.766,357.509 296.938,358.033 297.461 C 358.668 298.096,359.196 297.863,359.619 296.762 C 359.968 295.853,359.824 294.681,359.301 294.158 C 358.666 293.523,358.137 293.756,357.714 294.857 M21.714 300.190 C 22.603 301.079,23.111 301.079,24.000 300.190 C 24.889 299.302,24.635 299.048,22.857 299.048 C 21.079 299.048,20.825 299.302,21.714 300.190 M18.494 304.126 C 18.798 305.085,19.048 306.264,19.048 306.745 C 19.048 307.226,19.476 307.619,20.000 307.619 C 21.379 307.619,21.171 306.347,19.446 304.230 C 18.068 302.538,17.987 302.529,18.494 304.126 M342.857 309.524 C 342.857 311.872,340.981 313.968,340.939 311.667 C 340.932 311.274,340.668 309.988,340.352 308.810 C 339.930 307.234,340.186 306.667,341.317 306.667 C 342.393 306.667,342.857 307.527,342.857 309.524 M17.619 310.476 C 16.822 311.766,17.898 313.333,19.580 313.333 C 20.335 313.333,20.952 312.476,20.952 311.429 C 20.952 309.457,18.655 308.800,17.619 310.476 M84.598 315.666 C 84.770 317.130,84.449 318.789,83.884 319.354 C 83.150 320.088,82.857 319.670,82.857 317.887 C 82.857 316.516,82.575 314.657,82.229 313.757 C 81.789 312.609,82.002 312.253,82.943 312.563 C 83.682 312.805,84.426 314.202,84.598 315.666 M329.434 317.381 C 330.761 318.560,331.272 318.774,330.569 317.857 C 328.993 315.803,330.722 315.620,332.417 317.662 C 333.089 318.472,334.213 318.914,334.914 318.645 C 335.752 318.323,336.190 318.905,336.190 320.340 C 336.190 323.344,340.243 327.020,342.696 326.242 C 343.744 325.909,344.877 326.083,345.214 326.628 C 347.288 329.984,350.524 327.140,350.795 321.722 C 350.882 319.983,351.379 318.785,351.905 319.048 C 353.119 319.655,353.363 326.667,352.170 326.667 C 351.673 326.667,351.556 327.935,351.905 329.524 C 352.300 331.321,352.151 332.381,351.504 332.381 C 350.939 332.381,350.476 333.076,350.476 333.926 C 350.476 335.187,350.215 335.254,349.058 334.294 C 346.924 332.523,341.422 333.903,339.615 336.662 C 337.532 339.841,334.914 338.830,335.467 335.060 C 335.690 333.541,335.516 332.076,335.079 331.807 C 334.643 331.537,334.286 330.015,334.286 328.424 C 334.286 325.152,331.043 320.000,328.983 320.000 C 328.233 320.000,327.619 319.156,327.619 318.125 C 327.619 316.768,327.182 316.418,326.034 316.858 C 324.969 317.267,324.675 317.102,325.138 316.352 C 326.099 314.797,326.679 314.936,329.434 317.381 M366.667 323.753 C 366.667 325.413,368.278 325.663,370.098 324.285 C 371.810 322.990,371.767 322.916,369.286 322.887 C 367.845 322.871,366.667 323.260,366.667 323.753 M318.108 326.157 C 317.527 327.685,317.555 328.714,318.187 329.105 C 318.745 329.449,318.890 330.984,318.527 332.710 C 317.734 336.476,316.384 338.045,315.360 336.388 C 314.935 335.700,313.899 335.446,312.971 335.802 C 311.120 336.513,311.738 331.564,313.657 330.311 C 314.311 329.883,314.241 329.189,313.447 328.232 C 312.450 327.030,312.694 326.555,314.936 325.340 C 318.648 323.328,319.136 323.454,318.108 326.157 M358.095 331.375 C 358.095 332.839,354.494 336.190,352.921 336.190 C 352.026 336.190,353.658 332.862,354.928 332.096 C 355.622 331.677,356.190 330.687,356.190 329.896 C 356.190 329.106,356.619 328.724,357.143 329.048 C 357.667 329.371,358.095 330.419,358.095 331.375 M316.238 339.992 C 317.574 339.996,319.172 340.505,319.789 341.122 C 320.406 341.740,322.742 343.164,324.980 344.288 C 328.905 346.259,331.278 350.476,328.461 350.476 C 326.413 350.476,322.857 354.510,322.857 356.833 C 322.857 360.092,321.509 359.529,320.121 355.690 C 318.536 351.308,314.807 348.740,312.300 350.305 C 309.846 351.838,309.724 351.766,310.235 349.090 C 310.513 347.637,309.957 345.831,308.766 344.317 C 307.713 342.978,307.054 341.107,307.301 340.160 C 307.549 339.213,307.074 337.876,306.245 337.188 C 305.114 336.249,305.002 335.620,305.796 334.664 C 306.650 333.635,307.523 334.024,310.331 336.686 C 312.419 338.665,314.780 339.987,316.238 339.992 M75.769 344.364 C 73.402 346.094,72.298 346.085,72.968 344.340 C 73.484 342.995,76.201 341.884,77.141 342.634 C 77.402 342.842,76.785 343.621,75.769 344.364 M373.410 346.756 C 371.798 347.400,371.407 347.978,372.107 348.679 C 373.142 349.713,377.143 347.932,377.143 346.438 C 377.143 345.526,376.311 345.597,373.410 346.756 M367.302 348.254 C 365.875 349.680,366.602 351.715,368.095 350.476 C 368.881 349.824,369.524 348.914,369.524 348.455 C 369.524 347.469,368.206 347.350,367.302 348.254 M48.571 350.850 C 48.571 352.204,51.314 353.765,52.177 352.903 C 52.785 352.295,50.513 349.524,49.407 349.524 C 48.948 349.524,48.571 350.121,48.571 350.850 M340.874 349.762 C 339.911 352.689,340.154 355.238,341.396 355.238 C 342.385 355.238,342.857 354.314,342.857 352.381 C 342.857 350.206,341.373 348.246,340.874 349.762 M49.524 358.073 C 49.524 358.585,50.624 359.725,51.969 360.606 C 53.313 361.487,55.135 363.716,56.016 365.559 C 57.991 369.687,60.000 370.581,60.000 367.331 C 60.000 364.423,57.946 360.336,55.585 358.548 C 53.547 357.005,49.524 356.689,49.524 358.073 M66.667 364.230 C 66.667 364.984,67.095 365.867,67.619 366.190 C 68.143 366.514,68.571 365.897,68.571 364.818 C 68.571 363.740,68.143 362.857,67.619 362.857 C 67.095 362.857,66.667 363.475,66.667 364.230 M321.202 370.434 C 320.366 375.868,319.594 375.826,318.560 370.290 C 317.975 367.158,318.113 366.786,319.812 366.914 C 321.445 367.037,321.646 367.547,321.202 370.434 M308.055 371.363 C 308.759 372.502,306.967 373.632,305.699 372.848 C 304.634 372.189,305.333 370.476,306.667 370.476 C 307.129 370.476,307.753 370.875,308.055 371.363 M56.657 382.068 C 56.320 382.944,56.603 384.658,57.287 385.878 L 58.530 388.095 58.851 385.980 C 59.305 382.994,57.524 379.819,56.657 382.068 M247.053 384.616 C 247.327 385.060,248.882 385.460,250.508 385.507 C 255.499 385.648,256.775 387.568,253.098 389.405 C 250.934 390.486,249.841 391.814,249.471 393.810 C 248.969 396.528,248.907 396.561,248.209 394.498 C 247.316 391.863,243.379 389.120,241.515 389.835 C 239.789 390.497,238.580 387.544,240.174 386.559 C 240.829 386.154,241.862 386.236,242.471 386.741 C 243.236 387.377,243.732 387.067,244.080 385.734 C 244.596 383.763,246.162 383.174,247.053 384.616 M352.578 389.486 C 353.321 390.675,353.977 390.976,354.385 390.316 C 354.737 389.746,355.453 389.544,355.976 389.867 C 356.499 390.191,357.457 389.817,358.104 389.037 C 359.114 387.820,358.723 387.619,355.347 387.619 C 351.678 387.619,351.491 387.745,352.578 389.486 M340.781 396.802 C 341.884 398.774,341.116 401.905,339.529 401.905 C 338.869 401.905,337.795 402.548,337.143 403.333 C 336.491 404.119,335.552 404.762,335.057 404.762 C 333.610 404.762,335.265 400.616,337.381 398.940 C 338.448 398.095,339.020 396.917,338.652 396.321 C 338.284 395.725,338.415 395.238,338.944 395.238 C 339.473 395.238,340.299 395.942,340.781 396.802 M108.756 398.645 C 106.269 400.387,105.865 405.466,108.144 406.341 C 109.731 406.950,114.286 403.294,114.286 401.410 C 114.286 398.737,110.983 397.085,108.756 398.645 M315.238 399.444 C 315.238 400.274,315.917 400.952,316.746 400.952 C 318.428 400.952,318.135 398.902,316.369 398.313 C 315.747 398.106,315.238 398.615,315.238 399.444 M306.349 399.683 C 304.962 401.069,305.845 402.016,308.260 401.730 C 311.540 401.342,312.417 399.048,309.286 399.048 C 308.020 399.048,306.698 399.333,306.349 399.683 M83.810 404.206 C 83.810 405.036,84.488 405.714,85.317 405.714 C 86.999 405.714,86.706 403.664,84.940 403.075 C 84.318 402.868,83.810 403.377,83.810 404.206 M312.828 403.857 C 311.923 405.322,313.162 406.266,314.385 405.044 C 315.069 404.360,315.085 403.827,314.435 403.425 C 313.901 403.096,313.178 403.290,312.828 403.857 M239.146 407.901 C 237.924 409.124,236.685 408.179,237.589 406.714 C 237.940 406.147,238.663 405.953,239.196 406.282 C 239.847 406.684,239.830 407.217,239.146 407.901 M276.905 414.942 C 275.988 415.182,275.238 415.772,275.238 416.254 C 275.238 417.500,279.348 416.719,279.791 415.389 C 280.169 414.254,279.773 414.193,276.905 414.942 M359.048 415.714 C 359.048 416.500,359.476 417.143,360.000 417.143 C 360.524 417.143,360.952 416.500,360.952 415.714 C 360.952 414.929,360.524 414.286,360.000 414.286 C 359.476 414.286,359.048 414.929,359.048 415.714 M361.910 417.994 C 359.555 418.649,357.935 421.905,359.964 421.905 C 361.451 421.905,365.714 418.999,365.714 417.986 C 365.714 417.045,365.318 417.045,361.910 417.994 M352.416 420.434 C 350.591 422.633,352.241 424.232,354.358 422.316 C 355.341 421.426,355.916 420.327,355.636 419.873 C 354.886 418.660,353.719 418.864,352.416 420.434 M141.905 422.302 C 141.905 423.131,142.583 423.810,143.413 423.810 C 145.095 423.810,144.802 421.759,143.036 421.171 C 142.414 420.963,141.905 421.472,141.905 422.302 M267.619 425.147 C 267.619 426.654,264.012 430.043,263.235 429.266 C 262.433 428.465,265.903 422.861,266.841 423.441 C 267.269 423.706,267.619 424.473,267.619 425.147 M241.331 429.048 C 239.583 430.371,239.592 430.417,241.610 430.446 C 243.838 430.478,245.339 429.041,243.965 428.192 C 243.510 427.910,242.325 428.296,241.331 429.048 M193.333 432.948 C 193.333 434.062,196.615 439.048,197.348 439.048 C 198.398 439.048,198.278 437.634,196.990 434.807 C 196.033 432.706,193.333 431.334,193.333 432.948 M128.762 434.476 C 125.616 437.622,128.466 442.095,132.307 440.040 C 135.355 438.408,134.330 433.333,130.952 433.333 C 130.376 433.333,129.390 433.848,128.762 434.476 M170.041 435.172 C 169.739 435.660,169.928 436.328,170.461 436.657 C 171.597 437.359,173.333 436.468,173.333 435.182 C 173.333 434.023,170.756 434.016,170.041 435.172 M284.870 437.980 C 283.277 439.205,282.939 439.938,283.740 440.433 C 284.883 441.139,288.571 438.515,288.571 436.995 C 288.571 435.747,287.353 436.071,284.870 437.980 M278.704 439.708 C 277.797 440.616,277.968 442.857,278.946 442.857 C 280.114 442.857,281.052 440.174,280.091 439.580 C 279.663 439.316,279.039 439.373,278.704 439.708 M175.225 443.095 C 175.218 443.750,174.936 445.317,174.599 446.577 C 174.203 448.056,174.338 448.652,174.978 448.256 C 176.197 447.503,177.120 441.905,176.026 441.905 C 175.592 441.905,175.232 442.440,175.225 443.095 M140.285 445.023 C 138.686 447.570,134.617 449.469,133.322 448.271 C 132.375 447.396,132.253 447.411,132.778 448.340 C 133.676 449.930,130.671 451.052,129.269 449.650 C 128.676 449.057,127.828 448.571,127.384 448.571 C 126.170 448.571,129.833 453.269,131.074 453.303 C 133.637 453.375,134.775 456.331,132.821 457.841 C 130.999 459.250,131.005 459.273,133.095 458.780 C 134.853 458.365,135.238 458.676,135.238 460.509 C 135.238 463.334,137.115 464.576,138.268 462.515 C 139.272 460.721,141.573 460.434,142.107 462.037 C 142.371 462.828,143.357 462.850,145.758 462.118 C 147.567 461.567,150.333 460.747,151.905 460.297 C 156.100 459.094,155.387 457.660,150.434 457.337 C 146.139 457.057,146.110 457.031,146.477 453.889 C 147.050 448.980,142.179 442.006,140.285 445.023 M123.075 445.892 C 123.550 447.316,125.714 448.100,125.714 446.848 C 125.714 446.337,125.036 445.658,124.206 445.339 C 123.279 444.983,122.843 445.196,123.075 445.892 " stroke="none" fill="url('#gradient')" fill-rule="evenodd"></path></g></svg>