<svg id="svg" version="1.1" xmlns="http://www.w3.org/2000/svg" xmlns:xlink="http://www.w3.org/1999/xlink" width="300" height="200" viewBox="0, 0, 400,100.47619047619048"><defs><linearGradient id="gradient"><stop offset="0%"  stop-color="#ee0979" /><stop offset="100%" stop-color="#ff6a00" /></linearGradient></defs><g id="svgg"><path id="path0" d="M153.652 27.202 C 153.173 27.481,151.673 27.774,150.319 27.853 C 148.965 27.932,146.736 28.153,145.365 28.344 C 143.273 28.635,142.824 28.564,142.568 27.896 C 142.303 27.205,142.162 27.190,141.489 27.776 C 140.358 28.761,137.217 29.226,136.381 28.532 C 135.466 27.772,134.939 28.351,135.705 29.274 C 136.202 29.874,136.173 30.000,135.534 30.000 C 135.110 30.000,134.762 29.782,134.762 29.516 C 134.762 29.250,134.134 29.080,133.366 29.139 C 132.599 29.197,132.009 29.442,132.057 29.682 C 132.104 29.922,131.875 30.217,131.548 30.337 C 131.220 30.457,130.952 30.323,130.952 30.040 C 130.952 29.242,129.938 29.430,129.234 30.357 C 128.867 30.841,128.595 30.947,128.587 30.610 C 128.578 30.266,128.249 30.154,127.779 30.334 C 127.231 30.544,127.097 30.459,127.346 30.056 C 127.596 29.652,127.184 29.693,125.996 30.189 C 124.487 30.820,124.286 30.820,124.286 30.197 C 124.286 29.646,124.083 29.599,123.365 29.983 C 122.084 30.668,121.905 30.612,121.905 29.524 C 121.905 29.000,121.744 28.555,121.548 28.535 C 121.351 28.515,120.801 28.425,120.326 28.334 C 119.850 28.244,118.741 28.471,117.862 28.838 C 116.619 29.358,116.211 29.376,116.027 28.920 C 115.841 28.461,115.781 28.463,115.752 28.929 C 115.731 29.256,115.286 29.524,114.762 29.524 C 114.238 29.524,113.810 29.754,113.810 30.035 C 113.810 30.351,114.805 30.499,116.421 30.424 C 117.858 30.358,119.179 30.449,119.358 30.628 C 119.536 30.806,119.165 30.977,118.532 31.007 C 117.899 31.038,117.167 31.098,116.905 31.142 C 114.723 31.510,109.120 32.053,108.456 31.961 C 107.999 31.898,107.148 32.181,106.564 32.590 C 105.362 33.432,104.560 33.569,105.000 32.857 C 105.460 32.113,104.690 32.298,103.737 33.161 C 103.029 33.801,102.744 33.832,102.143 33.334 C 101.110 32.476,99.557 32.442,97.619 33.233 C 96.702 33.607,95.202 33.973,94.286 34.047 C 93.369 34.120,91.976 34.454,91.190 34.788 C 89.374 35.561,88.927 35.620,88.308 35.168 C 88.033 34.966,87.223 35.104,86.510 35.474 C 85.162 36.173,80.638 37.143,78.722 37.143 C 77.244 37.143,77.316 36.370,78.829 35.990 C 79.494 35.823,79.923 35.498,79.781 35.269 C 79.639 35.039,79.061 34.972,78.496 35.120 C 77.773 35.309,77.575 35.219,77.825 34.814 C 78.020 34.498,78.536 34.299,78.971 34.370 C 79.880 34.519,80.952 33.954,80.952 33.324 C 80.952 32.674,78.141 33.009,77.878 33.690 C 77.752 34.018,77.053 34.315,76.324 34.351 C 75.202 34.406,75.163 34.447,76.071 34.622 C 77.292 34.857,77.328 34.956,76.650 36.222 C 76.367 36.750,75.656 37.143,74.983 37.143 C 74.338 37.143,73.810 37.383,73.810 37.677 C 73.810 38.047,73.589 38.029,73.095 37.619 C 72.563 37.177,72.381 37.170,72.381 37.589 C 72.381 37.898,72.200 38.039,71.978 37.902 C 71.756 37.765,70.417 37.854,69.002 38.099 C 67.587 38.345,64.961 38.660,63.167 38.799 C 58.950 39.128,57.302 39.965,60.833 39.986 C 62.208 39.993,63.333 40.195,63.333 40.434 C 63.333 41.025,57.575 41.977,54.335 41.923 C 52.991 41.900,51.905 42.686,51.905 43.681 C 51.905 44.181,52.225 44.309,52.993 44.116 C 54.912 43.634,63.253 42.751,63.887 42.962 C 64.224 43.075,63.140 43.574,61.479 44.071 C 59.818 44.569,58.355 45.249,58.226 45.583 C 58.098 45.917,57.669 46.190,57.272 46.190 C 56.684 46.190,56.660 46.323,57.143 46.905 C 57.628 47.490,57.596 47.619,56.963 47.619 C 56.538 47.619,56.190 47.400,56.190 47.133 C 56.190 46.492,51.070 46.916,47.468 47.855 C 45.954 48.249,44.029 48.575,43.191 48.579 C 41.068 48.589,40.028 49.278,40.897 50.099 C 41.371 50.548,41.603 50.565,41.751 50.164 C 41.869 49.845,42.542 49.707,43.358 49.836 C 44.130 49.958,44.762 49.880,44.762 49.664 C 44.762 48.991,51.178 49.205,51.248 49.881 C 51.282 50.208,51.353 50.530,51.405 50.595 C 51.769 51.047,51.772 52.645,51.408 52.870 C 50.843 53.219,57.230 53.043,58.406 52.677 C 58.890 52.526,59.554 52.571,59.881 52.777 C 61.572 53.840,57.290 55.616,52.270 55.933 C 51.555 55.978,50.823 56.161,50.643 56.341 C 50.464 56.520,49.532 56.667,48.571 56.667 C 47.611 56.667,46.678 56.814,46.498 56.994 C 46.318 57.174,45.800 57.368,45.347 57.425 C 36.365 58.557,35.054 58.878,36.377 59.619 C 37.442 60.215,36.947 60.848,34.721 61.738 C 32.811 62.503,32.401 63.070,33.452 63.494 C 33.808 63.638,33.712 63.749,33.214 63.772 C 32.756 63.793,32.381 63.568,32.381 63.272 C 32.381 62.902,31.753 62.846,30.357 63.093 C 29.244 63.290,27.958 63.438,27.500 63.422 C 27.042 63.406,26.667 63.587,26.667 63.824 C 26.667 64.062,26.340 64.130,25.940 63.977 C 24.213 63.314,18.568 65.758,17.647 67.568 C 16.656 69.515,17.145 70.467,19.147 70.487 C 19.972 70.495,19.745 70.721,18.214 71.416 C 16.002 72.420,15.428 73.124,17.447 72.356 C 18.138 72.093,18.817 71.991,18.955 72.130 C 19.262 72.437,19.243 72.450,16.998 73.471 C 16.002 73.924,15.314 74.499,15.468 74.749 C 15.626 75.004,16.107 74.846,16.566 74.387 C 17.016 73.939,19.526 73.055,22.144 72.424 C 24.763 71.793,26.637 71.185,26.310 71.075 C 25.257 70.718,25.673 70.085,27.176 69.755 C 28.186 69.533,28.557 69.221,28.375 68.746 C 28.222 68.347,28.457 67.954,28.937 67.809 C 29.391 67.671,30.500 67.197,31.403 66.755 C 32.305 66.314,33.253 66.018,33.509 66.099 C 33.766 66.180,35.063 66.007,36.392 65.715 C 40.988 64.705,40.952 64.707,40.952 65.467 C 40.952 66.368,41.727 66.379,44.175 65.515 C 46.214 64.796,54.738 64.609,56.429 65.246 C 57.272 65.564,57.218 65.643,55.952 65.935 C 53.882 66.413,52.374 67.223,52.669 67.700 C 52.809 67.927,52.213 68.422,51.343 68.800 C 49.989 69.388,49.855 69.772,51.071 69.580 C 51.670 69.486,51.469 70.380,50.833 70.642 C 50.227 70.893,52.607 70.608,54.762 70.173 C 56.650 69.792,55.258 70.718,52.961 71.372 C 50.010 72.212,47.570 72.454,46.960 71.969 C 46.151 71.327,39.858 72.239,39.233 73.090 C 38.560 74.007,38.095 74.009,38.095 73.095 C 38.095 72.177,37.829 72.192,34.209 73.327 C 32.549 73.848,30.815 74.276,30.357 74.280 C 29.899 74.283,29.524 74.498,29.524 74.756 C 29.524 75.538,27.934 77.143,27.156 77.146 C 26.756 77.147,25.840 77.456,25.121 77.831 C 24.402 78.206,23.438 78.491,22.978 78.465 C 22.519 78.439,20.964 78.561,19.524 78.735 L 16.905 79.053 18.571 78.218 C 19.488 77.758,20.415 77.168,20.631 76.906 C 20.887 76.596,21.110 76.637,21.266 77.024 C 21.399 77.351,21.717 77.619,21.973 77.619 C 22.228 77.619,22.291 77.382,22.111 77.092 C 21.892 76.737,22.116 76.670,22.798 76.886 C 23.361 77.065,23.810 77.000,23.810 76.738 C 23.810 76.481,24.399 76.055,25.119 75.792 C 27.080 75.075,25.151 75.134,21.667 75.897 C 17.549 76.798,14.337 78.438,13.991 79.817 C 13.835 80.441,13.428 80.952,13.089 80.952 C 12.647 80.952,12.542 81.475,12.718 82.788 C 12.930 84.372,12.824 84.660,11.939 84.891 C 11.092 85.112,10.971 85.384,11.241 86.460 C 11.472 87.380,11.408 87.662,11.022 87.424 C 10.722 87.238,10.476 87.314,10.476 87.591 C 10.476 88.349,11.905 88.182,14.156 87.160 C 16.048 86.301,17.715 86.677,16.190 87.619 C 15.861 87.822,15.753 88.248,15.949 88.566 C 16.221 89.006,16.077 89.020,15.343 88.627 C 13.214 87.488,10.254 89.452,10.222 92.024 C 10.203 93.585,10.081 93.560,12.000 92.393 C 12.851 91.875,16.017 90.864,19.036 90.147 C 22.155 89.405,24.039 88.766,23.401 88.667 C 22.428 88.515,22.316 88.300,22.566 87.053 C 22.788 85.941,22.702 85.672,22.188 85.869 C 20.750 86.421,21.030 85.499,22.492 84.866 C 25.876 83.401,28.909 83.895,26.444 85.510 C 25.781 85.945,25.238 86.477,25.238 86.694 C 25.238 87.283,27.252 86.782,27.696 86.083 C 28.000 85.604,28.082 85.613,28.088 86.127 C 28.093 86.579,28.494 86.701,29.400 86.528 C 30.117 86.391,31.125 86.504,31.639 86.779 C 32.311 87.139,32.625 87.126,32.755 86.736 C 32.862 86.415,33.407 86.310,34.087 86.481 C 34.720 86.640,35.238 86.586,35.238 86.361 C 35.239 86.136,36.458 85.952,37.949 85.952 C 39.439 85.952,41.731 85.678,43.042 85.343 C 44.352 85.008,45.758 84.765,46.165 84.803 C 48.489 85.019,50.088 84.725,49.856 84.122 C 49.680 83.664,49.936 83.544,50.758 83.701 C 51.587 83.860,51.905 83.707,51.905 83.151 C 51.905 82.727,52.112 82.381,52.366 82.381 C 52.620 82.381,52.705 82.701,52.555 83.091 C 52.401 83.490,52.604 83.925,53.017 84.083 C 53.990 84.457,59.130 83.376,58.814 82.864 C 58.496 82.350,59.854 82.540,60.343 83.078 C 60.547 83.303,60.446 83.332,60.119 83.143 C 59.784 82.950,59.524 83.050,59.524 83.371 C 59.524 83.788,60.259 83.847,62.262 83.591 C 64.614 83.291,70.233 82.969,74.286 82.902 C 77.830 82.843,88.350 83.253,91.548 83.575 C 94.163 83.839,95.238 83.793,95.238 83.417 C 95.238 83.126,95.545 83.005,95.921 83.149 C 96.509 83.375,109.743 82.697,116.190 82.111 C 122.774 81.513,126.739 81.257,129.286 81.268 C 130.857 81.275,132.304 81.046,132.500 80.759 C 132.751 80.393,132.975 80.421,133.254 80.852 C 133.553 81.314,133.971 81.344,134.951 80.971 C 136.635 80.331,136.568 80.300,136.322 81.587 C 136.169 82.390,136.329 82.698,136.899 82.698 C 137.432 82.698,137.614 82.413,137.459 81.819 C 137.316 81.273,137.573 80.755,138.138 80.453 C 138.850 80.072,139.048 80.126,139.048 80.698 C 139.048 81.100,139.262 81.429,139.524 81.429 C 139.786 81.429,140.000 81.107,140.000 80.714 C 140.000 80.152,140.733 79.985,143.452 79.929 C 145.351 79.890,147.655 79.796,148.571 79.721 C 149.488 79.645,155.739 79.577,162.462 79.570 C 170.357 79.562,174.793 79.382,174.990 79.064 C 175.157 78.793,175.055 78.571,174.762 78.571 C 174.469 78.571,174.370 78.343,174.543 78.065 C 174.758 77.716,180.039 77.617,191.460 77.747 C 202.058 77.868,208.234 77.766,208.535 77.465 C 208.847 77.153,209.254 77.198,209.736 77.598 C 210.169 77.957,211.837 78.210,213.846 78.220 C 216.233 78.232,217.300 78.427,217.474 78.881 C 217.610 79.234,218.139 79.524,218.650 79.524 C 219.162 79.524,219.448 79.310,219.286 79.048 C 219.124 78.786,219.200 78.571,219.456 78.571 C 219.712 78.571,220.046 78.839,220.198 79.167 C 220.421 79.643,220.532 79.643,220.754 79.167 C 221.126 78.369,222.381 78.405,222.381 79.213 C 222.381 80.279,225.254 80.086,226.167 78.959 C 226.918 78.030,227.041 78.018,228.420 78.731 C 229.223 79.146,230.031 79.334,230.217 79.148 C 230.403 78.962,230.484 79.098,230.397 79.450 C 230.151 80.443,235.025 80.765,235.403 79.781 C 235.768 78.830,236.611 78.850,237.701 79.836 C 238.436 80.501,238.571 80.513,238.571 79.915 C 238.571 78.928,240.673 79.151,240.868 80.158 C 241.033 81.007,241.905 81.274,241.905 80.476 C 241.905 80.214,242.132 80.000,242.409 80.000 C 242.686 80.000,242.795 80.191,242.651 80.425 C 242.507 80.658,243.144 80.937,244.066 81.045 C 245.305 81.190,245.682 81.078,245.506 80.620 C 245.375 80.279,245.458 80.000,245.690 80.000 C 245.921 80.000,246.190 80.235,246.285 80.523 C 246.698 81.762,252.956 81.669,252.780 80.426 C 252.657 79.552,252.312 79.274,251.301 79.238 C 249.837 79.184,248.956 78.559,249.881 78.228 C 250.208 78.112,250.476 77.712,250.476 77.341 C 250.476 76.300,251.414 76.544,251.840 77.695 C 252.166 78.576,252.264 78.610,252.524 77.934 C 252.728 77.401,253.382 77.143,254.526 77.143 C 256.334 77.143,256.252 78.423,254.354 79.823 C 253.745 80.272,253.876 80.415,255.146 80.694 C 255.982 80.878,256.667 81.220,256.667 81.455 C 256.667 81.691,257.470 81.861,258.452 81.834 C 259.435 81.807,260.667 81.900,261.190 82.041 C 262.727 82.455,267.815 83.063,268.333 82.895 C 269.565 82.495,271.905 82.509,271.905 82.916 C 271.905 83.167,272.708 83.358,273.690 83.341 C 274.673 83.324,276.762 83.531,278.333 83.801 C 286.287 85.169,294.419 85.727,292.922 84.802 C 292.438 84.503,292.475 84.351,293.094 84.114 C 294.231 83.678,294.286 83.707,294.286 84.762 C 294.286 85.286,294.554 85.734,294.881 85.757 C 298.033 85.984,299.895 85.930,299.701 85.616 C 299.573 85.408,300.110 85.238,300.896 85.238 C 302.276 85.238,303.554 86.148,302.290 86.231 C 300.737 86.333,304.517 87.049,308.251 87.361 C 311.936 87.667,312.381 87.618,312.381 86.906 C 312.381 86.231,312.695 86.159,314.405 86.441 C 316.754 86.829,317.112 87.049,316.256 87.578 C 315.445 88.080,318.793 88.929,323.195 89.338 C 326.010 89.600,326.563 89.528,326.815 88.871 C 326.979 88.444,327.548 88.095,328.080 88.095 C 329.113 88.095,329.454 89.014,328.452 89.096 C 327.107 89.207,331.422 90.000,334.435 90.197 C 337.297 90.384,337.609 90.324,337.080 89.686 C 336.553 89.051,336.782 88.985,338.937 89.147 C 341.209 89.318,343.074 90.000,341.270 90.000 C 340.833 90.000,340.476 90.178,340.476 90.397 C 340.476 90.875,341.926 90.814,342.758 90.299 C 343.132 90.068,343.308 90.158,343.226 90.538 C 343.073 91.252,344.492 91.438,351.091 91.567 C 354.778 91.639,355.848 91.509,356.203 90.948 C 356.450 90.558,356.655 90.425,356.659 90.654 C 356.663 90.882,356.960 90.826,357.318 90.529 C 357.988 89.973,358.916 90.598,359.007 91.667 C 359.029 91.929,359.315 92.143,359.643 92.143 C 359.970 92.143,360.175 91.768,360.098 91.310 C 359.946 90.402,360.708 90.172,361.205 90.976 C 361.412 91.311,361.761 91.272,362.268 90.856 C 362.922 90.320,362.987 90.375,362.757 91.267 C 362.498 92.272,365.294 93.436,366.080 92.650 C 366.228 92.502,366.018 92.381,365.614 92.381 C 365.209 92.381,364.612 92.060,364.286 91.667 C 363.660 90.913,363.544 90.952,367.143 90.714 C 369.639 90.550,370.000 90.463,370.000 90.033 C 370.000 89.781,368.251 89.661,365.951 89.755 C 362.507 89.895,361.814 89.794,361.308 89.080 C 360.719 88.246,357.665 87.366,356.075 87.571 C 355.499 87.645,355.333 87.450,355.531 86.934 C 355.882 86.018,354.851 85.973,353.690 86.853 C 352.547 87.722,352.646 88.095,354.020 88.095 C 354.659 88.095,355.290 88.271,355.423 88.485 C 355.556 88.700,355.024 88.781,354.242 88.667 C 353.304 88.529,352.494 88.752,351.865 89.321 C 351.016 90.090,350.945 90.096,351.221 89.378 C 351.434 88.824,351.288 88.571,350.755 88.571 C 350.329 88.571,349.735 88.036,349.437 87.381 C 348.916 86.237,347.143 85.685,347.143 86.667 C 347.143 86.929,347.357 87.143,347.619 87.143 C 347.881 87.143,348.095 87.353,348.095 87.610 C 348.095 88.088,341.662 88.011,341.179 87.528 C 341.038 87.387,341.300 86.614,341.762 85.810 C 342.710 84.157,342.652 84.015,340.836 83.559 C 339.058 83.113,338.150 85.091,339.650 86.141 C 341.120 87.172,338.432 88.215,336.673 87.297 C 336.015 86.954,334.767 86.671,333.900 86.670 C 332.904 86.668,332.440 86.480,332.639 86.157 C 332.813 85.877,333.843 85.683,334.929 85.725 C 337.903 85.842,338.480 85.713,337.231 85.212 C 336.625 84.969,336.264 84.552,336.428 84.286 C 336.728 83.801,336.063 83.402,334.442 83.095 C 333.963 83.004,333.464 82.890,333.333 82.841 C 332.652 82.586,330.668 83.026,330.357 83.501 C 330.106 83.885,329.894 83.896,329.643 83.537 C 329.038 82.671,327.628 82.327,327.932 83.119 C 328.092 83.536,327.909 83.810,327.471 83.810 C 327.071 83.810,326.371 83.953,325.915 84.128 C 325.244 84.385,325.137 84.249,325.355 83.414 C 325.504 82.846,325.408 82.381,325.143 82.381 C 324.877 82.381,324.783 82.060,324.934 81.667 C 325.121 81.181,324.908 80.952,324.271 80.952 C 323.755 80.952,323.333 81.144,323.333 81.378 C 323.333 81.612,322.825 81.773,322.204 81.735 C 321.541 81.695,321.164 81.431,321.292 81.097 C 321.462 80.656,321.241 80.654,320.320 81.089 C 319.665 81.398,319.259 81.869,319.418 82.135 C 319.577 82.401,319.309 82.298,318.823 81.905 C 318.150 81.360,317.893 81.332,317.740 81.786 C 317.630 82.113,317.331 82.381,317.075 82.381 C 316.820 82.381,316.743 82.167,316.905 81.905 C 317.067 81.643,316.990 81.429,316.734 81.429 C 316.478 81.429,315.876 81.290,315.396 81.120 C 314.682 80.868,314.632 80.929,315.119 81.454 C 315.766 82.151,315.935 83.041,315.357 82.707 C 315.161 82.593,314.571 82.663,314.048 82.862 C 313.179 83.192,313.210 83.254,314.405 83.568 C 316.337 84.077,315.995 84.762,313.810 84.762 C 312.362 84.762,311.905 84.575,311.905 83.981 C 311.905 83.552,311.538 82.932,311.089 82.604 C 310.400 82.100,310.372 81.890,310.910 81.242 C 311.476 80.560,311.334 80.476,309.610 80.476 C 308.546 80.476,307.555 80.670,307.409 80.908 C 307.015 81.544,305.238 80.950,305.238 80.183 C 305.238 79.402,305.362 79.418,303.504 79.951 C 302.195 80.326,301.939 80.239,301.402 79.237 C 300.721 77.963,297.821 77.607,296.762 78.667 C 296.317 79.111,296.187 79.032,296.176 78.310 C 296.162 77.443,296.129 77.438,295.671 78.224 C 295.401 78.688,294.975 78.941,294.725 78.787 C 294.475 78.632,294.393 78.306,294.544 78.062 C 294.695 77.819,294.391 77.619,293.870 77.619 C 293.343 77.619,292.788 78.038,292.622 78.561 C 292.292 79.601,287.913 82.012,286.712 81.815 C 286.294 81.747,285.685 81.858,285.357 82.064 C 285.030 82.269,284.494 82.270,284.167 82.065 C 283.407 81.591,282.694 81.469,279.762 81.316 C 278.370 81.242,277.155 80.902,276.838 80.495 C 276.392 79.924,276.068 79.903,275.030 80.376 C 273.371 81.132,273.333 81.122,273.333 79.946 C 273.333 79.019,273.512 78.964,275.595 79.251 C 277.208 79.474,277.652 79.423,277.143 79.075 C 276.750 78.806,275.971 78.583,275.413 78.579 C 274.362 78.571,273.399 76.577,274.298 76.270 C 275.448 75.876,274.588 75.238,272.908 75.238 C 271.643 75.238,270.961 75.482,270.760 76.005 C 270.549 76.554,270.670 76.694,271.185 76.497 C 272.386 76.036,271.989 76.937,270.683 77.636 C 269.669 78.179,269.395 78.182,269.070 77.655 C 268.847 77.294,268.422 77.179,268.084 77.388 C 267.531 77.730,266.712 77.884,264.643 78.034 C 264.185 78.068,263.835 78.256,263.866 78.452 C 264.062 79.695,263.699 79.825,261.071 79.451 C 259.565 79.237,257.744 79.182,257.024 79.330 C 255.486 79.646,255.319 79.067,256.667 78.095 C 257.746 77.317,257.907 76.386,257.024 76.030 C 256.696 75.898,257.316 75.773,258.401 75.752 C 259.672 75.728,260.464 75.949,260.628 76.375 C 260.801 76.826,260.612 76.965,260.030 76.812 C 259.562 76.690,259.071 76.875,258.939 77.224 C 258.767 77.676,259.221 77.877,260.525 77.928 C 262.132 77.990,262.268 77.914,261.652 77.298 C 260.624 76.270,260.796 75.714,262.143 75.714 C 262.798 75.714,263.333 75.875,263.333 76.071 C 263.333 76.268,264.190 76.429,265.238 76.429 C 266.286 76.429,267.143 76.268,267.143 76.071 C 267.143 75.875,267.666 75.714,268.305 75.714 C 268.945 75.714,269.623 75.464,269.812 75.157 C 270.036 74.794,269.906 74.696,269.440 74.875 C 268.338 75.298,267.175 74.418,268.073 73.841 C 268.453 73.596,268.989 73.540,269.263 73.717 C 270.257 74.355,274.215 74.204,274.479 73.518 C 274.646 73.082,274.387 72.857,273.715 72.857 C 272.155 72.857,273.089 72.277,274.985 72.068 C 276.255 71.928,276.667 72.060,276.667 72.608 C 276.667 73.007,276.310 73.333,275.873 73.333 C 274.793 73.333,275.325 73.789,276.721 74.060 C 278.196 74.346,281.209 73.786,280.511 73.355 C 280.203 73.165,280.667 72.812,281.605 72.524 C 282.539 72.238,283.508 72.199,283.878 72.434 C 285.587 73.517,288.920 72.924,288.863 71.548 C 288.817 70.426,289.015 70.218,290.238 70.101 C 291.335 69.997,291.501 70.078,290.952 70.451 C 290.330 70.875,290.339 70.939,291.020 70.945 C 291.451 70.949,291.944 70.583,292.118 70.132 C 292.387 69.430,292.496 69.413,292.875 70.013 C 293.119 70.399,293.322 70.477,293.326 70.188 C 293.330 69.866,294.120 69.713,295.357 69.794 C 298.029 69.970,297.961 69.942,297.143 70.514 C 296.603 70.892,296.865 70.972,298.214 70.841 C 299.196 70.745,300.000 70.839,300.000 71.048 C 300.000 71.257,300.214 71.429,300.476 71.429 C 300.738 71.429,300.952 71.107,300.952 70.714 C 300.952 69.830,301.053 69.830,303.184 70.721 C 305.687 71.766,309.673 71.220,309.250 69.889 C 308.977 69.029,311.423 68.973,312.342 69.818 C 312.860 70.295,311.195 72.393,310.506 72.131 C 309.962 71.924,309.903 71.991,310.287 72.378 C 311.042 73.139,315.509 73.144,316.424 72.385 C 317.432 71.549,316.571 70.972,314.286 70.952 C 313.033 70.941,312.796 70.823,313.333 70.476 C 314.591 69.663,320.330 69.884,320.665 70.758 C 320.859 71.264,320.639 71.600,320.002 71.766 C 319.477 71.904,319.048 72.337,319.048 72.730 C 319.048 73.238,319.357 73.362,320.119 73.157 C 320.708 72.999,321.653 72.867,322.217 72.864 C 323.009 72.859,323.187 72.639,322.995 71.905 C 322.725 70.873,322.811 70.853,327.976 70.751 C 329.381 70.723,330.476 70.913,330.476 71.184 C 330.476 71.449,331.363 71.667,332.447 71.667 C 334.473 71.667,336.286 73.161,334.881 73.672 C 334.554 73.791,334.286 74.207,334.286 74.597 C 334.286 75.727,336.419 75.193,336.477 74.048 C 336.504 73.524,336.557 72.837,336.596 72.522 C 336.714 71.560,339.953 71.188,340.620 72.059 C 341.630 73.380,343.824 73.617,344.132 72.440 C 344.379 71.496,345.234 70.992,345.242 71.786 C 345.249 72.432,347.523 73.239,347.998 72.763 C 348.278 72.484,349.742 72.709,351.897 73.364 C 354.666 74.205,355.662 74.315,356.937 73.924 C 357.827 73.651,358.589 73.621,358.668 73.857 C 358.910 74.576,369.109 75.319,370.100 74.690 C 370.554 74.402,370.497 74.298,369.881 74.293 C 369.423 74.289,369.048 74.071,369.048 73.810 C 369.048 73.548,368.780 73.324,368.452 73.312 C 366.954 73.258,365.015 72.092,365.874 71.763 C 366.379 71.569,366.600 71.628,366.425 71.910 C 366.265 72.169,366.314 72.381,366.534 72.381 C 367.143 72.381,368.082 69.572,367.577 69.260 C 367.338 69.112,367.143 69.303,367.143 69.683 C 367.143 70.602,365.650 71.143,365.186 70.393 C 364.985 70.067,363.950 69.767,362.886 69.725 C 361.144 69.657,360.737 69.919,360.879 71.020 C 360.901 71.189,360.497 71.436,359.983 71.571 C 359.469 71.706,359.048 71.621,359.048 71.384 C 359.048 71.147,358.887 70.978,358.690 71.009 C 357.855 71.141,357.143 70.923,357.143 70.536 C 357.143 70.306,357.839 69.757,358.690 69.315 L 360.238 68.512 358.490 68.794 C 357.528 68.950,356.616 68.875,356.464 68.628 C 356.311 68.382,355.813 68.252,355.355 68.339 C 354.898 68.427,354.363 68.515,354.167 68.535 C 353.517 68.601,353.796 69.524,354.466 69.524 C 354.826 69.524,355.416 69.879,355.775 70.313 C 356.373 71.035,356.228 71.075,354.048 70.785 C 352.738 70.611,350.387 70.359,348.823 70.224 C 346.083 69.989,344.709 69.431,345.564 68.902 C 345.789 68.763,347.319 68.808,348.963 69.002 C 351.911 69.350,353.166 69.014,351.545 68.311 C 350.114 67.691,349.353 67.518,347.024 67.281 C 345.780 67.154,344.762 66.855,344.762 66.616 C 344.762 66.376,343.637 66.182,342.262 66.185 C 337.632 66.195,331.478 64.954,334.905 64.702 C 336.470 64.587,336.631 64.517,337.246 63.676 C 337.913 62.764,339.113 62.785,340.851 63.740 C 341.450 64.069,342.343 64.211,342.835 64.055 C 343.327 63.899,343.845 63.959,343.987 64.188 C 344.129 64.418,344.737 64.552,345.337 64.485 C 345.937 64.419,346.964 64.334,347.619 64.295 L 348.810 64.225 347.619 63.697 L 346.429 63.168 347.619 62.959 C 348.274 62.844,350.524 62.998,352.619 63.302 C 356.696 63.893,362.379 63.823,362.380 63.182 C 362.381 62.968,362.863 62.923,363.452 63.083 C 364.442 63.351,364.433 63.318,363.333 62.656 C 362.679 62.261,362.312 61.931,362.519 61.922 C 362.726 61.912,362.618 61.605,362.281 61.238 C 361.864 60.786,361.482 60.723,361.092 61.041 C 360.776 61.299,360.313 61.384,360.062 61.229 C 359.811 61.073,359.524 61.190,359.424 61.489 C 359.299 61.864,358.765 61.783,357.690 61.227 C 356.378 60.548,354.293 60.179,349.935 59.854 C 349.478 59.820,349.260 59.523,349.409 59.135 C 349.606 58.623,349.274 58.527,347.927 58.709 C 346.675 58.878,346.190 58.764,346.190 58.303 C 346.190 57.818,345.630 57.730,343.861 57.940 C 341.778 58.187,341.497 58.108,341.210 57.203 C 340.847 56.062,340.093 55.870,339.726 56.825 C 339.481 57.466,338.095 57.734,338.095 57.141 C 338.095 56.832,336.952 56.704,332.381 56.500 C 331.202 56.448,329.970 56.237,329.643 56.031 C 329.315 55.826,328.829 55.793,328.561 55.959 C 327.570 56.571,323.333 56.481,323.333 55.848 C 323.333 55.512,322.905 55.238,322.381 55.238 C 321.857 55.238,321.429 55.488,321.429 55.794 C 321.429 56.099,321.304 56.225,321.152 56.073 C 321.000 55.920,321.127 55.326,321.434 54.752 C 321.798 54.072,321.831 53.545,321.528 53.242 C 320.972 52.687,312.857 52.292,312.857 52.821 C 312.857 53.023,312.214 53.207,311.429 53.229 C 310.643 53.251,310.000 53.045,310.000 52.770 C 310.000 52.484,310.549 52.375,311.281 52.515 L 312.562 52.760 311.400 51.867 C 310.188 50.935,308.095 50.633,308.095 51.390 C 308.095 51.631,307.244 51.494,306.204 51.085 C 303.377 49.975,304.299 49.542,309.018 49.766 C 312.527 49.933,313.293 49.841,313.528 49.226 C 314.008 47.976,313.382 47.619,310.714 47.619 C 309.305 47.619,308.019 47.405,307.857 47.143 C 307.694 46.879,308.053 46.660,308.662 46.652 C 309.267 46.643,310.178 46.322,310.686 45.937 C 311.316 45.461,312.797 45.238,315.329 45.238 C 317.374 45.238,319.048 45.053,319.048 44.826 C 319.048 44.600,318.458 44.408,317.738 44.401 C 315.506 44.380,315.359 44.316,315.004 43.214 C 314.814 42.625,314.682 41.982,314.710 41.786 C 314.739 41.589,314.494 41.406,314.167 41.378 C 312.502 41.235,307.622 41.009,301.393 40.785 C 297.576 40.648,293.933 40.421,293.298 40.281 C 292.663 40.141,288.629 39.947,284.335 39.851 C 277.782 39.704,276.435 39.551,275.956 38.895 C 275.463 38.221,274.375 38.129,267.971 38.224 C 260.008 38.341,259.246 38.162,260.860 36.548 C 261.435 35.973,261.905 35.744,261.905 36.040 C 261.905 36.688,263.894 36.270,264.388 35.518 C 264.729 35.000,287.421 34.925,290.222 35.432 C 290.924 35.560,292.025 35.464,292.667 35.220 C 293.474 34.913,294.440 34.984,295.788 35.448 C 297.158 35.920,298.097 35.985,298.936 35.666 C 300.799 34.958,299.824 34.586,295.820 34.478 C 293.798 34.423,292.185 34.179,292.235 33.935 C 292.286 33.691,292.072 33.460,291.759 33.420 C 290.087 33.207,266.933 32.821,250.819 32.737 C 234.572 32.652,232.370 32.553,232.497 31.915 C 232.584 31.477,233.202 31.169,234.059 31.136 C 234.838 31.105,236.423 31.052,237.579 31.017 C 238.736 30.981,239.549 30.819,239.386 30.656 C 239.223 30.493,230.027 30.373,218.950 30.390 C 206.117 30.410,199.207 30.260,199.906 29.978 C 200.824 29.608,200.901 29.424,200.382 28.845 C 199.768 28.160,198.944 28.681,198.470 30.053 C 198.074 31.198,186.910 30.658,186.667 29.482 C 186.504 28.696,186.128 28.355,185.476 28.402 C 184.952 28.439,184.149 28.493,183.690 28.521 C 183.232 28.549,182.857 28.885,182.857 29.269 C 182.857 30.533,180.998 31.141,179.972 30.212 C 179.476 29.764,179.173 29.230,179.298 29.027 C 179.933 28.001,178.917 27.288,177.000 27.415 C 175.900 27.487,174.709 27.563,174.353 27.583 C 173.913 27.607,173.798 27.983,173.991 28.755 C 174.156 29.411,174.027 30.098,173.686 30.381 C 172.821 31.098,167.827 31.249,167.976 30.554 C 168.042 30.249,167.560 30.000,166.905 30.000 C 166.250 30.000,165.714 29.786,165.714 29.524 C 165.714 28.997,165.876 28.958,168.452 28.862 C 169.435 28.825,170.509 28.623,170.841 28.412 C 171.851 27.771,171.037 27.207,169.159 27.245 C 168.181 27.265,167.025 27.128,166.589 26.939 C 166.041 26.702,165.729 26.863,165.573 27.465 C 165.393 28.163,165.338 28.181,165.293 27.556 C 165.245 26.869,165.033 26.849,163.470 27.387 C 162.307 27.787,161.316 27.848,160.573 27.565 C 159.952 27.329,159.214 27.278,158.934 27.451 C 158.632 27.638,158.563 27.542,158.764 27.216 C 159.214 26.489,157.974 26.502,157.243 27.233 C 156.415 28.062,155.254 28.131,155.560 27.334 C 155.862 26.548,154.893 26.481,153.652 27.202 M161.211 28.604 C 161.383 28.884,161.825 28.998,162.191 28.857 C 163.216 28.464,162.988 29.897,161.936 30.459 C 161.429 30.731,160.144 30.952,159.079 30.952 C 156.685 30.952,156.500 30.002,158.690 28.957 C 160.668 28.014,160.832 27.991,161.211 28.604 M188.413 28.443 C 188.230 28.739,188.278 29.104,188.521 29.254 C 189.112 29.620,190.476 29.067,190.476 28.462 C 190.476 28.169,190.214 28.196,189.808 28.533 C 189.297 28.957,189.094 28.949,188.943 28.496 C 188.800 28.068,188.654 28.053,188.413 28.443 M97.852 31.010 L 95.952 31.945 100.238 31.625 C 102.595 31.449,104.935 31.279,105.437 31.248 C 105.939 31.216,106.429 30.951,106.527 30.659 C 106.704 30.127,102.475 30.185,100.990 30.734 C 100.619 30.872,100.188 30.780,100.033 30.530 C 99.870 30.265,98.960 30.466,97.852 31.010 M144.762 30.924 C 144.762 31.114,144.621 31.411,144.449 31.583 C 144.028 32.003,142.801 30.953,143.116 30.443 C 143.395 29.991,144.762 30.390,144.762 30.924 M153.013 30.314 C 153.186 30.487,152.877 30.944,152.326 31.330 C 151.344 32.018,150.508 31.576,150.483 30.357 C 150.474 29.917,152.580 29.881,153.013 30.314 M242.857 30.486 C 240.386 30.780,240.351 30.802,242.234 30.875 C 243.331 30.917,244.351 31.149,244.500 31.389 C 244.842 31.944,250.000 31.922,250.000 31.366 C 250.000 31.138,250.786 30.952,251.746 30.952 C 254.804 30.952,253.235 30.585,249.286 30.376 C 247.190 30.265,244.298 30.315,242.857 30.486 M138.095 31.190 C 138.095 31.583,137.774 31.905,137.381 31.905 C 136.637 31.905,136.436 31.342,136.984 30.794 C 137.532 30.246,138.095 30.447,138.095 31.190 M259.889 30.821 C 260.745 30.927,262.031 30.925,262.747 30.816 C 263.462 30.708,262.762 30.621,261.190 30.624 C 259.619 30.626,259.034 30.715,259.889 30.821 M87.457 31.840 C 86.707 32.136,86.826 32.317,88.282 33.101 C 89.619 33.821,90.107 33.893,90.563 33.437 C 91.019 32.981,90.966 32.857,90.318 32.857 C 89.865 32.857,89.371 32.536,89.220 32.143 C 88.919 31.359,88.752 31.331,87.457 31.840 M236.923 37.173 C 237.077 37.421,236.393 37.616,235.385 37.612 C 234.355 37.608,233.820 37.446,234.148 37.238 C 234.997 36.699,236.607 36.661,236.923 37.173 M242.143 37.143 C 242.325 37.437,241.563 37.601,240.147 37.572 C 238.289 37.533,238.082 37.452,239.048 37.143 C 240.755 36.596,241.805 36.596,242.143 37.143 M258.905 36.968 C 258.739 37.134,257.471 37.270,256.087 37.270 C 254.704 37.270,252.764 37.554,251.777 37.902 C 249.821 38.592,248.571 38.369,248.571 37.330 C 248.571 36.803,249.661 36.667,253.889 36.667 C 256.813 36.667,259.071 36.802,258.905 36.968 M316.944 41.310 C 316.604 41.650,316.413 41.708,315.180 41.845 C 314.807 41.887,314.826 42.123,315.243 42.625 C 315.676 43.146,316.009 43.206,316.449 42.840 C 316.882 42.481,317.156 42.494,317.398 42.885 C 317.850 43.617,318.583 42.489,318.238 41.591 C 317.965 40.878,317.481 40.773,316.944 41.310 M72.619 42.381 C 72.457 42.643,71.641 42.854,70.805 42.850 C 69.649 42.844,69.456 42.732,70.000 42.381 C 70.944 41.771,72.996 41.771,72.619 42.381 M321.429 42.279 C 321.429 42.553,322.384 42.778,323.553 42.778 C 324.721 42.778,325.885 42.906,326.139 43.063 C 326.393 43.220,326.735 43.131,326.900 42.865 C 327.069 42.591,326.722 42.379,326.100 42.376 C 325.495 42.373,324.196 42.238,323.214 42.075 C 322.099 41.891,321.429 41.968,321.429 42.279 M37.519 52.929 C 37.114 53.186,37.351 53.321,38.214 53.326 C 38.935 53.330,39.524 53.155,39.524 52.937 C 39.524 52.428,38.316 52.424,37.519 52.929 M32.412 53.867 C 30.464 54.093,28.750 54.440,28.602 54.639 C 28.454 54.837,27.426 55.040,26.317 55.089 C 23.656 55.207,21.667 56.190,21.667 57.387 C 21.667 57.908,21.263 58.669,20.770 59.080 C 20.032 59.693,19.969 60.006,20.416 60.840 C 20.862 61.673,20.809 61.941,20.122 62.341 C 18.499 63.286,20.258 62.886,31.190 59.821 C 31.714 59.674,31.286 59.668,30.238 59.808 C 29.190 59.948,27.391 60.187,26.238 60.339 C 24.728 60.539,24.237 60.464,24.481 60.070 C 24.666 59.770,25.315 59.524,25.922 59.524 C 26.530 59.524,27.776 59.211,28.691 58.828 C 29.606 58.446,30.460 58.238,30.588 58.366 C 30.716 58.493,31.400 58.378,32.108 58.108 C 33.709 57.500,39.517 56.255,42.381 55.907 C 43.560 55.763,44.585 55.478,44.659 55.273 C 44.734 55.068,45.323 55.001,45.969 55.125 C 46.615 55.248,47.143 55.135,47.143 54.873 C 47.143 54.611,47.616 54.273,48.193 54.122 C 50.218 53.593,48.646 53.277,46.358 53.753 C 45.087 54.018,42.617 54.531,40.867 54.893 C 38.915 55.298,37.396 55.389,36.932 55.130 C 36.127 54.679,34.531 55.800,35.127 56.397 C 35.303 56.573,35.079 56.576,34.628 56.403 C 33.361 55.916,33.656 55.011,35.357 54.164 C 36.208 53.741,36.690 53.408,36.429 53.426 C 36.167 53.443,34.359 53.642,32.412 53.867 M320.218 54.319 C 320.067 54.562,319.609 54.762,319.199 54.762 C 318.594 54.762,318.565 54.629,319.043 54.053 C 319.658 53.312,320.695 53.547,320.218 54.319 M317.619 55.523 C 317.619 56.062,315.303 55.617,315.079 55.035 C 314.865 54.477,315.069 54.442,316.219 54.843 C 316.989 55.112,317.619 55.417,317.619 55.523 M59.524 62.381 C 59.524 62.643,59.042 62.854,58.452 62.850 C 57.586 62.844,57.518 62.754,58.095 62.381 C 59.018 61.784,59.524 61.784,59.524 62.381 M332.872 63.240 C 331.472 63.349,331.069 63.558,331.266 64.074 C 331.630 65.022,330.721 64.938,329.706 63.929 C 328.906 63.134,328.932 63.088,330.267 62.940 C 331.037 62.854,331.843 62.614,332.058 62.405 C 332.273 62.197,332.965 62.267,333.596 62.561 C 334.687 63.069,334.651 63.102,332.872 63.240 M30.714 68.384 L 28.810 69.050 30.714 68.767 C 32.696 68.473,34.777 67.612,33.333 67.683 C 32.940 67.703,31.762 68.018,30.714 68.384 M49.524 68.095 C 48.543 68.409,48.501 68.484,49.286 68.517 C 49.810 68.539,50.560 68.349,50.952 68.095 C 51.787 67.556,51.207 67.556,49.524 68.095 M61.344 69.066 C 60.905 69.323,59.512 69.640,58.249 69.772 L 55.952 70.011 57.619 69.328 C 59.585 68.521,62.647 68.306,61.344 69.066 M41.252 69.424 C 41.124 69.631,41.754 69.715,42.652 69.610 C 43.551 69.505,44.286 69.336,44.286 69.234 C 44.286 68.875,41.482 69.051,41.252 69.424 M281.905 69.524 C 281.905 69.786,282.226 70.000,282.619 70.000 C 283.012 70.000,283.333 70.212,283.333 70.471 C 283.333 71.348,281.143 70.798,281.076 69.904 C 281.041 69.433,281.213 69.048,281.458 69.048 C 281.704 69.048,281.905 69.262,281.905 69.524 M286.254 70.603 C 285.686 71.171,284.108 70.673,284.494 70.048 C 284.642 69.809,285.205 69.729,285.746 69.870 C 286.401 70.042,286.571 70.286,286.254 70.603 M368.397 70.244 C 368.267 70.582,368.266 70.964,368.394 71.092 C 368.729 71.427,370.476 70.910,370.476 70.476 C 370.476 69.818,368.639 69.613,368.397 70.244 M330.476 73.759 C 330.476 73.992,330.798 74.307,331.190 74.458 C 331.626 74.625,331.905 74.459,331.905 74.033 C 331.905 73.648,331.583 73.333,331.190 73.333 C 330.798 73.333,330.476 73.525,330.476 73.759 M241.905 76.658 C 241.905 77.322,240.821 77.437,237.143 77.167 C 234.052 76.939,233.747 76.840,234.872 76.428 C 236.344 75.890,241.905 76.072,241.905 76.658 M353.637 76.429 C 353.330 77.229,354.524 77.437,355.000 76.667 C 355.417 75.992,357.017 76.075,357.304 76.786 C 357.447 77.141,357.559 77.045,357.581 76.548 C 357.631 75.443,354.057 75.335,353.637 76.429 M279.015 76.616 C 278.997 76.775,278.904 77.494,278.809 78.214 C 278.665 79.303,278.815 79.524,279.699 79.524 C 282.153 79.524,282.908 76.464,280.475 76.378 C 279.690 76.350,279.033 76.457,279.015 76.616 M286.037 76.979 C 285.859 77.156,285.714 77.694,285.714 78.175 C 285.714 78.674,285.358 79.064,284.881 79.086 C 283.703 79.141,286.613 80.427,287.976 80.455 C 288.602 80.467,289.048 80.191,289.048 79.790 C 289.048 78.796,288.060 78.337,287.573 79.106 C 287.268 79.588,287.156 79.464,287.150 78.640 C 287.145 77.810,287.340 77.593,287.896 77.806 C 288.310 77.965,289.114 78.099,289.682 78.103 C 290.504 78.108,290.572 78.200,290.014 78.553 C 289.629 78.796,289.431 79.114,289.575 79.258 C 289.720 79.402,290.316 79.011,290.901 78.388 L 291.965 77.256 290.022 77.229 C 288.954 77.214,287.693 77.079,287.220 76.929 C 286.747 76.779,286.214 76.801,286.037 76.979 M280.952 77.561 C 280.952 77.791,280.631 78.245,280.238 78.571 C 279.492 79.191,279.128 78.173,279.841 77.460 C 280.294 77.008,280.952 77.068,280.952 77.561 M131.750 78.885 C 131.402 79.233,127.143 79.636,127.143 79.320 C 127.143 78.763,129.132 78.273,130.549 78.480 C 131.319 78.594,131.860 78.775,131.750 78.885 M185.238 78.401 C 185.238 78.626,183.310 78.735,180.953 78.643 C 178.291 78.540,176.667 78.658,176.667 78.955 C 176.667 79.244,178.833 79.455,182.143 79.490 C 185.600 79.526,187.619 79.367,187.619 79.059 C 187.619 78.791,187.422 78.571,187.182 78.571 C 186.941 78.571,186.406 78.441,185.991 78.282 C 185.577 78.123,185.238 78.177,185.238 78.401 M267.619 78.571 C 267.012 78.964,267.008 79.034,267.595 79.040 C 268.642 79.051,267.592 79.827,266.033 80.195 C 264.258 80.615,264.411 79.017,266.193 78.521 C 267.943 78.034,268.425 78.051,267.619 78.571 M124.597 79.371 C 124.198 79.770,121.429 79.953,121.429 79.581 C 121.429 78.887,121.893 78.735,123.353 78.949 C 124.152 79.066,124.712 79.256,124.597 79.371 M294.273 79.944 C 294.411 80.530,294.680 81.023,294.870 81.040 C 295.060 81.057,296.217 81.258,297.441 81.487 C 298.958 81.770,299.871 81.733,300.310 81.369 C 300.788 80.972,300.952 80.980,300.952 81.400 C 300.952 81.794,301.738 81.896,303.548 81.740 C 305.614 81.561,306.352 81.695,307.163 82.399 C 308.308 83.392,307.975 84.490,306.635 84.139 C 306.153 84.013,305.374 84.202,304.903 84.559 C 303.728 85.450,303.382 85.394,303.653 84.358 C 303.900 83.414,300.614 82.868,294.160 82.782 C 292.651 82.762,291.305 82.567,291.171 82.349 C 290.848 81.827,292.624 80.886,293.101 81.326 C 293.304 81.513,293.334 80.953,293.168 80.081 C 292.820 78.257,293.844 78.131,294.273 79.944 M188.418 79.810 C 188.579 80.229,188.411 80.762,188.046 80.993 C 187.618 81.264,188.313 81.400,190.000 81.374 C 191.789 81.346,192.253 81.231,191.464 81.011 C 189.813 80.550,189.709 79.628,191.281 79.391 C 192.148 79.261,191.828 79.165,190.372 79.119 C 188.491 79.059,188.173 79.172,188.418 79.810 M48.387 81.071 C 48.322 82.360,45.476 82.709,45.476 81.429 C 45.476 81.036,45.744 80.768,46.071 80.833 C 46.399 80.899,46.667 80.738,46.667 80.476 C 46.667 80.214,47.066 80.000,47.554 80.000 C 48.173 80.000,48.425 80.324,48.387 81.071 M107.619 80.476 C 106.696 81.073,106.190 81.073,106.190 80.476 C 106.190 80.214,106.673 80.003,107.262 80.007 C 108.128 80.013,108.197 80.103,107.619 80.476 M144.762 80.952 C 144.762 81.214,144.434 81.429,144.033 81.429 C 143.632 81.429,143.189 81.726,143.050 82.090 C 142.896 82.491,142.408 82.650,141.810 82.494 C 141.107 82.310,140.889 82.428,141.048 82.904 C 141.394 83.937,148.009 83.909,148.564 82.872 C 148.879 82.282,148.740 82.084,147.972 82.026 C 147.420 81.985,146.783 81.619,146.556 81.213 C 146.099 80.397,144.762 80.202,144.762 80.952 M156.028 81.164 C 155.823 81.699,155.425 81.755,154.243 81.416 C 152.484 80.912,152.114 81.055,151.769 82.374 C 151.493 83.428,151.537 83.443,155.000 83.411 C 160.858 83.357,160.952 83.345,160.952 82.619 C 160.952 82.226,161.179 81.905,161.457 81.905 C 162.747 81.905,161.278 81.093,159.917 81.054 C 159.000 81.028,158.615 81.161,158.970 81.381 C 159.441 81.672,159.423 81.872,158.887 82.317 C 158.332 82.778,158.149 82.659,157.903 81.679 C 157.574 80.370,156.452 80.061,156.028 81.164 M162.454 82.168 L 161.410 83.146 163.366 83.261 C 164.630 83.336,165.212 83.201,165.013 82.879 C 164.844 82.605,164.933 82.381,165.210 82.381 C 165.487 82.381,165.714 82.702,165.714 83.095 C 165.714 83.492,166.138 83.810,166.667 83.810 C 167.190 83.810,167.619 83.552,167.619 83.238 C 167.619 82.806,167.753 82.801,168.169 83.217 C 168.697 83.744,170.921 82.241,170.944 81.342 C 170.966 80.475,163.484 81.204,162.454 82.168 M221.759 81.257 C 221.197 81.819,221.949 82.381,223.242 82.366 C 224.472 82.351,224.486 82.322,223.599 81.652 C 222.580 80.880,222.214 80.802,221.759 81.257 M309.524 82.619 C 309.524 84.643,308.760 84.835,308.474 82.882 C 308.360 82.110,308.443 81.587,308.658 81.720 C 308.872 81.852,309.048 81.734,309.048 81.457 C 309.048 81.179,309.155 80.952,309.286 80.952 C 309.417 80.952,309.524 81.702,309.524 82.619 M40.952 82.092 C 40.952 82.457,40.631 82.879,40.238 83.029 C 39.522 83.304,39.230 82.358,39.841 81.746 C 40.375 81.212,40.952 81.392,40.952 82.092 M128.859 82.246 C 128.180 82.420,128.111 82.572,128.578 82.861 C 129.287 83.299,130.476 82.966,130.476 82.330 C 130.476 81.882,130.314 81.874,128.859 82.246 M149.841 82.222 C 149.263 82.801,149.512 83.333,150.357 83.326 C 151.009 83.320,151.049 83.229,150.541 82.907 C 149.993 82.560,149.993 82.456,150.541 82.238 C 150.898 82.096,150.958 81.963,150.675 81.942 C 150.391 81.922,150.016 82.048,149.841 82.222 M174.128 82.697 C 173.954 82.871,172.901 82.981,171.787 82.942 C 170.323 82.890,169.960 82.998,170.476 83.333 C 171.770 84.170,175.609 83.546,174.708 82.645 C 174.563 82.500,174.302 82.523,174.128 82.697 M177.898 82.791 C 177.532 83.383,183.416 83.917,183.990 83.344 C 184.728 82.605,184.059 82.310,182.764 82.802 C 182.065 83.068,181.314 83.076,180.913 82.822 C 180.050 82.277,178.228 82.257,177.898 82.791 M242.286 82.922 C 242.909 83.490,248.095 83.679,248.095 83.134 C 248.095 82.818,246.910 82.619,245.024 82.619 C 243.335 82.619,242.102 82.756,242.286 82.922 M324.167 83.238 C 323.708 83.329,323.333 83.734,323.333 84.138 C 323.333 84.633,323.637 84.793,324.264 84.630 C 325.310 84.356,327.079 85.403,326.341 85.859 C 325.703 86.254,322.381 85.198,322.381 84.600 C 322.381 83.761,323.917 82.391,324.468 82.738 C 324.808 82.952,324.700 83.132,324.167 83.238 M117.619 83.251 C 117.619 83.467,118.262 83.550,119.048 83.435 C 119.833 83.320,120.476 83.142,120.476 83.041 C 120.476 82.940,119.833 82.857,119.048 82.857 C 118.262 82.857,117.619 83.034,117.619 83.251 M122.976 83.185 C 123.435 83.305,124.185 83.305,124.643 83.185 C 125.101 83.066,124.726 82.968,123.810 82.968 C 122.893 82.968,122.518 83.066,122.976 83.185 M185.411 83.188 C 185.925 83.703,187.143 83.775,187.143 83.291 C 187.143 83.052,186.679 82.857,186.111 82.857 C 185.544 82.857,185.228 83.006,185.411 83.188 M191.429 83.333 C 191.429 83.595,191.911 83.806,192.500 83.802 C 193.366 83.796,193.435 83.707,192.857 83.333 C 191.934 82.737,191.429 82.737,191.429 83.333 M200.952 83.282 C 200.952 83.878,202.297 84.331,202.601 83.839 C 202.739 83.616,202.514 83.304,202.101 83.145 C 201.103 82.762,200.952 82.780,200.952 83.282 M203.621 83.253 C 203.487 83.470,204.492 83.664,205.855 83.682 C 207.595 83.707,208.050 83.599,207.381 83.320 C 206.120 82.796,203.928 82.756,203.621 83.253 M106.892 83.830 C 106.737 84.081,107.251 84.286,108.039 84.286 C 109.898 84.286,110.320 83.601,108.541 83.473 C 107.789 83.419,107.047 83.579,106.892 83.830 M111.786 83.669 C 112.375 83.783,113.339 83.783,113.929 83.669 C 114.518 83.556,114.036 83.463,112.857 83.463 C 111.679 83.463,111.196 83.556,111.786 83.669 M209.524 83.973 C 210.747 84.616,211.905 84.511,211.905 83.759 C 211.905 83.525,211.101 83.336,210.119 83.340 C 208.357 83.347,208.349 83.356,209.524 83.973 M217.980 83.685 C 215.718 83.827,215.347 83.968,215.837 84.497 C 216.261 84.955,216.681 85.003,217.317 84.665 C 217.919 84.346,218.845 84.372,220.182 84.746 C 221.548 85.129,222.545 85.152,223.411 84.823 C 224.100 84.561,224.793 84.476,224.951 84.634 C 225.109 84.791,225.238 84.694,225.238 84.416 C 225.238 83.718,224.017 83.316,222.223 83.423 C 221.393 83.473,219.484 83.591,217.980 83.685 M260.476 84.048 C 259.981 84.644,260.048 84.762,260.879 84.762 C 261.569 84.762,261.791 84.542,261.601 84.048 C 261.450 83.655,261.269 83.333,261.198 83.333 C 261.127 83.333,260.802 83.655,260.476 84.048 M318.095 84.286 C 317.511 85.378,316.190 85.570,316.190 84.563 C 316.190 83.884,316.861 83.440,317.993 83.371 C 318.458 83.342,318.483 83.561,318.095 84.286 M227.077 84.711 C 227.667 85.085,229.524 84.901,229.524 84.468 C 229.524 84.368,228.827 84.289,227.976 84.293 C 226.924 84.298,226.636 84.432,227.077 84.711 M264.064 84.788 C 264.217 85.036,265.115 85.238,266.060 85.238 C 267.005 85.238,267.623 85.083,267.434 84.894 C 266.908 84.369,263.743 84.269,264.064 84.788 M235.215 85.448 C 235.528 85.825,236.090 86.017,236.463 85.873 C 237.582 85.444,237.232 84.762,235.894 84.762 C 234.861 84.762,234.744 84.880,235.215 85.448 M241.694 85.194 C 241.545 85.435,241.692 85.741,242.021 85.874 C 242.496 86.066,242.497 86.123,242.024 86.153 C 240.307 86.261,241.778 86.917,243.904 86.990 C 245.276 87.038,246.106 86.908,245.767 86.699 C 244.750 86.071,246.223 85.776,249.091 86.035 C 250.507 86.163,252.631 86.341,253.810 86.431 C 261.913 87.050,262.414 87.136,263.429 88.082 C 264.607 89.180,265.808 89.370,265.436 88.400 C 265.240 87.890,265.770 87.789,267.951 87.923 C 273.172 88.245,274.287 88.411,275.475 89.047 C 276.452 89.570,276.873 89.574,277.812 89.072 C 278.442 88.735,279.193 88.605,279.483 88.784 C 280.157 89.201,281.905 88.656,281.905 88.029 C 281.905 87.766,281.423 87.599,280.833 87.658 C 280.244 87.717,279.226 87.632,278.571 87.469 C 277.917 87.305,275.198 87.079,272.530 86.966 C 269.862 86.853,267.402 86.589,267.064 86.380 C 266.726 86.171,265.159 85.957,263.582 85.904 C 262.005 85.851,258.464 85.648,255.714 85.454 C 246.957 84.834,241.974 84.742,241.694 85.194 M270.794 85.109 C 270.422 85.711,278.196 86.728,278.786 86.155 C 279.066 85.882,278.749 85.692,277.952 85.655 C 275.497 85.541,274.039 85.369,272.558 85.019 C 271.731 84.823,270.946 84.863,270.794 85.109 M306.190 86.190 C 306.190 86.452,305.762 86.667,305.238 86.667 C 304.714 86.667,304.286 86.452,304.286 86.190 C 304.286 85.929,304.714 85.714,305.238 85.714 C 305.762 85.714,306.190 85.929,306.190 86.190 M284.285 86.692 C 284.286 87.049,293.007 88.106,295.913 88.100 C 299.404 88.093,298.428 87.764,293.095 87.149 C 287.412 86.495,284.285 86.332,284.285 86.692 M282.921 87.994 C 282.264 88.214,282.196 89.524,282.842 89.524 C 283.096 89.524,283.180 89.845,283.029 90.238 C 282.856 90.690,283.036 90.952,283.520 90.952 C 283.941 90.952,284.286 90.631,284.286 90.238 C 284.286 89.845,284.446 89.521,284.643 89.517 C 284.839 89.514,285.482 89.382,286.071 89.224 C 286.936 88.992,287.143 89.132,287.143 89.944 C 287.143 90.635,287.443 90.952,288.095 90.952 C 288.619 90.952,289.048 90.723,289.048 90.442 C 289.048 90.162,289.384 90.269,289.796 90.680 C 290.207 91.092,290.945 91.429,291.434 91.429 C 291.924 91.429,292.457 91.643,292.619 91.905 C 292.781 92.167,293.490 92.374,294.195 92.366 C 295.295 92.354,295.358 92.283,294.643 91.867 C 294.185 91.600,293.810 91.203,293.810 90.984 C 293.810 90.343,296.814 90.681,297.036 91.347 C 297.184 91.789,297.402 91.732,297.836 91.138 C 298.256 90.564,298.701 90.437,299.336 90.712 C 299.832 90.927,300.504 91.060,300.828 91.008 C 301.934 90.830,303.539 91.960,302.816 92.407 C 301.933 92.952,303.480 93.562,304.630 93.121 C 305.321 92.855,305.342 92.739,304.762 92.381 C 304.196 92.031,304.240 91.896,305.013 91.619 C 305.530 91.433,306.094 91.207,306.268 91.115 C 306.441 91.023,306.522 91.324,306.448 91.783 C 306.300 92.695,306.994 93.810,307.709 93.810 C 307.957 93.810,308.023 93.381,307.857 92.857 C 307.548 91.882,308.214 91.641,310.714 91.823 C 311.621 91.889,311.626 91.861,310.807 91.232 C 309.969 90.588,304.298 89.902,300.952 90.040 C 300.036 90.078,298.718 89.884,298.025 89.609 C 297.332 89.334,296.656 89.217,296.524 89.349 C 296.391 89.482,295.030 89.354,293.499 89.067 C 289.953 88.400,283.627 87.759,282.921 87.994 M358.571 88.571 C 358.571 89.174,357.598 89.174,356.667 88.571 C 356.110 88.212,356.241 88.108,357.262 88.103 C 357.982 88.099,358.571 88.310,358.571 88.571 M308.571 89.048 C 308.571 89.310,308.893 89.524,309.286 89.524 C 309.679 89.524,310.000 89.310,310.000 89.048 C 310.000 88.786,309.679 88.571,309.286 88.571 C 308.893 88.571,308.571 88.786,308.571 89.048 M331.667 91.429 C 331.505 91.690,331.814 91.905,332.353 91.905 C 332.892 91.905,333.333 91.690,333.333 91.429 C 333.333 91.167,333.025 90.952,332.647 90.952 C 332.270 90.952,331.829 91.167,331.667 91.429 M315.023 92.418 C 315.150 92.623,315.009 92.943,314.709 93.128 C 312.888 94.253,319.179 95.057,321.668 94.016 C 322.567 93.641,323.858 93.333,324.537 93.333 C 326.022 93.333,325.647 92.409,324.143 92.364 C 323.567 92.346,321.227 92.268,318.944 92.189 C 316.661 92.110,314.896 92.213,315.023 92.418 M318.333 93.333 C 318.171 93.595,317.743 93.810,317.381 93.810 C 317.019 93.810,316.590 93.595,316.429 93.333 C 316.261 93.062,316.671 92.857,317.381 92.857 C 318.091 92.857,318.501 93.062,318.333 93.333 M329.048 93.406 C 329.048 93.628,329.288 93.810,329.582 93.810 C 329.951 93.810,329.933 94.030,329.524 94.524 C 329.038 95.109,329.071 95.238,329.704 95.238 C 330.129 95.238,330.476 95.049,330.476 94.817 C 330.476 94.586,330.926 94.279,331.476 94.135 C 332.027 93.991,332.344 93.659,332.182 93.397 C 331.828 92.824,329.048 92.832,329.048 93.406 M336.612 94.360 C 337.499 94.615,338.397 94.648,338.608 94.435 C 338.818 94.222,338.093 94.014,336.995 93.973 L 335.000 93.898 336.612 94.360 " stroke="none" fill="url('#gradient')" fill-rule="evenodd"></path></g></svg>